G04 #@! TF.GenerationSoftware,KiCad,Pcbnew,(5.0.0)*
G04 #@! TF.CreationDate,2018-11-27T00:40:26-08:00*
G04 #@! TF.ProjectId,Contra,436F6E7472612E6B696361645F706362,rev?*
G04 #@! TF.SameCoordinates,Original*
G04 #@! TF.FileFunction,Copper,L2,Bot,Signal*
G04 #@! TF.FilePolarity,Positive*
%FSLAX46Y46*%
G04 Gerber Fmt 4.6, Leading zero omitted, Abs format (unit mm)*
G04 Created by KiCad (PCBNEW (5.0.0)) date 11/27/18 00:40:26*
%MOMM*%
%LPD*%
G01*
G04 APERTURE LIST*
G04 #@! TA.AperFunction,NonConductor*
%ADD10C,0.300000*%
G04 #@! TD*
G04 #@! TA.AperFunction,EtchedComponent*
%ADD11C,0.010000*%
G04 #@! TD*
G04 #@! TA.AperFunction,ComponentPad*
%ADD12C,2.250000*%
G04 #@! TD*
G04 #@! TA.AperFunction,Conductor*
%ADD13C,2.250000*%
G04 #@! TD*
G04 #@! TA.AperFunction,ComponentPad*
%ADD14C,2.032000*%
G04 #@! TD*
G04 #@! TA.AperFunction,ComponentPad*
%ADD15C,4.400000*%
G04 #@! TD*
G04 #@! TA.AperFunction,ComponentPad*
%ADD16C,0.700000*%
G04 #@! TD*
G04 #@! TA.AperFunction,ComponentPad*
%ADD17R,1.600000X1.600000*%
G04 #@! TD*
G04 #@! TA.AperFunction,ComponentPad*
%ADD18O,1.600000X1.600000*%
G04 #@! TD*
G04 #@! TA.AperFunction,ComponentPad*
%ADD19C,1.800000*%
G04 #@! TD*
G04 #@! TA.AperFunction,ComponentPad*
%ADD20O,1.700000X1.700000*%
G04 #@! TD*
G04 #@! TA.AperFunction,ComponentPad*
%ADD21R,1.700000X1.700000*%
G04 #@! TD*
G04 #@! TA.AperFunction,ViaPad*
%ADD22C,0.600000*%
G04 #@! TD*
G04 #@! TA.AperFunction,Conductor*
%ADD23C,0.250000*%
G04 #@! TD*
G04 #@! TA.AperFunction,Conductor*
%ADD24C,0.381000*%
G04 #@! TD*
G04 APERTURE END LIST*
D10*
X222501785Y-65623214D02*
X222573214Y-65694642D01*
X222787500Y-65766071D01*
X222930357Y-65766071D01*
X223144642Y-65694642D01*
X223287500Y-65551785D01*
X223358928Y-65408928D01*
X223430357Y-65123214D01*
X223430357Y-64908928D01*
X223358928Y-64623214D01*
X223287500Y-64480357D01*
X223144642Y-64337500D01*
X222930357Y-64266071D01*
X222787500Y-64266071D01*
X222573214Y-64337500D01*
X222501785Y-64408928D01*
X221644642Y-65766071D02*
X221787500Y-65694642D01*
X221858928Y-65623214D01*
X221930357Y-65480357D01*
X221930357Y-65051785D01*
X221858928Y-64908928D01*
X221787500Y-64837500D01*
X221644642Y-64766071D01*
X221430357Y-64766071D01*
X221287500Y-64837500D01*
X221216071Y-64908928D01*
X221144642Y-65051785D01*
X221144642Y-65480357D01*
X221216071Y-65623214D01*
X221287500Y-65694642D01*
X221430357Y-65766071D01*
X221644642Y-65766071D01*
X220501785Y-64766071D02*
X220501785Y-65766071D01*
X220501785Y-64908928D02*
X220430357Y-64837500D01*
X220287500Y-64766071D01*
X220073214Y-64766071D01*
X219930357Y-64837500D01*
X219858928Y-64980357D01*
X219858928Y-65766071D01*
X219358928Y-64766071D02*
X218787500Y-64766071D01*
X219144642Y-64266071D02*
X219144642Y-65551785D01*
X219073214Y-65694642D01*
X218930357Y-65766071D01*
X218787500Y-65766071D01*
X218287500Y-65766071D02*
X218287500Y-64766071D01*
X218287500Y-65051785D02*
X218216071Y-64908928D01*
X218144642Y-64837500D01*
X218001785Y-64766071D01*
X217858928Y-64766071D01*
X216716071Y-65766071D02*
X216716071Y-64980357D01*
X216787500Y-64837500D01*
X216930357Y-64766071D01*
X217216071Y-64766071D01*
X217358928Y-64837500D01*
X216716071Y-65694642D02*
X216858928Y-65766071D01*
X217216071Y-65766071D01*
X217358928Y-65694642D01*
X217430357Y-65551785D01*
X217430357Y-65408928D01*
X217358928Y-65266071D01*
X217216071Y-65194642D01*
X216858928Y-65194642D01*
X216716071Y-65123214D01*
X214858928Y-65766071D02*
X214858928Y-64266071D01*
X214287500Y-64266071D01*
X214144642Y-64337500D01*
X214073214Y-64408928D01*
X214001785Y-64551785D01*
X214001785Y-64766071D01*
X214073214Y-64908928D01*
X214144642Y-64980357D01*
X214287500Y-65051785D01*
X214858928Y-65051785D01*
X212501785Y-65623214D02*
X212573214Y-65694642D01*
X212787500Y-65766071D01*
X212930357Y-65766071D01*
X213144642Y-65694642D01*
X213287500Y-65551785D01*
X213358928Y-65408928D01*
X213430357Y-65123214D01*
X213430357Y-64908928D01*
X213358928Y-64623214D01*
X213287500Y-64480357D01*
X213144642Y-64337500D01*
X212930357Y-64266071D01*
X212787500Y-64266071D01*
X212573214Y-64337500D01*
X212501785Y-64408928D01*
X211358928Y-64980357D02*
X211144642Y-65051785D01*
X211073214Y-65123214D01*
X211001785Y-65266071D01*
X211001785Y-65480357D01*
X211073214Y-65623214D01*
X211144642Y-65694642D01*
X211287500Y-65766071D01*
X211858928Y-65766071D01*
X211858928Y-64266071D01*
X211358928Y-64266071D01*
X211216071Y-64337500D01*
X211144642Y-64408928D01*
X211073214Y-64551785D01*
X211073214Y-64694642D01*
X211144642Y-64837500D01*
X211216071Y-64908928D01*
X211358928Y-64980357D01*
X211858928Y-64980357D01*
X209216071Y-65766071D02*
X209216071Y-64266071D01*
X209216071Y-64837500D02*
X209073214Y-64766071D01*
X208787500Y-64766071D01*
X208644642Y-64837500D01*
X208573214Y-64908928D01*
X208501785Y-65051785D01*
X208501785Y-65480357D01*
X208573214Y-65623214D01*
X208644642Y-65694642D01*
X208787500Y-65766071D01*
X209073214Y-65766071D01*
X209216071Y-65694642D01*
X208001785Y-64766071D02*
X207644642Y-65766071D01*
X207287500Y-64766071D02*
X207644642Y-65766071D01*
X207787500Y-66123214D01*
X207858928Y-66194642D01*
X208001785Y-66266071D01*
X204930357Y-65766071D02*
X204930357Y-64980357D01*
X205001785Y-64837500D01*
X205144642Y-64766071D01*
X205430357Y-64766071D01*
X205573214Y-64837500D01*
X204930357Y-65694642D02*
X205073214Y-65766071D01*
X205430357Y-65766071D01*
X205573214Y-65694642D01*
X205644642Y-65551785D01*
X205644642Y-65408928D01*
X205573214Y-65266071D01*
X205430357Y-65194642D01*
X205073214Y-65194642D01*
X204930357Y-65123214D01*
X204216071Y-65766071D02*
X204216071Y-64766071D01*
X204216071Y-64266071D02*
X204287500Y-64337500D01*
X204216071Y-64408928D01*
X204144642Y-64337500D01*
X204216071Y-64266071D01*
X204216071Y-64408928D01*
X203216071Y-64266071D02*
X203073214Y-64266071D01*
X202930357Y-64337500D01*
X202858928Y-64408928D01*
X202787500Y-64551785D01*
X202716071Y-64837500D01*
X202716071Y-65194642D01*
X202787500Y-65480357D01*
X202858928Y-65623214D01*
X202930357Y-65694642D01*
X203073214Y-65766071D01*
X203216071Y-65766071D01*
X203358928Y-65694642D01*
X203430357Y-65623214D01*
X203501785Y-65480357D01*
X203573214Y-65194642D01*
X203573214Y-64837500D01*
X203501785Y-64551785D01*
X203430357Y-64408928D01*
X203358928Y-64337500D01*
X203216071Y-64266071D01*
X202216071Y-64266071D02*
X201287500Y-64266071D01*
X201787500Y-64837500D01*
X201573214Y-64837500D01*
X201430357Y-64908928D01*
X201358928Y-64980357D01*
X201287500Y-65123214D01*
X201287500Y-65480357D01*
X201358928Y-65623214D01*
X201430357Y-65694642D01*
X201573214Y-65766071D01*
X202001785Y-65766071D01*
X202144642Y-65694642D01*
X202216071Y-65623214D01*
X198644642Y-65766071D02*
X199144642Y-65051785D01*
X199501785Y-65766071D02*
X199501785Y-64266071D01*
X198930357Y-64266071D01*
X198787500Y-64337500D01*
X198716071Y-64408928D01*
X198644642Y-64551785D01*
X198644642Y-64766071D01*
X198716071Y-64908928D01*
X198787500Y-64980357D01*
X198930357Y-65051785D01*
X199501785Y-65051785D01*
X197430357Y-65694642D02*
X197573214Y-65766071D01*
X197858928Y-65766071D01*
X198001785Y-65694642D01*
X198073214Y-65551785D01*
X198073214Y-64980357D01*
X198001785Y-64837500D01*
X197858928Y-64766071D01*
X197573214Y-64766071D01*
X197430357Y-64837500D01*
X197358928Y-64980357D01*
X197358928Y-65123214D01*
X198073214Y-65266071D01*
X196858928Y-64766071D02*
X196501785Y-65766071D01*
X196144642Y-64766071D01*
X195573214Y-65766071D02*
X195573214Y-64766071D01*
X195573214Y-64266071D02*
X195644642Y-64337500D01*
X195573214Y-64408928D01*
X195501785Y-64337500D01*
X195573214Y-64266071D01*
X195573214Y-64408928D01*
X194930357Y-65694642D02*
X194787500Y-65766071D01*
X194501785Y-65766071D01*
X194358928Y-65694642D01*
X194287500Y-65551785D01*
X194287500Y-65480357D01*
X194358928Y-65337500D01*
X194501785Y-65266071D01*
X194716071Y-65266071D01*
X194858928Y-65194642D01*
X194930357Y-65051785D01*
X194930357Y-64980357D01*
X194858928Y-64837500D01*
X194716071Y-64766071D01*
X194501785Y-64766071D01*
X194358928Y-64837500D01*
X193644642Y-65766071D02*
X193644642Y-64766071D01*
X193644642Y-64266071D02*
X193716071Y-64337500D01*
X193644642Y-64408928D01*
X193573214Y-64337500D01*
X193644642Y-64266071D01*
X193644642Y-64408928D01*
X192716071Y-65766071D02*
X192858928Y-65694642D01*
X192930357Y-65623214D01*
X193001785Y-65480357D01*
X193001785Y-65051785D01*
X192930357Y-64908928D01*
X192858928Y-64837500D01*
X192716071Y-64766071D01*
X192501785Y-64766071D01*
X192358928Y-64837500D01*
X192287500Y-64908928D01*
X192216071Y-65051785D01*
X192216071Y-65480357D01*
X192287500Y-65623214D01*
X192358928Y-65694642D01*
X192501785Y-65766071D01*
X192716071Y-65766071D01*
X191573214Y-64766071D02*
X191573214Y-65766071D01*
X191573214Y-64908928D02*
X191501785Y-64837500D01*
X191358928Y-64766071D01*
X191144642Y-64766071D01*
X191001785Y-64837500D01*
X190930357Y-64980357D01*
X190930357Y-65766071D01*
X189144642Y-64408928D02*
X189073214Y-64337500D01*
X188930357Y-64266071D01*
X188573214Y-64266071D01*
X188430357Y-64337500D01*
X188358928Y-64408928D01*
X188287500Y-64551785D01*
X188287500Y-64694642D01*
X188358928Y-64908928D01*
X189216071Y-65766071D01*
X188287500Y-65766071D01*
X187644642Y-65623214D02*
X187573214Y-65694642D01*
X187644642Y-65766071D01*
X187716071Y-65694642D01*
X187644642Y-65623214D01*
X187644642Y-65766071D01*
X186644642Y-64266071D02*
X186501785Y-64266071D01*
X186358928Y-64337500D01*
X186287500Y-64408928D01*
X186216071Y-64551785D01*
X186144642Y-64837500D01*
X186144642Y-65194642D01*
X186216071Y-65480357D01*
X186287500Y-65623214D01*
X186358928Y-65694642D01*
X186501785Y-65766071D01*
X186644642Y-65766071D01*
X186787500Y-65694642D01*
X186858928Y-65623214D01*
X186930357Y-65480357D01*
X187001785Y-65194642D01*
X187001785Y-64837500D01*
X186930357Y-64551785D01*
X186858928Y-64408928D01*
X186787500Y-64337500D01*
X186644642Y-64266071D01*
D11*
G04 #@! TO.C,G\002A\002A\002A*
G36*
X228409500Y-64008000D02*
X228814312Y-64008000D01*
X228814312Y-63603188D01*
X228409500Y-63603188D01*
X228409500Y-64008000D01*
X228409500Y-64008000D01*
G37*
X228409500Y-64008000D02*
X228814312Y-64008000D01*
X228814312Y-63603188D01*
X228409500Y-63603188D01*
X228409500Y-64008000D01*
G36*
X228004687Y-64793813D02*
X228409500Y-64793813D01*
X228409500Y-64412813D01*
X228004687Y-64412813D01*
X228004687Y-64793813D01*
X228004687Y-64793813D01*
G37*
X228004687Y-64793813D02*
X228409500Y-64793813D01*
X228409500Y-64412813D01*
X228004687Y-64412813D01*
X228004687Y-64793813D01*
G36*
X228814312Y-64793813D02*
X229195312Y-64793813D01*
X229195312Y-64412813D01*
X228814312Y-64412813D01*
X228814312Y-64793813D01*
X228814312Y-64793813D01*
G37*
X228814312Y-64793813D02*
X229195312Y-64793813D01*
X229195312Y-64412813D01*
X228814312Y-64412813D01*
X228814312Y-64793813D01*
G36*
X227623687Y-65603438D02*
X228004687Y-65603438D01*
X228004687Y-65198625D01*
X227623687Y-65198625D01*
X227623687Y-65603438D01*
X227623687Y-65603438D01*
G37*
X227623687Y-65603438D02*
X228004687Y-65603438D01*
X228004687Y-65198625D01*
X227623687Y-65198625D01*
X227623687Y-65603438D01*
G36*
X228409500Y-65603438D02*
X228814312Y-65603438D01*
X228814312Y-65198625D01*
X228409500Y-65198625D01*
X228409500Y-65603438D01*
X228409500Y-65603438D01*
G37*
X228409500Y-65603438D02*
X228814312Y-65603438D01*
X228814312Y-65198625D01*
X228409500Y-65198625D01*
X228409500Y-65603438D01*
G36*
X229195312Y-65603438D02*
X229600125Y-65603438D01*
X229600125Y-65198625D01*
X229195312Y-65198625D01*
X229195312Y-65603438D01*
X229195312Y-65603438D01*
G37*
X229195312Y-65603438D02*
X229600125Y-65603438D01*
X229600125Y-65198625D01*
X229195312Y-65198625D01*
X229195312Y-65603438D01*
G36*
X227218875Y-66389250D02*
X227623687Y-66389250D01*
X227623687Y-65984438D01*
X227218875Y-65984438D01*
X227218875Y-66389250D01*
X227218875Y-66389250D01*
G37*
X227218875Y-66389250D02*
X227623687Y-66389250D01*
X227623687Y-65984438D01*
X227218875Y-65984438D01*
X227218875Y-66389250D01*
G36*
X229600125Y-66389250D02*
X230004937Y-66389250D01*
X230004937Y-65984438D01*
X229600125Y-65984438D01*
X229600125Y-66389250D01*
X229600125Y-66389250D01*
G37*
X229600125Y-66389250D02*
X230004937Y-66389250D01*
X230004937Y-65984438D01*
X229600125Y-65984438D01*
X229600125Y-66389250D01*
G36*
X228596031Y-62115545D02*
X228471913Y-62116915D01*
X228360201Y-62121072D01*
X228257608Y-62128419D01*
X228160844Y-62139360D01*
X228066622Y-62154298D01*
X227971653Y-62173637D01*
X227872649Y-62197781D01*
X227827370Y-62209918D01*
X227618823Y-62275156D01*
X227416735Y-62354492D01*
X227221872Y-62447528D01*
X227035001Y-62553868D01*
X226856886Y-62673116D01*
X226704740Y-62791117D01*
X226547072Y-62931842D01*
X226399735Y-63083287D01*
X226263414Y-63244385D01*
X226138792Y-63414067D01*
X226026553Y-63591266D01*
X225927380Y-63774916D01*
X225841958Y-63963947D01*
X225770970Y-64157293D01*
X225722216Y-64325303D01*
X225689145Y-64465289D01*
X225663785Y-64597225D01*
X225645393Y-64726497D01*
X225633225Y-64858493D01*
X225626539Y-64998600D01*
X225625886Y-65024000D01*
X225628605Y-65242297D01*
X225646800Y-65457080D01*
X225680465Y-65668321D01*
X225729594Y-65875989D01*
X225794181Y-66080055D01*
X225858378Y-66243987D01*
X225886461Y-66309252D01*
X225910523Y-66363410D01*
X225932392Y-66410113D01*
X225953893Y-66453013D01*
X225976854Y-66495763D01*
X226003100Y-66542015D01*
X226032225Y-66591656D01*
X226151444Y-66777927D01*
X226281548Y-66952653D01*
X226422671Y-67115965D01*
X226574945Y-67267996D01*
X226738503Y-67408880D01*
X226913476Y-67538748D01*
X227095844Y-67655275D01*
X227148673Y-67686244D01*
X227194586Y-67712221D01*
X227237235Y-67735031D01*
X227280272Y-67756501D01*
X227327349Y-67778457D01*
X227382119Y-67802725D01*
X227443513Y-67829122D01*
X227539746Y-67868669D01*
X227628464Y-67901708D01*
X227715578Y-67930195D01*
X227807002Y-67956089D01*
X227889594Y-67976822D01*
X228054110Y-68012376D01*
X228211205Y-68038053D01*
X228365433Y-68054393D01*
X228521351Y-68061936D01*
X228611906Y-68062513D01*
X228663125Y-68061998D01*
X228711246Y-68061293D01*
X228753126Y-68060460D01*
X228785622Y-68059563D01*
X228805590Y-68058665D01*
X228806375Y-68058609D01*
X229022549Y-68034657D01*
X229235306Y-67995670D01*
X229443787Y-67941967D01*
X229647132Y-67873863D01*
X229844484Y-67791676D01*
X230034982Y-67695725D01*
X230217768Y-67586326D01*
X230368724Y-67481296D01*
X230541651Y-67342949D01*
X230702335Y-67194588D01*
X230850549Y-67036539D01*
X230986071Y-66869132D01*
X231108676Y-66692694D01*
X231218139Y-66507552D01*
X231314237Y-66314035D01*
X231396744Y-66112471D01*
X231465437Y-65903188D01*
X231477582Y-65860130D01*
X231503948Y-65758335D01*
X231525333Y-65662011D01*
X231542141Y-65567867D01*
X231554775Y-65472617D01*
X231563640Y-65372970D01*
X231569138Y-65265640D01*
X231571674Y-65147336D01*
X231571955Y-65091469D01*
X231571280Y-65036108D01*
X231039206Y-65036108D01*
X231039103Y-65116246D01*
X231037437Y-65195910D01*
X231034241Y-65271037D01*
X231029544Y-65337560D01*
X231025824Y-65373250D01*
X230993950Y-65570548D01*
X230947299Y-65762163D01*
X230886049Y-65947722D01*
X230810381Y-66126849D01*
X230720473Y-66299169D01*
X230616506Y-66464309D01*
X230498659Y-66621893D01*
X230367112Y-66771547D01*
X230344776Y-66794760D01*
X230210542Y-66921834D01*
X230064840Y-67039770D01*
X229910369Y-67146590D01*
X229749831Y-67240316D01*
X229704042Y-67264004D01*
X229629634Y-67300653D01*
X229564393Y-67330872D01*
X229503896Y-67356440D01*
X229443722Y-67379134D01*
X229379449Y-67400733D01*
X229314375Y-67420727D01*
X229125162Y-67470140D01*
X228939411Y-67504591D01*
X228755673Y-67524214D01*
X228572497Y-67529142D01*
X228388436Y-67519511D01*
X228321894Y-67512531D01*
X228134562Y-67483587D01*
X227954981Y-67441778D01*
X227780643Y-67386354D01*
X227609041Y-67316564D01*
X227512084Y-67270366D01*
X227341452Y-67176947D01*
X227182036Y-67073212D01*
X227033078Y-66958474D01*
X226893821Y-66832050D01*
X226763506Y-66693254D01*
X226641376Y-66541403D01*
X226533108Y-66385759D01*
X226507982Y-66344568D01*
X226478659Y-66292440D01*
X226446959Y-66232996D01*
X226414701Y-66169856D01*
X226383707Y-66106640D01*
X226355794Y-66046967D01*
X226332785Y-65994457D01*
X226319347Y-65960625D01*
X226256480Y-65769084D01*
X226209084Y-65576345D01*
X226177200Y-65382950D01*
X226160870Y-65189440D01*
X226160132Y-64996357D01*
X226175028Y-64804242D01*
X226205598Y-64613636D01*
X226215401Y-64567594D01*
X226249050Y-64431301D01*
X226287358Y-64305118D01*
X226332296Y-64183507D01*
X226385837Y-64060932D01*
X226423496Y-63983458D01*
X226517201Y-63814610D01*
X226624026Y-63654173D01*
X226743202Y-63502868D01*
X226873963Y-63361414D01*
X227015540Y-63230531D01*
X227167166Y-63110940D01*
X227328073Y-63003360D01*
X227497493Y-62908511D01*
X227641675Y-62840980D01*
X227813303Y-62774585D01*
X227985857Y-62722587D01*
X228161344Y-62684578D01*
X228341774Y-62660151D01*
X228529155Y-62648897D01*
X228592062Y-62648007D01*
X228790157Y-62654377D01*
X228981785Y-62675022D01*
X229167719Y-62710173D01*
X229348735Y-62760067D01*
X229525606Y-62824935D01*
X229699106Y-62905013D01*
X229870009Y-63000535D01*
X229970706Y-63064744D01*
X230110139Y-63166272D01*
X230244337Y-63280778D01*
X230371659Y-63406339D01*
X230490465Y-63541031D01*
X230599114Y-63682931D01*
X230695965Y-63830115D01*
X230779378Y-63980661D01*
X230814174Y-64053580D01*
X230875577Y-64198439D01*
X230925808Y-64337678D01*
X230966065Y-64475626D01*
X230997544Y-64616614D01*
X231021444Y-64764971D01*
X231029845Y-64833500D01*
X231034608Y-64890670D01*
X231037718Y-64959561D01*
X231039206Y-65036108D01*
X231571280Y-65036108D01*
X231570210Y-64948473D01*
X231564336Y-64817606D01*
X231553762Y-64695525D01*
X231537915Y-64578885D01*
X231516223Y-64464344D01*
X231488113Y-64348559D01*
X231453014Y-64228187D01*
X231410353Y-64099884D01*
X231394659Y-64055625D01*
X231316274Y-63860906D01*
X231223434Y-63672572D01*
X231116328Y-63490885D01*
X230995148Y-63316108D01*
X230860083Y-63148503D01*
X230711326Y-62988333D01*
X230549067Y-62835860D01*
X230442229Y-62745679D01*
X230356400Y-62680186D01*
X230258861Y-62612860D01*
X230153252Y-62545912D01*
X230043214Y-62481555D01*
X229932387Y-62422000D01*
X229824411Y-62369458D01*
X229818406Y-62366715D01*
X229748446Y-62336842D01*
X229667265Y-62305456D01*
X229579233Y-62274036D01*
X229488721Y-62244062D01*
X229400099Y-62217011D01*
X229317736Y-62194364D01*
X229285850Y-62186471D01*
X229192625Y-62165703D01*
X229103651Y-62149043D01*
X229015647Y-62136152D01*
X228925331Y-62126695D01*
X228829422Y-62120332D01*
X228724640Y-62116728D01*
X228607705Y-62115544D01*
X228596031Y-62115545D01*
X228596031Y-62115545D01*
G37*
X228596031Y-62115545D02*
X228471913Y-62116915D01*
X228360201Y-62121072D01*
X228257608Y-62128419D01*
X228160844Y-62139360D01*
X228066622Y-62154298D01*
X227971653Y-62173637D01*
X227872649Y-62197781D01*
X227827370Y-62209918D01*
X227618823Y-62275156D01*
X227416735Y-62354492D01*
X227221872Y-62447528D01*
X227035001Y-62553868D01*
X226856886Y-62673116D01*
X226704740Y-62791117D01*
X226547072Y-62931842D01*
X226399735Y-63083287D01*
X226263414Y-63244385D01*
X226138792Y-63414067D01*
X226026553Y-63591266D01*
X225927380Y-63774916D01*
X225841958Y-63963947D01*
X225770970Y-64157293D01*
X225722216Y-64325303D01*
X225689145Y-64465289D01*
X225663785Y-64597225D01*
X225645393Y-64726497D01*
X225633225Y-64858493D01*
X225626539Y-64998600D01*
X225625886Y-65024000D01*
X225628605Y-65242297D01*
X225646800Y-65457080D01*
X225680465Y-65668321D01*
X225729594Y-65875989D01*
X225794181Y-66080055D01*
X225858378Y-66243987D01*
X225886461Y-66309252D01*
X225910523Y-66363410D01*
X225932392Y-66410113D01*
X225953893Y-66453013D01*
X225976854Y-66495763D01*
X226003100Y-66542015D01*
X226032225Y-66591656D01*
X226151444Y-66777927D01*
X226281548Y-66952653D01*
X226422671Y-67115965D01*
X226574945Y-67267996D01*
X226738503Y-67408880D01*
X226913476Y-67538748D01*
X227095844Y-67655275D01*
X227148673Y-67686244D01*
X227194586Y-67712221D01*
X227237235Y-67735031D01*
X227280272Y-67756501D01*
X227327349Y-67778457D01*
X227382119Y-67802725D01*
X227443513Y-67829122D01*
X227539746Y-67868669D01*
X227628464Y-67901708D01*
X227715578Y-67930195D01*
X227807002Y-67956089D01*
X227889594Y-67976822D01*
X228054110Y-68012376D01*
X228211205Y-68038053D01*
X228365433Y-68054393D01*
X228521351Y-68061936D01*
X228611906Y-68062513D01*
X228663125Y-68061998D01*
X228711246Y-68061293D01*
X228753126Y-68060460D01*
X228785622Y-68059563D01*
X228805590Y-68058665D01*
X228806375Y-68058609D01*
X229022549Y-68034657D01*
X229235306Y-67995670D01*
X229443787Y-67941967D01*
X229647132Y-67873863D01*
X229844484Y-67791676D01*
X230034982Y-67695725D01*
X230217768Y-67586326D01*
X230368724Y-67481296D01*
X230541651Y-67342949D01*
X230702335Y-67194588D01*
X230850549Y-67036539D01*
X230986071Y-66869132D01*
X231108676Y-66692694D01*
X231218139Y-66507552D01*
X231314237Y-66314035D01*
X231396744Y-66112471D01*
X231465437Y-65903188D01*
X231477582Y-65860130D01*
X231503948Y-65758335D01*
X231525333Y-65662011D01*
X231542141Y-65567867D01*
X231554775Y-65472617D01*
X231563640Y-65372970D01*
X231569138Y-65265640D01*
X231571674Y-65147336D01*
X231571955Y-65091469D01*
X231571280Y-65036108D01*
X231039206Y-65036108D01*
X231039103Y-65116246D01*
X231037437Y-65195910D01*
X231034241Y-65271037D01*
X231029544Y-65337560D01*
X231025824Y-65373250D01*
X230993950Y-65570548D01*
X230947299Y-65762163D01*
X230886049Y-65947722D01*
X230810381Y-66126849D01*
X230720473Y-66299169D01*
X230616506Y-66464309D01*
X230498659Y-66621893D01*
X230367112Y-66771547D01*
X230344776Y-66794760D01*
X230210542Y-66921834D01*
X230064840Y-67039770D01*
X229910369Y-67146590D01*
X229749831Y-67240316D01*
X229704042Y-67264004D01*
X229629634Y-67300653D01*
X229564393Y-67330872D01*
X229503896Y-67356440D01*
X229443722Y-67379134D01*
X229379449Y-67400733D01*
X229314375Y-67420727D01*
X229125162Y-67470140D01*
X228939411Y-67504591D01*
X228755673Y-67524214D01*
X228572497Y-67529142D01*
X228388436Y-67519511D01*
X228321894Y-67512531D01*
X228134562Y-67483587D01*
X227954981Y-67441778D01*
X227780643Y-67386354D01*
X227609041Y-67316564D01*
X227512084Y-67270366D01*
X227341452Y-67176947D01*
X227182036Y-67073212D01*
X227033078Y-66958474D01*
X226893821Y-66832050D01*
X226763506Y-66693254D01*
X226641376Y-66541403D01*
X226533108Y-66385759D01*
X226507982Y-66344568D01*
X226478659Y-66292440D01*
X226446959Y-66232996D01*
X226414701Y-66169856D01*
X226383707Y-66106640D01*
X226355794Y-66046967D01*
X226332785Y-65994457D01*
X226319347Y-65960625D01*
X226256480Y-65769084D01*
X226209084Y-65576345D01*
X226177200Y-65382950D01*
X226160870Y-65189440D01*
X226160132Y-64996357D01*
X226175028Y-64804242D01*
X226205598Y-64613636D01*
X226215401Y-64567594D01*
X226249050Y-64431301D01*
X226287358Y-64305118D01*
X226332296Y-64183507D01*
X226385837Y-64060932D01*
X226423496Y-63983458D01*
X226517201Y-63814610D01*
X226624026Y-63654173D01*
X226743202Y-63502868D01*
X226873963Y-63361414D01*
X227015540Y-63230531D01*
X227167166Y-63110940D01*
X227328073Y-63003360D01*
X227497493Y-62908511D01*
X227641675Y-62840980D01*
X227813303Y-62774585D01*
X227985857Y-62722587D01*
X228161344Y-62684578D01*
X228341774Y-62660151D01*
X228529155Y-62648897D01*
X228592062Y-62648007D01*
X228790157Y-62654377D01*
X228981785Y-62675022D01*
X229167719Y-62710173D01*
X229348735Y-62760067D01*
X229525606Y-62824935D01*
X229699106Y-62905013D01*
X229870009Y-63000535D01*
X229970706Y-63064744D01*
X230110139Y-63166272D01*
X230244337Y-63280778D01*
X230371659Y-63406339D01*
X230490465Y-63541031D01*
X230599114Y-63682931D01*
X230695965Y-63830115D01*
X230779378Y-63980661D01*
X230814174Y-64053580D01*
X230875577Y-64198439D01*
X230925808Y-64337678D01*
X230966065Y-64475626D01*
X230997544Y-64616614D01*
X231021444Y-64764971D01*
X231029845Y-64833500D01*
X231034608Y-64890670D01*
X231037718Y-64959561D01*
X231039206Y-65036108D01*
X231571280Y-65036108D01*
X231570210Y-64948473D01*
X231564336Y-64817606D01*
X231553762Y-64695525D01*
X231537915Y-64578885D01*
X231516223Y-64464344D01*
X231488113Y-64348559D01*
X231453014Y-64228187D01*
X231410353Y-64099884D01*
X231394659Y-64055625D01*
X231316274Y-63860906D01*
X231223434Y-63672572D01*
X231116328Y-63490885D01*
X230995148Y-63316108D01*
X230860083Y-63148503D01*
X230711326Y-62988333D01*
X230549067Y-62835860D01*
X230442229Y-62745679D01*
X230356400Y-62680186D01*
X230258861Y-62612860D01*
X230153252Y-62545912D01*
X230043214Y-62481555D01*
X229932387Y-62422000D01*
X229824411Y-62369458D01*
X229818406Y-62366715D01*
X229748446Y-62336842D01*
X229667265Y-62305456D01*
X229579233Y-62274036D01*
X229488721Y-62244062D01*
X229400099Y-62217011D01*
X229317736Y-62194364D01*
X229285850Y-62186471D01*
X229192625Y-62165703D01*
X229103651Y-62149043D01*
X229015647Y-62136152D01*
X228925331Y-62126695D01*
X228829422Y-62120332D01*
X228724640Y-62116728D01*
X228607705Y-62115544D01*
X228596031Y-62115545D01*
G04 #@! TD*
D12*
G04 #@! TO.P,MX11,1*
G04 #@! TO.N,COL10*
X226100000Y-34100000D03*
X225445001Y-34830000D03*
D13*
G04 #@! TD*
G04 #@! TO.N,COL10*
G04 #@! TO.C,MX11*
X224790000Y-35560000D02*
X226100002Y-34100000D01*
D12*
G04 #@! TO.P,MX11,2*
G04 #@! TO.N,Net-(D11-Pad2)*
X231140000Y-33020000D03*
X231120000Y-33310000D03*
D13*
G04 #@! TD*
G04 #@! TO.N,Net-(D11-Pad2)*
G04 #@! TO.C,MX11*
X231100000Y-33600000D02*
X231140000Y-33020000D01*
D14*
G04 #@! TO.P,U1,13*
G04 #@! TO.N,ROW3*
X68580000Y-60483750D03*
G04 #@! TO.P,U1,14*
G04 #@! TO.N,ROW2*
X68580000Y-57943750D03*
G04 #@! TO.P,U1,15*
G04 #@! TO.N,ROW1*
X68580000Y-55403750D03*
G04 #@! TO.P,U1,16*
G04 #@! TO.N,PIN15*
X68580000Y-52863750D03*
G04 #@! TO.P,U1,17*
G04 #@! TO.N,PIN18*
X68580000Y-50323750D03*
G04 #@! TO.P,U1,18*
G04 #@! TO.N,ROW0*
X68580000Y-47783750D03*
G04 #@! TO.P,U1,19*
G04 #@! TO.N,COL1*
X68580000Y-45243750D03*
G04 #@! TO.P,U1,20*
G04 #@! TO.N,COL0*
X68580000Y-42703750D03*
G04 #@! TO.P,U1,21*
G04 #@! TO.N,+5V*
X68580000Y-40163750D03*
G04 #@! TO.P,U1,22*
G04 #@! TO.N,Net-(SW1-Pad1)*
X68580000Y-37623750D03*
G04 #@! TO.P,U1,23*
G04 #@! TO.N,GND*
X68580000Y-35083750D03*
G04 #@! TO.P,U1,24*
G04 #@! TO.N,Net-(U1-Pad24)*
X68580000Y-32543750D03*
G04 #@! TO.P,U1,12*
G04 #@! TO.N,COL2*
X83820000Y-60483750D03*
G04 #@! TO.P,U1,11*
G04 #@! TO.N,COL3*
X83820000Y-57943750D03*
G04 #@! TO.P,U1,10*
G04 #@! TO.N,COL4*
X83820000Y-55403750D03*
G04 #@! TO.P,U1,9*
G04 #@! TO.N,COL5*
X83820000Y-52863750D03*
G04 #@! TO.P,U1,8*
G04 #@! TO.N,COL6*
X83820000Y-50323750D03*
G04 #@! TO.P,U1,7*
G04 #@! TO.N,COL7*
X83820000Y-47783750D03*
G04 #@! TO.P,U1,6*
G04 #@! TO.N,COL8*
X83820000Y-45243750D03*
G04 #@! TO.P,U1,5*
G04 #@! TO.N,COL9*
X83820000Y-42703750D03*
G04 #@! TO.P,U1,4*
G04 #@! TO.N,GND*
X83820000Y-40163750D03*
G04 #@! TO.P,U1,3*
X83820000Y-37623750D03*
G04 #@! TO.P,U1,2*
G04 #@! TO.N,COL10*
X83820000Y-35083750D03*
G04 #@! TO.P,U1,1*
G04 #@! TO.N,COL11*
X83820000Y-32543750D03*
G04 #@! TD*
D12*
G04 #@! TO.P,MX49,1*
G04 #@! TO.N,COL5*
X140375000Y-91250000D03*
X139720001Y-91980000D03*
D13*
G04 #@! TD*
G04 #@! TO.N,COL5*
G04 #@! TO.C,MX49*
X139065000Y-92710000D02*
X140375002Y-91250000D01*
D12*
G04 #@! TO.P,MX49,2*
G04 #@! TO.N,Net-(D42-Pad2)*
X145415000Y-90170000D03*
X145395000Y-90460000D03*
D13*
G04 #@! TD*
G04 #@! TO.N,Net-(D42-Pad2)*
G04 #@! TO.C,MX49*
X145375000Y-90750000D02*
X145415000Y-90170000D01*
D12*
G04 #@! TO.P,MX48,1*
G04 #@! TO.N,COL11*
X245150000Y-91250000D03*
X244495001Y-91980000D03*
D13*
G04 #@! TD*
G04 #@! TO.N,COL11*
G04 #@! TO.C,MX48*
X243840000Y-92710000D02*
X245150002Y-91250000D01*
D12*
G04 #@! TO.P,MX48,2*
G04 #@! TO.N,Net-(D48-Pad2)*
X250190000Y-90170000D03*
X250170000Y-90460000D03*
D13*
G04 #@! TD*
G04 #@! TO.N,Net-(D48-Pad2)*
G04 #@! TO.C,MX48*
X250150000Y-90750000D02*
X250190000Y-90170000D01*
D12*
G04 #@! TO.P,MX47,1*
G04 #@! TO.N,COL10*
X226100000Y-91250000D03*
X225445001Y-91980000D03*
D13*
G04 #@! TD*
G04 #@! TO.N,COL10*
G04 #@! TO.C,MX47*
X224790000Y-92710000D02*
X226100002Y-91250000D01*
D12*
G04 #@! TO.P,MX47,2*
G04 #@! TO.N,Net-(D47-Pad2)*
X231140000Y-90170000D03*
X231120000Y-90460000D03*
D13*
G04 #@! TD*
G04 #@! TO.N,Net-(D47-Pad2)*
G04 #@! TO.C,MX47*
X231100000Y-90750000D02*
X231140000Y-90170000D01*
D12*
G04 #@! TO.P,MX46,1*
G04 #@! TO.N,COL9*
X207050000Y-91250000D03*
X206395001Y-91980000D03*
D13*
G04 #@! TD*
G04 #@! TO.N,COL9*
G04 #@! TO.C,MX46*
X205740000Y-92710000D02*
X207050002Y-91250000D01*
D12*
G04 #@! TO.P,MX46,2*
G04 #@! TO.N,Net-(D46-Pad2)*
X212090000Y-90170000D03*
X212070000Y-90460000D03*
D13*
G04 #@! TD*
G04 #@! TO.N,Net-(D46-Pad2)*
G04 #@! TO.C,MX46*
X212050000Y-90750000D02*
X212090000Y-90170000D01*
D12*
G04 #@! TO.P,MX45,1*
G04 #@! TO.N,COL8*
X188000000Y-91250000D03*
X187345001Y-91980000D03*
D13*
G04 #@! TD*
G04 #@! TO.N,COL8*
G04 #@! TO.C,MX45*
X186690000Y-92710000D02*
X188000002Y-91250000D01*
D12*
G04 #@! TO.P,MX45,2*
G04 #@! TO.N,Net-(D45-Pad2)*
X193040000Y-90170000D03*
X193020000Y-90460000D03*
D13*
G04 #@! TD*
G04 #@! TO.N,Net-(D45-Pad2)*
G04 #@! TO.C,MX45*
X193000000Y-90750000D02*
X193040000Y-90170000D01*
D12*
G04 #@! TO.P,MX44,1*
G04 #@! TO.N,COL7*
X168950000Y-91250000D03*
X168295001Y-91980000D03*
D13*
G04 #@! TD*
G04 #@! TO.N,COL7*
G04 #@! TO.C,MX44*
X167640000Y-92710000D02*
X168950002Y-91250000D01*
D12*
G04 #@! TO.P,MX44,2*
G04 #@! TO.N,Net-(D44-Pad2)*
X173990000Y-90170000D03*
X173970000Y-90460000D03*
D13*
G04 #@! TD*
G04 #@! TO.N,Net-(D44-Pad2)*
G04 #@! TO.C,MX44*
X173950000Y-90750000D02*
X173990000Y-90170000D01*
D12*
G04 #@! TO.P,MX43,1*
G04 #@! TO.N,COL6*
X149900000Y-91250000D03*
X149245001Y-91980000D03*
D13*
G04 #@! TD*
G04 #@! TO.N,COL6*
G04 #@! TO.C,MX43*
X148590000Y-92710000D02*
X149900002Y-91250000D01*
D12*
G04 #@! TO.P,MX43,2*
G04 #@! TO.N,Net-(D43-Pad2)*
X154940000Y-90170000D03*
X154920000Y-90460000D03*
D13*
G04 #@! TD*
G04 #@! TO.N,Net-(D43-Pad2)*
G04 #@! TO.C,MX43*
X154900000Y-90750000D02*
X154940000Y-90170000D01*
D12*
G04 #@! TO.P,MX42,1*
G04 #@! TO.N,COL5*
X130850000Y-91250000D03*
X130195001Y-91980000D03*
D13*
G04 #@! TD*
G04 #@! TO.N,COL5*
G04 #@! TO.C,MX42*
X129540000Y-92710000D02*
X130850002Y-91250000D01*
D12*
G04 #@! TO.P,MX42,2*
G04 #@! TO.N,Net-(D42-Pad2)*
X135890000Y-90170000D03*
X135870000Y-90460000D03*
D13*
G04 #@! TD*
G04 #@! TO.N,Net-(D42-Pad2)*
G04 #@! TO.C,MX42*
X135850000Y-90750000D02*
X135890000Y-90170000D01*
D12*
G04 #@! TO.P,MX41,1*
G04 #@! TO.N,COL4*
X111800000Y-91250000D03*
X111145001Y-91980000D03*
D13*
G04 #@! TD*
G04 #@! TO.N,COL4*
G04 #@! TO.C,MX41*
X110490000Y-92710000D02*
X111800002Y-91250000D01*
D12*
G04 #@! TO.P,MX41,2*
G04 #@! TO.N,Net-(D41-Pad2)*
X116840000Y-90170000D03*
X116820000Y-90460000D03*
D13*
G04 #@! TD*
G04 #@! TO.N,Net-(D41-Pad2)*
G04 #@! TO.C,MX41*
X116800000Y-90750000D02*
X116840000Y-90170000D01*
D12*
G04 #@! TO.P,MX40,1*
G04 #@! TO.N,COL3*
X92750000Y-91250000D03*
X92095001Y-91980000D03*
D13*
G04 #@! TD*
G04 #@! TO.N,COL3*
G04 #@! TO.C,MX40*
X91440000Y-92710000D02*
X92750002Y-91250000D01*
D12*
G04 #@! TO.P,MX40,2*
G04 #@! TO.N,Net-(D40-Pad2)*
X97790000Y-90170000D03*
X97770000Y-90460000D03*
D13*
G04 #@! TD*
G04 #@! TO.N,Net-(D40-Pad2)*
G04 #@! TO.C,MX40*
X97750000Y-90750000D02*
X97790000Y-90170000D01*
D12*
G04 #@! TO.P,MX39,1*
G04 #@! TO.N,COL2*
X73700000Y-91250000D03*
X73045001Y-91980000D03*
D13*
G04 #@! TD*
G04 #@! TO.N,COL2*
G04 #@! TO.C,MX39*
X72390000Y-92710000D02*
X73700002Y-91250000D01*
D12*
G04 #@! TO.P,MX39,2*
G04 #@! TO.N,Net-(D39-Pad2)*
X78740000Y-90170000D03*
X78720000Y-90460000D03*
D13*
G04 #@! TD*
G04 #@! TO.N,Net-(D39-Pad2)*
G04 #@! TO.C,MX39*
X78700000Y-90750000D02*
X78740000Y-90170000D01*
D12*
G04 #@! TO.P,MX38,1*
G04 #@! TO.N,COL1*
X54650000Y-91250000D03*
X53995001Y-91980000D03*
D13*
G04 #@! TD*
G04 #@! TO.N,COL1*
G04 #@! TO.C,MX38*
X53340000Y-92710000D02*
X54650002Y-91250000D01*
D12*
G04 #@! TO.P,MX38,2*
G04 #@! TO.N,Net-(D38-Pad2)*
X59690000Y-90170000D03*
X59670000Y-90460000D03*
D13*
G04 #@! TD*
G04 #@! TO.N,Net-(D38-Pad2)*
G04 #@! TO.C,MX38*
X59650000Y-90750000D02*
X59690000Y-90170000D01*
D12*
G04 #@! TO.P,MX37,1*
G04 #@! TO.N,COL0*
X35600000Y-91250000D03*
X34945001Y-91980000D03*
D13*
G04 #@! TD*
G04 #@! TO.N,COL0*
G04 #@! TO.C,MX37*
X34290000Y-92710000D02*
X35600002Y-91250000D01*
D12*
G04 #@! TO.P,MX37,2*
G04 #@! TO.N,Net-(D37-Pad2)*
X40640000Y-90170000D03*
X40620000Y-90460000D03*
D13*
G04 #@! TD*
G04 #@! TO.N,Net-(D37-Pad2)*
G04 #@! TO.C,MX37*
X40600000Y-90750000D02*
X40640000Y-90170000D01*
D12*
G04 #@! TO.P,MX36,1*
G04 #@! TO.N,COL11*
X245150000Y-72200000D03*
X244495001Y-72930000D03*
D13*
G04 #@! TD*
G04 #@! TO.N,COL11*
G04 #@! TO.C,MX36*
X243840000Y-73660000D02*
X245150002Y-72200000D01*
D12*
G04 #@! TO.P,MX36,2*
G04 #@! TO.N,Net-(D36-Pad2)*
X250190000Y-71120000D03*
X250170000Y-71410000D03*
D13*
G04 #@! TD*
G04 #@! TO.N,Net-(D36-Pad2)*
G04 #@! TO.C,MX36*
X250150000Y-71700000D02*
X250190000Y-71120000D01*
D12*
G04 #@! TO.P,MX35,1*
G04 #@! TO.N,COL10*
X226100000Y-72200000D03*
X225445001Y-72930000D03*
D13*
G04 #@! TD*
G04 #@! TO.N,COL10*
G04 #@! TO.C,MX35*
X224790000Y-73660000D02*
X226100002Y-72200000D01*
D12*
G04 #@! TO.P,MX35,2*
G04 #@! TO.N,Net-(D35-Pad2)*
X231140000Y-71120000D03*
X231120000Y-71410000D03*
D13*
G04 #@! TD*
G04 #@! TO.N,Net-(D35-Pad2)*
G04 #@! TO.C,MX35*
X231100000Y-71700000D02*
X231140000Y-71120000D01*
D12*
G04 #@! TO.P,MX34,1*
G04 #@! TO.N,COL9*
X207050000Y-72200000D03*
X206395001Y-72930000D03*
D13*
G04 #@! TD*
G04 #@! TO.N,COL9*
G04 #@! TO.C,MX34*
X205740000Y-73660000D02*
X207050002Y-72200000D01*
D12*
G04 #@! TO.P,MX34,2*
G04 #@! TO.N,Net-(D34-Pad2)*
X212090000Y-71120000D03*
X212070000Y-71410000D03*
D13*
G04 #@! TD*
G04 #@! TO.N,Net-(D34-Pad2)*
G04 #@! TO.C,MX34*
X212050000Y-71700000D02*
X212090000Y-71120000D01*
D12*
G04 #@! TO.P,MX33,1*
G04 #@! TO.N,COL8*
X188000000Y-72200000D03*
X187345001Y-72930000D03*
D13*
G04 #@! TD*
G04 #@! TO.N,COL8*
G04 #@! TO.C,MX33*
X186690000Y-73660000D02*
X188000002Y-72200000D01*
D12*
G04 #@! TO.P,MX33,2*
G04 #@! TO.N,Net-(D33-Pad2)*
X193040000Y-71120000D03*
X193020000Y-71410000D03*
D13*
G04 #@! TD*
G04 #@! TO.N,Net-(D33-Pad2)*
G04 #@! TO.C,MX33*
X193000000Y-71700000D02*
X193040000Y-71120000D01*
D12*
G04 #@! TO.P,MX32,1*
G04 #@! TO.N,COL7*
X168950000Y-72200000D03*
X168295001Y-72930000D03*
D13*
G04 #@! TD*
G04 #@! TO.N,COL7*
G04 #@! TO.C,MX32*
X167640000Y-73660000D02*
X168950002Y-72200000D01*
D12*
G04 #@! TO.P,MX32,2*
G04 #@! TO.N,Net-(D32-Pad2)*
X173990000Y-71120000D03*
X173970000Y-71410000D03*
D13*
G04 #@! TD*
G04 #@! TO.N,Net-(D32-Pad2)*
G04 #@! TO.C,MX32*
X173950000Y-71700000D02*
X173990000Y-71120000D01*
D12*
G04 #@! TO.P,MX31,1*
G04 #@! TO.N,COL6*
X149900000Y-72200000D03*
X149245001Y-72930000D03*
D13*
G04 #@! TD*
G04 #@! TO.N,COL6*
G04 #@! TO.C,MX31*
X148590000Y-73660000D02*
X149900002Y-72200000D01*
D12*
G04 #@! TO.P,MX31,2*
G04 #@! TO.N,Net-(D31-Pad2)*
X154940000Y-71120000D03*
X154920000Y-71410000D03*
D13*
G04 #@! TD*
G04 #@! TO.N,Net-(D31-Pad2)*
G04 #@! TO.C,MX31*
X154900000Y-71700000D02*
X154940000Y-71120000D01*
D12*
G04 #@! TO.P,MX30,1*
G04 #@! TO.N,COL5*
X130850000Y-72200000D03*
X130195001Y-72930000D03*
D13*
G04 #@! TD*
G04 #@! TO.N,COL5*
G04 #@! TO.C,MX30*
X129540000Y-73660000D02*
X130850002Y-72200000D01*
D12*
G04 #@! TO.P,MX30,2*
G04 #@! TO.N,Net-(D30-Pad2)*
X135890000Y-71120000D03*
X135870000Y-71410000D03*
D13*
G04 #@! TD*
G04 #@! TO.N,Net-(D30-Pad2)*
G04 #@! TO.C,MX30*
X135850000Y-71700000D02*
X135890000Y-71120000D01*
D12*
G04 #@! TO.P,MX29,1*
G04 #@! TO.N,COL4*
X111800000Y-72200000D03*
X111145001Y-72930000D03*
D13*
G04 #@! TD*
G04 #@! TO.N,COL4*
G04 #@! TO.C,MX29*
X110490000Y-73660000D02*
X111800002Y-72200000D01*
D12*
G04 #@! TO.P,MX29,2*
G04 #@! TO.N,Net-(D29-Pad2)*
X116840000Y-71120000D03*
X116820000Y-71410000D03*
D13*
G04 #@! TD*
G04 #@! TO.N,Net-(D29-Pad2)*
G04 #@! TO.C,MX29*
X116800000Y-71700000D02*
X116840000Y-71120000D01*
D12*
G04 #@! TO.P,MX28,1*
G04 #@! TO.N,COL3*
X92750000Y-72200000D03*
X92095001Y-72930000D03*
D13*
G04 #@! TD*
G04 #@! TO.N,COL3*
G04 #@! TO.C,MX28*
X91440000Y-73660000D02*
X92750002Y-72200000D01*
D12*
G04 #@! TO.P,MX28,2*
G04 #@! TO.N,Net-(D28-Pad2)*
X97790000Y-71120000D03*
X97770000Y-71410000D03*
D13*
G04 #@! TD*
G04 #@! TO.N,Net-(D28-Pad2)*
G04 #@! TO.C,MX28*
X97750000Y-71700000D02*
X97790000Y-71120000D01*
D12*
G04 #@! TO.P,MX27,1*
G04 #@! TO.N,COL2*
X73700000Y-72200000D03*
X73045001Y-72930000D03*
D13*
G04 #@! TD*
G04 #@! TO.N,COL2*
G04 #@! TO.C,MX27*
X72390000Y-73660000D02*
X73700002Y-72200000D01*
D12*
G04 #@! TO.P,MX27,2*
G04 #@! TO.N,Net-(D27-Pad2)*
X78740000Y-71120000D03*
X78720000Y-71410000D03*
D13*
G04 #@! TD*
G04 #@! TO.N,Net-(D27-Pad2)*
G04 #@! TO.C,MX27*
X78700000Y-71700000D02*
X78740000Y-71120000D01*
D12*
G04 #@! TO.P,MX26,1*
G04 #@! TO.N,COL1*
X54650000Y-72200000D03*
X53995001Y-72930000D03*
D13*
G04 #@! TD*
G04 #@! TO.N,COL1*
G04 #@! TO.C,MX26*
X53340000Y-73660000D02*
X54650002Y-72200000D01*
D12*
G04 #@! TO.P,MX26,2*
G04 #@! TO.N,Net-(D26-Pad2)*
X59690000Y-71120000D03*
X59670000Y-71410000D03*
D13*
G04 #@! TD*
G04 #@! TO.N,Net-(D26-Pad2)*
G04 #@! TO.C,MX26*
X59650000Y-71700000D02*
X59690000Y-71120000D01*
D12*
G04 #@! TO.P,MX25,1*
G04 #@! TO.N,COL0*
X35600000Y-72200000D03*
X34945001Y-72930000D03*
D13*
G04 #@! TD*
G04 #@! TO.N,COL0*
G04 #@! TO.C,MX25*
X34290000Y-73660000D02*
X35600002Y-72200000D01*
D12*
G04 #@! TO.P,MX25,2*
G04 #@! TO.N,Net-(D25-Pad2)*
X40640000Y-71120000D03*
X40620000Y-71410000D03*
D13*
G04 #@! TD*
G04 #@! TO.N,Net-(D25-Pad2)*
G04 #@! TO.C,MX25*
X40600000Y-71700000D02*
X40640000Y-71120000D01*
D12*
G04 #@! TO.P,MX24,1*
G04 #@! TO.N,COL11*
X245150000Y-53150000D03*
X244495001Y-53880000D03*
D13*
G04 #@! TD*
G04 #@! TO.N,COL11*
G04 #@! TO.C,MX24*
X243840000Y-54610000D02*
X245150002Y-53150000D01*
D12*
G04 #@! TO.P,MX24,2*
G04 #@! TO.N,Net-(D24-Pad2)*
X250190000Y-52070000D03*
X250170000Y-52360000D03*
D13*
G04 #@! TD*
G04 #@! TO.N,Net-(D24-Pad2)*
G04 #@! TO.C,MX24*
X250150000Y-52650000D02*
X250190000Y-52070000D01*
D12*
G04 #@! TO.P,MX23,1*
G04 #@! TO.N,COL10*
X226100000Y-53150000D03*
X225445001Y-53880000D03*
D13*
G04 #@! TD*
G04 #@! TO.N,COL10*
G04 #@! TO.C,MX23*
X224790000Y-54610000D02*
X226100002Y-53150000D01*
D12*
G04 #@! TO.P,MX23,2*
G04 #@! TO.N,Net-(D23-Pad2)*
X231140000Y-52070000D03*
X231120000Y-52360000D03*
D13*
G04 #@! TD*
G04 #@! TO.N,Net-(D23-Pad2)*
G04 #@! TO.C,MX23*
X231100000Y-52650000D02*
X231140000Y-52070000D01*
D12*
G04 #@! TO.P,MX22,1*
G04 #@! TO.N,COL9*
X207050000Y-53150000D03*
X206395001Y-53880000D03*
D13*
G04 #@! TD*
G04 #@! TO.N,COL9*
G04 #@! TO.C,MX22*
X205740000Y-54610000D02*
X207050002Y-53150000D01*
D12*
G04 #@! TO.P,MX22,2*
G04 #@! TO.N,Net-(D22-Pad2)*
X212090000Y-52070000D03*
X212070000Y-52360000D03*
D13*
G04 #@! TD*
G04 #@! TO.N,Net-(D22-Pad2)*
G04 #@! TO.C,MX22*
X212050000Y-52650000D02*
X212090000Y-52070000D01*
D12*
G04 #@! TO.P,MX21,1*
G04 #@! TO.N,COL8*
X188000000Y-53150000D03*
X187345001Y-53880000D03*
D13*
G04 #@! TD*
G04 #@! TO.N,COL8*
G04 #@! TO.C,MX21*
X186690000Y-54610000D02*
X188000002Y-53150000D01*
D12*
G04 #@! TO.P,MX21,2*
G04 #@! TO.N,Net-(D21-Pad2)*
X193040000Y-52070000D03*
X193020000Y-52360000D03*
D13*
G04 #@! TD*
G04 #@! TO.N,Net-(D21-Pad2)*
G04 #@! TO.C,MX21*
X193000000Y-52650000D02*
X193040000Y-52070000D01*
D12*
G04 #@! TO.P,MX20,1*
G04 #@! TO.N,COL7*
X168950000Y-53150000D03*
X168295001Y-53880000D03*
D13*
G04 #@! TD*
G04 #@! TO.N,COL7*
G04 #@! TO.C,MX20*
X167640000Y-54610000D02*
X168950002Y-53150000D01*
D12*
G04 #@! TO.P,MX20,2*
G04 #@! TO.N,Net-(D20-Pad2)*
X173990000Y-52070000D03*
X173970000Y-52360000D03*
D13*
G04 #@! TD*
G04 #@! TO.N,Net-(D20-Pad2)*
G04 #@! TO.C,MX20*
X173950000Y-52650000D02*
X173990000Y-52070000D01*
D12*
G04 #@! TO.P,MX19,1*
G04 #@! TO.N,COL6*
X149900000Y-53150000D03*
X149245001Y-53880000D03*
D13*
G04 #@! TD*
G04 #@! TO.N,COL6*
G04 #@! TO.C,MX19*
X148590000Y-54610000D02*
X149900002Y-53150000D01*
D12*
G04 #@! TO.P,MX19,2*
G04 #@! TO.N,Net-(D19-Pad2)*
X154940000Y-52070000D03*
X154920000Y-52360000D03*
D13*
G04 #@! TD*
G04 #@! TO.N,Net-(D19-Pad2)*
G04 #@! TO.C,MX19*
X154900000Y-52650000D02*
X154940000Y-52070000D01*
D12*
G04 #@! TO.P,MX18,1*
G04 #@! TO.N,COL5*
X130850000Y-53150000D03*
X130195001Y-53880000D03*
D13*
G04 #@! TD*
G04 #@! TO.N,COL5*
G04 #@! TO.C,MX18*
X129540000Y-54610000D02*
X130850002Y-53150000D01*
D12*
G04 #@! TO.P,MX18,2*
G04 #@! TO.N,Net-(D18-Pad2)*
X135890000Y-52070000D03*
X135870000Y-52360000D03*
D13*
G04 #@! TD*
G04 #@! TO.N,Net-(D18-Pad2)*
G04 #@! TO.C,MX18*
X135850000Y-52650000D02*
X135890000Y-52070000D01*
D12*
G04 #@! TO.P,MX17,1*
G04 #@! TO.N,COL4*
X111800000Y-53150000D03*
X111145001Y-53880000D03*
D13*
G04 #@! TD*
G04 #@! TO.N,COL4*
G04 #@! TO.C,MX17*
X110490000Y-54610000D02*
X111800002Y-53150000D01*
D12*
G04 #@! TO.P,MX17,2*
G04 #@! TO.N,Net-(D17-Pad2)*
X116840000Y-52070000D03*
X116820000Y-52360000D03*
D13*
G04 #@! TD*
G04 #@! TO.N,Net-(D17-Pad2)*
G04 #@! TO.C,MX17*
X116800000Y-52650000D02*
X116840000Y-52070000D01*
D12*
G04 #@! TO.P,MX16,1*
G04 #@! TO.N,COL3*
X92750000Y-53150000D03*
X92095001Y-53880000D03*
D13*
G04 #@! TD*
G04 #@! TO.N,COL3*
G04 #@! TO.C,MX16*
X91440000Y-54610000D02*
X92750002Y-53150000D01*
D12*
G04 #@! TO.P,MX16,2*
G04 #@! TO.N,Net-(D16-Pad2)*
X97790000Y-52070000D03*
X97770000Y-52360000D03*
D13*
G04 #@! TD*
G04 #@! TO.N,Net-(D16-Pad2)*
G04 #@! TO.C,MX16*
X97750000Y-52650000D02*
X97790000Y-52070000D01*
D12*
G04 #@! TO.P,MX15,1*
G04 #@! TO.N,COL2*
X73700000Y-53150000D03*
X73045001Y-53880000D03*
D13*
G04 #@! TD*
G04 #@! TO.N,COL2*
G04 #@! TO.C,MX15*
X72390000Y-54610000D02*
X73700002Y-53150000D01*
D12*
G04 #@! TO.P,MX15,2*
G04 #@! TO.N,Net-(D15-Pad2)*
X78740000Y-52070000D03*
X78720000Y-52360000D03*
D13*
G04 #@! TD*
G04 #@! TO.N,Net-(D15-Pad2)*
G04 #@! TO.C,MX15*
X78700000Y-52650000D02*
X78740000Y-52070000D01*
D12*
G04 #@! TO.P,MX14,1*
G04 #@! TO.N,COL1*
X54650000Y-53150000D03*
X53995001Y-53880000D03*
D13*
G04 #@! TD*
G04 #@! TO.N,COL1*
G04 #@! TO.C,MX14*
X53340000Y-54610000D02*
X54650002Y-53150000D01*
D12*
G04 #@! TO.P,MX14,2*
G04 #@! TO.N,Net-(D14-Pad2)*
X59690000Y-52070000D03*
X59670000Y-52360000D03*
D13*
G04 #@! TD*
G04 #@! TO.N,Net-(D14-Pad2)*
G04 #@! TO.C,MX14*
X59650000Y-52650000D02*
X59690000Y-52070000D01*
D12*
G04 #@! TO.P,MX13,1*
G04 #@! TO.N,COL0*
X35600000Y-53150000D03*
X34945001Y-53880000D03*
D13*
G04 #@! TD*
G04 #@! TO.N,COL0*
G04 #@! TO.C,MX13*
X34290000Y-54610000D02*
X35600002Y-53150000D01*
D12*
G04 #@! TO.P,MX13,2*
G04 #@! TO.N,Net-(D13-Pad2)*
X40640000Y-52070000D03*
X40620000Y-52360000D03*
D13*
G04 #@! TD*
G04 #@! TO.N,Net-(D13-Pad2)*
G04 #@! TO.C,MX13*
X40600000Y-52650000D02*
X40640000Y-52070000D01*
D12*
G04 #@! TO.P,MX12,1*
G04 #@! TO.N,COL11*
X245150000Y-34100000D03*
X244495001Y-34830000D03*
D13*
G04 #@! TD*
G04 #@! TO.N,COL11*
G04 #@! TO.C,MX12*
X243840000Y-35560000D02*
X245150002Y-34100000D01*
D12*
G04 #@! TO.P,MX12,2*
G04 #@! TO.N,Net-(D12-Pad2)*
X250190000Y-33020000D03*
X250170000Y-33310000D03*
D13*
G04 #@! TD*
G04 #@! TO.N,Net-(D12-Pad2)*
G04 #@! TO.C,MX12*
X250150000Y-33600000D02*
X250190000Y-33020000D01*
D12*
G04 #@! TO.P,MX10,1*
G04 #@! TO.N,COL9*
X207050000Y-34100000D03*
X206395001Y-34830000D03*
D13*
G04 #@! TD*
G04 #@! TO.N,COL9*
G04 #@! TO.C,MX10*
X205740000Y-35560000D02*
X207050002Y-34100000D01*
D12*
G04 #@! TO.P,MX10,2*
G04 #@! TO.N,Net-(D10-Pad2)*
X212090000Y-33020000D03*
X212070000Y-33310000D03*
D13*
G04 #@! TD*
G04 #@! TO.N,Net-(D10-Pad2)*
G04 #@! TO.C,MX10*
X212050000Y-33600000D02*
X212090000Y-33020000D01*
D12*
G04 #@! TO.P,MX9,1*
G04 #@! TO.N,COL8*
X188000000Y-34100000D03*
X187345001Y-34830000D03*
D13*
G04 #@! TD*
G04 #@! TO.N,COL8*
G04 #@! TO.C,MX9*
X186690000Y-35560000D02*
X188000002Y-34100000D01*
D12*
G04 #@! TO.P,MX9,2*
G04 #@! TO.N,Net-(D9-Pad2)*
X193040000Y-33020000D03*
X193020000Y-33310000D03*
D13*
G04 #@! TD*
G04 #@! TO.N,Net-(D9-Pad2)*
G04 #@! TO.C,MX9*
X193000000Y-33600000D02*
X193040000Y-33020000D01*
D12*
G04 #@! TO.P,MX8,1*
G04 #@! TO.N,COL7*
X168950000Y-34100000D03*
X168295001Y-34830000D03*
D13*
G04 #@! TD*
G04 #@! TO.N,COL7*
G04 #@! TO.C,MX8*
X167640000Y-35560000D02*
X168950002Y-34100000D01*
D12*
G04 #@! TO.P,MX8,2*
G04 #@! TO.N,Net-(D8-Pad2)*
X173990000Y-33020000D03*
X173970000Y-33310000D03*
D13*
G04 #@! TD*
G04 #@! TO.N,Net-(D8-Pad2)*
G04 #@! TO.C,MX8*
X173950000Y-33600000D02*
X173990000Y-33020000D01*
D12*
G04 #@! TO.P,MX7,1*
G04 #@! TO.N,COL6*
X149900000Y-34100000D03*
X149245001Y-34830000D03*
D13*
G04 #@! TD*
G04 #@! TO.N,COL6*
G04 #@! TO.C,MX7*
X148590000Y-35560000D02*
X149900002Y-34100000D01*
D12*
G04 #@! TO.P,MX7,2*
G04 #@! TO.N,Net-(D7-Pad2)*
X154940000Y-33020000D03*
X154920000Y-33310000D03*
D13*
G04 #@! TD*
G04 #@! TO.N,Net-(D7-Pad2)*
G04 #@! TO.C,MX7*
X154900000Y-33600000D02*
X154940000Y-33020000D01*
D12*
G04 #@! TO.P,MX6,1*
G04 #@! TO.N,COL5*
X130850000Y-34100000D03*
X130195001Y-34830000D03*
D13*
G04 #@! TD*
G04 #@! TO.N,COL5*
G04 #@! TO.C,MX6*
X129540000Y-35560000D02*
X130850002Y-34100000D01*
D12*
G04 #@! TO.P,MX6,2*
G04 #@! TO.N,Net-(D6-Pad2)*
X135890000Y-33020000D03*
X135870000Y-33310000D03*
D13*
G04 #@! TD*
G04 #@! TO.N,Net-(D6-Pad2)*
G04 #@! TO.C,MX6*
X135850000Y-33600000D02*
X135890000Y-33020000D01*
D12*
G04 #@! TO.P,MX5,1*
G04 #@! TO.N,COL4*
X111800000Y-34100000D03*
X111145001Y-34830000D03*
D13*
G04 #@! TD*
G04 #@! TO.N,COL4*
G04 #@! TO.C,MX5*
X110490000Y-35560000D02*
X111800002Y-34100000D01*
D12*
G04 #@! TO.P,MX5,2*
G04 #@! TO.N,Net-(D5-Pad2)*
X116840000Y-33020000D03*
X116820000Y-33310000D03*
D13*
G04 #@! TD*
G04 #@! TO.N,Net-(D5-Pad2)*
G04 #@! TO.C,MX5*
X116800000Y-33600000D02*
X116840000Y-33020000D01*
D12*
G04 #@! TO.P,MX4,1*
G04 #@! TO.N,COL3*
X92750000Y-34100000D03*
X92095001Y-34830000D03*
D13*
G04 #@! TD*
G04 #@! TO.N,COL3*
G04 #@! TO.C,MX4*
X91440000Y-35560000D02*
X92750002Y-34100000D01*
D12*
G04 #@! TO.P,MX4,2*
G04 #@! TO.N,Net-(D4-Pad2)*
X97790000Y-33020000D03*
X97770000Y-33310000D03*
D13*
G04 #@! TD*
G04 #@! TO.N,Net-(D4-Pad2)*
G04 #@! TO.C,MX4*
X97750000Y-33600000D02*
X97790000Y-33020000D01*
D12*
G04 #@! TO.P,MX3,1*
G04 #@! TO.N,COL2*
X73700000Y-34100000D03*
X73045001Y-34830000D03*
D13*
G04 #@! TD*
G04 #@! TO.N,COL2*
G04 #@! TO.C,MX3*
X72390000Y-35560000D02*
X73700002Y-34100000D01*
D12*
G04 #@! TO.P,MX3,2*
G04 #@! TO.N,Net-(D3-Pad2)*
X78740000Y-33020000D03*
X78720000Y-33310000D03*
D13*
G04 #@! TD*
G04 #@! TO.N,Net-(D3-Pad2)*
G04 #@! TO.C,MX3*
X78700000Y-33600000D02*
X78740000Y-33020000D01*
D12*
G04 #@! TO.P,MX2,1*
G04 #@! TO.N,COL1*
X54650000Y-34100000D03*
X53995001Y-34830000D03*
D13*
G04 #@! TD*
G04 #@! TO.N,COL1*
G04 #@! TO.C,MX2*
X53340000Y-35560000D02*
X54650002Y-34100000D01*
D12*
G04 #@! TO.P,MX2,2*
G04 #@! TO.N,Net-(D2-Pad2)*
X59690000Y-33020000D03*
X59670000Y-33310000D03*
D13*
G04 #@! TD*
G04 #@! TO.N,Net-(D2-Pad2)*
G04 #@! TO.C,MX2*
X59650000Y-33600000D02*
X59690000Y-33020000D01*
D12*
G04 #@! TO.P,MX1,1*
G04 #@! TO.N,COL0*
X35600000Y-34100000D03*
X34945001Y-34830000D03*
D13*
G04 #@! TD*
G04 #@! TO.N,COL0*
G04 #@! TO.C,MX1*
X34290000Y-35560000D02*
X35600002Y-34100000D01*
D12*
G04 #@! TO.P,MX1,2*
G04 #@! TO.N,Net-(D1-Pad2)*
X40640000Y-33020000D03*
X40620000Y-33310000D03*
D13*
G04 #@! TD*
G04 #@! TO.N,Net-(D1-Pad2)*
G04 #@! TO.C,MX1*
X40600000Y-33600000D02*
X40640000Y-33020000D01*
D15*
G04 #@! TO.P,REF\002A\002A,1*
G04 #@! TO.N,N/C*
X238125000Y-85725000D03*
D16*
X239775000Y-85725000D03*
X239291726Y-86891726D03*
X238125000Y-87375000D03*
X236958274Y-86891726D03*
X236475000Y-85725000D03*
X236958274Y-84558274D03*
X238125000Y-84075000D03*
X239291726Y-84558274D03*
G04 #@! TD*
D15*
G04 #@! TO.P,REF\002A\002A,1*
G04 #@! TO.N,N/C*
X238125000Y-47625000D03*
D16*
X239775000Y-47625000D03*
X239291726Y-48791726D03*
X238125000Y-49275000D03*
X236958274Y-48791726D03*
X236475000Y-47625000D03*
X236958274Y-46458274D03*
X238125000Y-45975000D03*
X239291726Y-46458274D03*
G04 #@! TD*
D15*
G04 #@! TO.P,REF\002A\002A,1*
G04 #@! TO.N,N/C*
X142875000Y-66675000D03*
D16*
X144525000Y-66675000D03*
X144041726Y-67841726D03*
X142875000Y-68325000D03*
X141708274Y-67841726D03*
X141225000Y-66675000D03*
X141708274Y-65508274D03*
X142875000Y-65025000D03*
X144041726Y-65508274D03*
G04 #@! TD*
D15*
G04 #@! TO.P,REF\002A\002A,1*
G04 #@! TO.N,N/C*
X47625000Y-47625000D03*
D16*
X49275000Y-47625000D03*
X48791726Y-48791726D03*
X47625000Y-49275000D03*
X46458274Y-48791726D03*
X45975000Y-47625000D03*
X46458274Y-46458274D03*
X47625000Y-45975000D03*
X48791726Y-46458274D03*
G04 #@! TD*
D15*
G04 #@! TO.P,REF\002A\002A,1*
G04 #@! TO.N,N/C*
X47625000Y-85725000D03*
D16*
X49275000Y-85725000D03*
X48791726Y-86891726D03*
X47625000Y-87375000D03*
X46458274Y-86891726D03*
X45975000Y-85725000D03*
X46458274Y-84558274D03*
X47625000Y-84075000D03*
X48791726Y-84558274D03*
G04 #@! TD*
D17*
G04 #@! TO.P,D1,1*
G04 #@! TO.N,ROW0*
X47625000Y-41751250D03*
D18*
G04 #@! TO.P,D1,2*
G04 #@! TO.N,Net-(D1-Pad2)*
X47625000Y-34131250D03*
G04 #@! TD*
G04 #@! TO.P,D2,2*
G04 #@! TO.N,Net-(D2-Pad2)*
X53181250Y-47625000D03*
D17*
G04 #@! TO.P,D2,1*
G04 #@! TO.N,ROW0*
X60801250Y-47625000D03*
G04 #@! TD*
D18*
G04 #@! TO.P,D3,2*
G04 #@! TO.N,Net-(D3-Pad2)*
X72231250Y-66675000D03*
D17*
G04 #@! TO.P,D3,1*
G04 #@! TO.N,ROW0*
X79851250Y-66675000D03*
G04 #@! TD*
G04 #@! TO.P,D4,1*
G04 #@! TO.N,ROW0*
X104775000Y-41751250D03*
D18*
G04 #@! TO.P,D4,2*
G04 #@! TO.N,Net-(D4-Pad2)*
X104775000Y-34131250D03*
G04 #@! TD*
D17*
G04 #@! TO.P,D5,1*
G04 #@! TO.N,ROW0*
X123825000Y-41751250D03*
D18*
G04 #@! TO.P,D5,2*
G04 #@! TO.N,Net-(D5-Pad2)*
X123825000Y-34131250D03*
G04 #@! TD*
G04 #@! TO.P,D6,2*
G04 #@! TO.N,Net-(D6-Pad2)*
X142875000Y-34131250D03*
D17*
G04 #@! TO.P,D6,1*
G04 #@! TO.N,ROW0*
X142875000Y-41751250D03*
G04 #@! TD*
D18*
G04 #@! TO.P,D7,2*
G04 #@! TO.N,Net-(D7-Pad2)*
X161925000Y-34131250D03*
D17*
G04 #@! TO.P,D7,1*
G04 #@! TO.N,ROW0*
X161925000Y-41751250D03*
G04 #@! TD*
D18*
G04 #@! TO.P,D8,2*
G04 #@! TO.N,Net-(D8-Pad2)*
X180975000Y-34131250D03*
D17*
G04 #@! TO.P,D8,1*
G04 #@! TO.N,ROW0*
X180975000Y-41751250D03*
G04 #@! TD*
D18*
G04 #@! TO.P,D9,2*
G04 #@! TO.N,Net-(D9-Pad2)*
X200025000Y-34131250D03*
D17*
G04 #@! TO.P,D9,1*
G04 #@! TO.N,ROW0*
X200025000Y-41751250D03*
G04 #@! TD*
G04 #@! TO.P,D10,1*
G04 #@! TO.N,ROW0*
X219075000Y-41751250D03*
D18*
G04 #@! TO.P,D10,2*
G04 #@! TO.N,Net-(D10-Pad2)*
X219075000Y-34131250D03*
G04 #@! TD*
D17*
G04 #@! TO.P,D11,1*
G04 #@! TO.N,ROW0*
X238125000Y-41751250D03*
D18*
G04 #@! TO.P,D11,2*
G04 #@! TO.N,Net-(D11-Pad2)*
X238125000Y-34131250D03*
G04 #@! TD*
D17*
G04 #@! TO.P,D12,1*
G04 #@! TO.N,ROW0*
X251301250Y-47625000D03*
D18*
G04 #@! TO.P,D12,2*
G04 #@! TO.N,Net-(D12-Pad2)*
X243681250Y-47625000D03*
G04 #@! TD*
D17*
G04 #@! TO.P,D13,1*
G04 #@! TO.N,ROW1*
X42068750Y-47625000D03*
D18*
G04 #@! TO.P,D13,2*
G04 #@! TO.N,Net-(D13-Pad2)*
X34448750Y-47625000D03*
G04 #@! TD*
D17*
G04 #@! TO.P,D14,1*
G04 #@! TO.N,ROW1*
X60801250Y-66675000D03*
D18*
G04 #@! TO.P,D14,2*
G04 #@! TO.N,Net-(D14-Pad2)*
X53181250Y-66675000D03*
G04 #@! TD*
G04 #@! TO.P,D15,2*
G04 #@! TO.N,Net-(D15-Pad2)*
X91281250Y-66675000D03*
D17*
G04 #@! TO.P,D15,1*
G04 #@! TO.N,ROW1*
X98901250Y-66675000D03*
G04 #@! TD*
G04 #@! TO.P,D16,1*
G04 #@! TO.N,ROW1*
X104775000Y-60801250D03*
D18*
G04 #@! TO.P,D16,2*
G04 #@! TO.N,Net-(D16-Pad2)*
X104775000Y-53181250D03*
G04 #@! TD*
G04 #@! TO.P,D17,2*
G04 #@! TO.N,Net-(D17-Pad2)*
X123825000Y-53181250D03*
D17*
G04 #@! TO.P,D17,1*
G04 #@! TO.N,ROW1*
X123825000Y-60801250D03*
G04 #@! TD*
G04 #@! TO.P,D18,1*
G04 #@! TO.N,ROW1*
X142875000Y-60801250D03*
D18*
G04 #@! TO.P,D18,2*
G04 #@! TO.N,Net-(D18-Pad2)*
X142875000Y-53181250D03*
G04 #@! TD*
D17*
G04 #@! TO.P,D19,1*
G04 #@! TO.N,ROW1*
X161925000Y-60801250D03*
D18*
G04 #@! TO.P,D19,2*
G04 #@! TO.N,Net-(D19-Pad2)*
X161925000Y-53181250D03*
G04 #@! TD*
G04 #@! TO.P,D20,2*
G04 #@! TO.N,Net-(D20-Pad2)*
X180975000Y-53181250D03*
D17*
G04 #@! TO.P,D20,1*
G04 #@! TO.N,ROW1*
X180975000Y-60801250D03*
G04 #@! TD*
D18*
G04 #@! TO.P,D21,2*
G04 #@! TO.N,Net-(D21-Pad2)*
X200025000Y-53181250D03*
D17*
G04 #@! TO.P,D21,1*
G04 #@! TO.N,ROW1*
X200025000Y-60801250D03*
G04 #@! TD*
G04 #@! TO.P,D22,1*
G04 #@! TO.N,ROW1*
X219075000Y-60801250D03*
D18*
G04 #@! TO.P,D22,2*
G04 #@! TO.N,Net-(D22-Pad2)*
X219075000Y-53181250D03*
G04 #@! TD*
D17*
G04 #@! TO.P,D23,1*
G04 #@! TO.N,ROW1*
X238125000Y-60801250D03*
D18*
G04 #@! TO.P,D23,2*
G04 #@! TO.N,Net-(D23-Pad2)*
X238125000Y-53181250D03*
G04 #@! TD*
G04 #@! TO.P,D24,2*
G04 #@! TO.N,Net-(D24-Pad2)*
X243681250Y-66675000D03*
D17*
G04 #@! TO.P,D24,1*
G04 #@! TO.N,ROW1*
X251301250Y-66675000D03*
G04 #@! TD*
D18*
G04 #@! TO.P,D25,2*
G04 #@! TO.N,Net-(D25-Pad2)*
X53498750Y-85725000D03*
D17*
G04 #@! TO.P,D25,1*
G04 #@! TO.N,ROW2*
X61118750Y-85725000D03*
G04 #@! TD*
G04 #@! TO.P,D26,1*
G04 #@! TO.N,ROW2*
X66675000Y-79851250D03*
D18*
G04 #@! TO.P,D26,2*
G04 #@! TO.N,Net-(D26-Pad2)*
X66675000Y-72231250D03*
G04 #@! TD*
G04 #@! TO.P,D27,2*
G04 #@! TO.N,Net-(D27-Pad2)*
X85725000Y-72231250D03*
D17*
G04 #@! TO.P,D27,1*
G04 #@! TO.N,ROW2*
X85725000Y-79851250D03*
G04 #@! TD*
D18*
G04 #@! TO.P,D28,2*
G04 #@! TO.N,Net-(D28-Pad2)*
X104775000Y-72231250D03*
D17*
G04 #@! TO.P,D28,1*
G04 #@! TO.N,ROW2*
X104775000Y-79851250D03*
G04 #@! TD*
G04 #@! TO.P,D29,1*
G04 #@! TO.N,ROW2*
X123825000Y-79851250D03*
D18*
G04 #@! TO.P,D29,2*
G04 #@! TO.N,Net-(D29-Pad2)*
X123825000Y-72231250D03*
G04 #@! TD*
D17*
G04 #@! TO.P,D30,1*
G04 #@! TO.N,ROW2*
X142875000Y-79851250D03*
D18*
G04 #@! TO.P,D30,2*
G04 #@! TO.N,Net-(D30-Pad2)*
X142875000Y-72231250D03*
G04 #@! TD*
G04 #@! TO.P,D31,2*
G04 #@! TO.N,Net-(D31-Pad2)*
X161925000Y-72231250D03*
D17*
G04 #@! TO.P,D31,1*
G04 #@! TO.N,ROW2*
X161925000Y-79851250D03*
G04 #@! TD*
D18*
G04 #@! TO.P,D32,2*
G04 #@! TO.N,Net-(D32-Pad2)*
X180975000Y-72231250D03*
D17*
G04 #@! TO.P,D32,1*
G04 #@! TO.N,ROW2*
X180975000Y-79851250D03*
G04 #@! TD*
G04 #@! TO.P,D33,1*
G04 #@! TO.N,ROW2*
X200025000Y-79851250D03*
D18*
G04 #@! TO.P,D33,2*
G04 #@! TO.N,Net-(D33-Pad2)*
X200025000Y-72231250D03*
G04 #@! TD*
D17*
G04 #@! TO.P,D34,1*
G04 #@! TO.N,ROW2*
X219075000Y-79851250D03*
D18*
G04 #@! TO.P,D34,2*
G04 #@! TO.N,Net-(D34-Pad2)*
X219075000Y-72231250D03*
G04 #@! TD*
G04 #@! TO.P,D35,2*
G04 #@! TO.N,Net-(D35-Pad2)*
X224631250Y-85725000D03*
D17*
G04 #@! TO.P,D35,1*
G04 #@! TO.N,ROW2*
X232251250Y-85725000D03*
G04 #@! TD*
G04 #@! TO.P,D36,1*
G04 #@! TO.N,ROW2*
X238125000Y-79851250D03*
D18*
G04 #@! TO.P,D36,2*
G04 #@! TO.N,Net-(D36-Pad2)*
X238125000Y-72231250D03*
G04 #@! TD*
G04 #@! TO.P,D37,2*
G04 #@! TO.N,Net-(D37-Pad2)*
X34131250Y-85725000D03*
D17*
G04 #@! TO.P,D37,1*
G04 #@! TO.N,ROW3*
X41751250Y-85725000D03*
G04 #@! TD*
G04 #@! TO.P,D38,1*
G04 #@! TO.N,ROW3*
X47625000Y-98901250D03*
D18*
G04 #@! TO.P,D38,2*
G04 #@! TO.N,Net-(D38-Pad2)*
X47625000Y-91281250D03*
G04 #@! TD*
G04 #@! TO.P,D39,2*
G04 #@! TO.N,Net-(D39-Pad2)*
X66675000Y-91281250D03*
D17*
G04 #@! TO.P,D39,1*
G04 #@! TO.N,ROW3*
X66675000Y-98901250D03*
G04 #@! TD*
D18*
G04 #@! TO.P,D40,2*
G04 #@! TO.N,Net-(D40-Pad2)*
X85725000Y-91281250D03*
D17*
G04 #@! TO.P,D40,1*
G04 #@! TO.N,ROW3*
X85725000Y-98901250D03*
G04 #@! TD*
G04 #@! TO.P,D41,1*
G04 #@! TO.N,ROW3*
X104775000Y-98901250D03*
D18*
G04 #@! TO.P,D41,2*
G04 #@! TO.N,Net-(D41-Pad2)*
X104775000Y-91281250D03*
G04 #@! TD*
G04 #@! TO.P,D42,2*
G04 #@! TO.N,Net-(D42-Pad2)*
X123825000Y-91281250D03*
D17*
G04 #@! TO.P,D42,1*
G04 #@! TO.N,ROW3*
X123825000Y-98901250D03*
G04 #@! TD*
G04 #@! TO.P,D43,1*
G04 #@! TO.N,ROW3*
X161925000Y-98901250D03*
D18*
G04 #@! TO.P,D43,2*
G04 #@! TO.N,Net-(D43-Pad2)*
X161925000Y-91281250D03*
G04 #@! TD*
G04 #@! TO.P,D44,2*
G04 #@! TO.N,Net-(D44-Pad2)*
X180975000Y-91281250D03*
D17*
G04 #@! TO.P,D44,1*
G04 #@! TO.N,ROW3*
X180975000Y-98901250D03*
G04 #@! TD*
D18*
G04 #@! TO.P,D45,2*
G04 #@! TO.N,Net-(D45-Pad2)*
X200025000Y-91281250D03*
D17*
G04 #@! TO.P,D45,1*
G04 #@! TO.N,ROW3*
X200025000Y-98901250D03*
G04 #@! TD*
D18*
G04 #@! TO.P,D46,2*
G04 #@! TO.N,Net-(D46-Pad2)*
X219075000Y-91281250D03*
D17*
G04 #@! TO.P,D46,1*
G04 #@! TO.N,ROW3*
X219075000Y-98901250D03*
G04 #@! TD*
G04 #@! TO.P,D47,1*
G04 #@! TO.N,ROW3*
X238125000Y-98901250D03*
D18*
G04 #@! TO.P,D47,2*
G04 #@! TO.N,Net-(D47-Pad2)*
X238125000Y-91281250D03*
G04 #@! TD*
D17*
G04 #@! TO.P,D48,1*
G04 #@! TO.N,ROW3*
X251301250Y-85725000D03*
D18*
G04 #@! TO.P,D48,2*
G04 #@! TO.N,Net-(D48-Pad2)*
X243681250Y-85725000D03*
G04 #@! TD*
D19*
G04 #@! TO.P,SW1,1*
G04 #@! TO.N,Net-(SW1-Pad1)*
X49875000Y-63425000D03*
G04 #@! TO.P,SW1,2*
G04 #@! TO.N,GND*
X45375000Y-69925000D03*
G04 #@! TO.P,SW1,3*
G04 #@! TO.N,N/C*
X45375000Y-63425000D03*
G04 #@! TO.P,SW1,4*
X49875000Y-69925000D03*
G04 #@! TD*
D20*
G04 #@! TO.P,J1,4*
G04 #@! TO.N,+5V*
X34290000Y-66675000D03*
G04 #@! TO.P,J1,3*
G04 #@! TO.N,PIN18*
X36830000Y-66675000D03*
G04 #@! TO.P,J1,2*
G04 #@! TO.N,PIN15*
X39370000Y-66675000D03*
D21*
G04 #@! TO.P,J1,1*
G04 #@! TO.N,GND*
X41910000Y-66675000D03*
G04 #@! TD*
D22*
G04 #@! TO.N,PIN18*
X57785000Y-69596000D03*
G04 #@! TO.N,PIN15*
X58547000Y-69088000D03*
G04 #@! TD*
D23*
G04 #@! TO.N,ROW0*
X219075000Y-41751250D02*
X220125000Y-41751250D01*
X220125000Y-41751250D02*
X238125000Y-41751250D01*
X200025000Y-41751250D02*
X201075000Y-41751250D01*
X201075000Y-41751250D02*
X219075000Y-41751250D01*
X180975000Y-41751250D02*
X182025000Y-41751250D01*
X182025000Y-41751250D02*
X200025000Y-41751250D01*
X161925000Y-41751250D02*
X162975000Y-41751250D01*
X162975000Y-41751250D02*
X180975000Y-41751250D01*
X142875000Y-41751250D02*
X143925000Y-41751250D01*
X143925000Y-41751250D02*
X161925000Y-41751250D01*
X123825000Y-41751250D02*
X124875000Y-41751250D01*
X124875000Y-41751250D02*
X142875000Y-41751250D01*
X104775000Y-41751250D02*
X105825000Y-41751250D01*
X105825000Y-41751250D02*
X123825000Y-41751250D01*
X60801250Y-47625000D02*
X68421250Y-47625000D01*
X68421250Y-47625000D02*
X68580000Y-47783750D01*
X66167000Y-52990750D02*
X60801250Y-47625000D01*
X66167000Y-64135000D02*
X66167000Y-52990750D01*
X70866000Y-68834000D02*
X66167000Y-64135000D01*
X76642250Y-68834000D02*
X70866000Y-68834000D01*
X78801250Y-66675000D02*
X76642250Y-68834000D01*
X79851250Y-66675000D02*
X78801250Y-66675000D01*
X73533000Y-42830750D02*
X68580000Y-47783750D01*
X73533000Y-36957000D02*
X73533000Y-42830750D01*
X76708000Y-33782000D02*
X73533000Y-36957000D01*
X76708000Y-32258000D02*
X76708000Y-33782000D01*
X104775000Y-41751250D02*
X89376250Y-41751250D01*
X89376250Y-41751250D02*
X86360000Y-38735000D01*
X86360000Y-38735000D02*
X86360000Y-32766000D01*
X84582000Y-30988000D02*
X77978000Y-30988000D01*
X86360000Y-32766000D02*
X84582000Y-30988000D01*
X77978000Y-30988000D02*
X76708000Y-32258000D01*
X241808000Y-45434250D02*
X238125000Y-41751250D01*
X241808000Y-48133000D02*
X241808000Y-45434250D01*
X242951000Y-49276000D02*
X241808000Y-48133000D01*
X251301250Y-47625000D02*
X249650250Y-49276000D01*
X249650250Y-49276000D02*
X242951000Y-49276000D01*
X51689000Y-45815250D02*
X47625000Y-41751250D01*
X51689000Y-48260000D02*
X51689000Y-45815250D01*
X52578000Y-49149000D02*
X51689000Y-48260000D01*
X53848000Y-49149000D02*
X52578000Y-49149000D01*
X55372000Y-47625000D02*
X53848000Y-49149000D01*
X60801250Y-47625000D02*
X55372000Y-47625000D01*
G04 #@! TO.N,Net-(D1-Pad2)*
X40640000Y-33020000D02*
X46513750Y-33020000D01*
X46513750Y-33020000D02*
X47625000Y-34131250D01*
G04 #@! TO.N,Net-(D2-Pad2)*
X59690000Y-33020000D02*
X59690000Y-41116250D01*
X59690000Y-41116250D02*
X53181250Y-47625000D01*
G04 #@! TO.N,Net-(D3-Pad2)*
X78740000Y-34610990D02*
X78740000Y-33020000D01*
X72231250Y-66675000D02*
X78740000Y-60166250D01*
X78740000Y-60166250D02*
X78740000Y-55118000D01*
X78740000Y-55118000D02*
X76962000Y-53340000D01*
X76962000Y-51435000D02*
X79375000Y-49022000D01*
X76962000Y-53340000D02*
X76962000Y-51435000D01*
X79375000Y-49022000D02*
X79375000Y-35245990D01*
X79375000Y-34275000D02*
X78700000Y-33600000D01*
X79375000Y-35245990D02*
X79375000Y-34275000D01*
G04 #@! TO.N,Net-(D4-Pad2)*
X97790000Y-33020000D02*
X103663750Y-33020000D01*
X103663750Y-33020000D02*
X104775000Y-34131250D01*
G04 #@! TO.N,Net-(D5-Pad2)*
X116840000Y-33020000D02*
X122713750Y-33020000D01*
X122713750Y-33020000D02*
X123825000Y-34131250D01*
G04 #@! TO.N,Net-(D6-Pad2)*
X135890000Y-33020000D02*
X141763750Y-33020000D01*
X141763750Y-33020000D02*
X142875000Y-34131250D01*
G04 #@! TO.N,Net-(D7-Pad2)*
X154940000Y-33020000D02*
X160813750Y-33020000D01*
X160813750Y-33020000D02*
X161925000Y-34131250D01*
G04 #@! TO.N,Net-(D8-Pad2)*
X173990000Y-33020000D02*
X179863750Y-33020000D01*
X179863750Y-33020000D02*
X180975000Y-34131250D01*
G04 #@! TO.N,Net-(D9-Pad2)*
X193040000Y-33020000D02*
X198913750Y-33020000D01*
X198913750Y-33020000D02*
X200025000Y-34131250D01*
G04 #@! TO.N,Net-(D10-Pad2)*
X212090000Y-33020000D02*
X217963750Y-33020000D01*
X217963750Y-33020000D02*
X219075000Y-34131250D01*
G04 #@! TO.N,Net-(D11-Pad2)*
X231140000Y-33020000D02*
X237013750Y-33020000D01*
X237013750Y-33020000D02*
X238125000Y-34131250D01*
G04 #@! TO.N,Net-(D12-Pad2)*
X250190000Y-33020000D02*
X250190000Y-41116250D01*
X250190000Y-41116250D02*
X243681250Y-47625000D01*
G04 #@! TO.N,ROW1*
X219075000Y-60801250D02*
X238125000Y-60801250D01*
X200025000Y-60801250D02*
X219075000Y-60801250D01*
X180975000Y-60801250D02*
X182025000Y-60801250D01*
X182025000Y-60801250D02*
X200025000Y-60801250D01*
X161925000Y-60801250D02*
X180975000Y-60801250D01*
X142875000Y-60801250D02*
X143925000Y-60801250D01*
X143925000Y-60801250D02*
X161925000Y-60801250D01*
X123825000Y-60801250D02*
X124875000Y-60801250D01*
X124875000Y-60801250D02*
X142875000Y-60801250D01*
X104775000Y-60801250D02*
X105825000Y-60801250D01*
X105825000Y-60801250D02*
X123825000Y-60801250D01*
X98901250Y-66675000D02*
X98901250Y-65625000D01*
X98901250Y-65625000D02*
X103725000Y-60801250D01*
X103725000Y-60801250D02*
X104775000Y-60801250D01*
X249904250Y-68072000D02*
X251301250Y-66675000D01*
X243078000Y-68072000D02*
X249904250Y-68072000D01*
X238125000Y-63119000D02*
X243078000Y-68072000D01*
X238125000Y-60801250D02*
X238125000Y-63119000D01*
X63468250Y-69342000D02*
X60801250Y-66675000D01*
X95184250Y-69342000D02*
X63468250Y-69342000D01*
X98901250Y-66675000D02*
X97851250Y-66675000D01*
X97851250Y-66675000D02*
X95184250Y-69342000D01*
X59150250Y-68326000D02*
X60801250Y-66675000D01*
X52578000Y-68326000D02*
X59150250Y-68326000D01*
X42068750Y-47625000D02*
X42068750Y-49561750D01*
X42068750Y-49561750D02*
X43180000Y-50673000D01*
X43180000Y-50673000D02*
X43180000Y-53467000D01*
X43180000Y-53467000D02*
X45466000Y-55753000D01*
X45466000Y-55753000D02*
X45466000Y-61214000D01*
X45466000Y-61214000D02*
X52578000Y-68326000D01*
G04 #@! TO.N,Net-(D13-Pad2)*
X36195000Y-47625000D02*
X40640000Y-52070000D01*
X34448750Y-47625000D02*
X36195000Y-47625000D01*
G04 #@! TO.N,Net-(D14-Pad2)*
X59690000Y-52070000D02*
X59690000Y-60166250D01*
X59690000Y-60166250D02*
X53181250Y-66675000D01*
G04 #@! TO.N,Net-(D15-Pad2)*
X79248000Y-52578000D02*
X78740000Y-52070000D01*
X79248000Y-58166000D02*
X79248000Y-52578000D01*
X87757000Y-66675000D02*
X79248000Y-58166000D01*
X91281250Y-66675000D02*
X87757000Y-66675000D01*
G04 #@! TO.N,Net-(D16-Pad2)*
X97790000Y-52070000D02*
X103663750Y-52070000D01*
X103663750Y-52070000D02*
X104775000Y-53181250D01*
G04 #@! TO.N,Net-(D17-Pad2)*
X117983000Y-52070000D02*
X122713750Y-52070000D01*
X122713750Y-52070000D02*
X123825000Y-53181250D01*
X117403000Y-52650000D02*
X117983000Y-52070000D01*
X116800000Y-52650000D02*
X117403000Y-52650000D01*
G04 #@! TO.N,Net-(D18-Pad2)*
X135890000Y-52070000D02*
X141763750Y-52070000D01*
X141763750Y-52070000D02*
X142875000Y-53181250D01*
G04 #@! TO.N,Net-(D19-Pad2)*
X154940000Y-52070000D02*
X160813750Y-52070000D01*
X160813750Y-52070000D02*
X161925000Y-53181250D01*
G04 #@! TO.N,Net-(D20-Pad2)*
X173990000Y-52070000D02*
X179863750Y-52070000D01*
X179863750Y-52070000D02*
X180975000Y-53181250D01*
G04 #@! TO.N,Net-(D21-Pad2)*
X194183000Y-52070000D02*
X198913750Y-52070000D01*
X198913750Y-52070000D02*
X200025000Y-53181250D01*
X193603000Y-52650000D02*
X194183000Y-52070000D01*
X193000000Y-52650000D02*
X193603000Y-52650000D01*
G04 #@! TO.N,Net-(D22-Pad2)*
X212090000Y-52070000D02*
X217963750Y-52070000D01*
X217963750Y-52070000D02*
X219075000Y-53181250D01*
G04 #@! TO.N,Net-(D23-Pad2)*
X231140000Y-52070000D02*
X237013750Y-52070000D01*
X237013750Y-52070000D02*
X238125000Y-53181250D01*
G04 #@! TO.N,Net-(D24-Pad2)*
X250190000Y-52070000D02*
X250190000Y-60166250D01*
X250190000Y-60166250D02*
X243681250Y-66675000D01*
G04 #@! TO.N,ROW2*
X200025000Y-79851250D02*
X201075000Y-79851250D01*
X201075000Y-79851250D02*
X219075000Y-79851250D01*
X180975000Y-79851250D02*
X182025000Y-79851250D01*
X182025000Y-79851250D02*
X200025000Y-79851250D01*
X161925000Y-79851250D02*
X180975000Y-79851250D01*
X142875000Y-79851250D02*
X161925000Y-79851250D01*
X123825000Y-79851250D02*
X124875000Y-79851250D01*
X124875000Y-79851250D02*
X142875000Y-79851250D01*
X104775000Y-79851250D02*
X105825000Y-79851250D01*
X105825000Y-79851250D02*
X123825000Y-79851250D01*
X85725000Y-79851250D02*
X86775000Y-79851250D01*
X86775000Y-79851250D02*
X104775000Y-79851250D01*
X66675000Y-79851250D02*
X67725000Y-79851250D01*
X67725000Y-79851250D02*
X85725000Y-79851250D01*
X230854250Y-87122000D02*
X232251250Y-85725000D01*
X224028000Y-87122000D02*
X230854250Y-87122000D01*
X219075000Y-82169000D02*
X224028000Y-87122000D01*
X219075000Y-79851250D02*
X219075000Y-82169000D01*
X238125000Y-79851250D02*
X232251250Y-85725000D01*
X61118750Y-85407500D02*
X66675000Y-79851250D01*
X61118750Y-85725000D02*
X61118750Y-85407500D01*
G04 #@! TO.N,Net-(D25-Pad2)*
X40600000Y-71700000D02*
X41728000Y-71700000D01*
X53498750Y-83470750D02*
X53498750Y-85725000D01*
X41728000Y-71700000D02*
X53498750Y-83470750D01*
G04 #@! TO.N,Net-(D26-Pad2)*
X60960000Y-71120000D02*
X65563750Y-71120000D01*
X65563750Y-71120000D02*
X66675000Y-72231250D01*
X60380000Y-71700000D02*
X60960000Y-71120000D01*
X59650000Y-71700000D02*
X60380000Y-71700000D01*
G04 #@! TO.N,Net-(D27-Pad2)*
X78740000Y-71120000D02*
X84613750Y-71120000D01*
X84613750Y-71120000D02*
X85725000Y-72231250D01*
G04 #@! TO.N,Net-(D28-Pad2)*
X97790000Y-71120000D02*
X103663750Y-71120000D01*
X103663750Y-71120000D02*
X104775000Y-72231250D01*
G04 #@! TO.N,Net-(D29-Pad2)*
X116840000Y-71120000D02*
X122713750Y-71120000D01*
X122713750Y-71120000D02*
X123825000Y-72231250D01*
G04 #@! TO.N,Net-(D30-Pad2)*
X135890000Y-71120000D02*
X141763750Y-71120000D01*
X141763750Y-71120000D02*
X142875000Y-72231250D01*
G04 #@! TO.N,Net-(D31-Pad2)*
X156083000Y-71120000D02*
X160813750Y-71120000D01*
X160813750Y-71120000D02*
X161925000Y-72231250D01*
X155503000Y-71700000D02*
X156083000Y-71120000D01*
X154900000Y-71700000D02*
X155503000Y-71700000D01*
G04 #@! TO.N,Net-(D32-Pad2)*
X173990000Y-71120000D02*
X179863750Y-71120000D01*
X179863750Y-71120000D02*
X180975000Y-72231250D01*
G04 #@! TO.N,Net-(D33-Pad2)*
X193040000Y-71120000D02*
X198913750Y-71120000D01*
X198913750Y-71120000D02*
X200025000Y-72231250D01*
G04 #@! TO.N,Net-(D34-Pad2)*
X212090000Y-71120000D02*
X217963750Y-71120000D01*
X217963750Y-71120000D02*
X219075000Y-72231250D01*
G04 #@! TO.N,Net-(D35-Pad2)*
X231100000Y-79256250D02*
X224631250Y-85725000D01*
X231100000Y-71700000D02*
X231100000Y-79256250D01*
G04 #@! TO.N,Net-(D36-Pad2)*
X250190000Y-71120000D02*
X249065001Y-69995001D01*
X249065001Y-69995001D02*
X240361249Y-69995001D01*
X240361249Y-69995001D02*
X238924999Y-71431251D01*
X238924999Y-71431251D02*
X238125000Y-72231250D01*
G04 #@! TO.N,ROW3*
X219075000Y-98901250D02*
X238125000Y-98901250D01*
X200025000Y-98901250D02*
X201075000Y-98901250D01*
X201075000Y-98901250D02*
X219075000Y-98901250D01*
X180975000Y-98901250D02*
X182025000Y-98901250D01*
X182025000Y-98901250D02*
X200025000Y-98901250D01*
X161925000Y-98901250D02*
X162975000Y-98901250D01*
X162975000Y-98901250D02*
X180975000Y-98901250D01*
X123825000Y-98901250D02*
X124875000Y-98901250D01*
X124875000Y-98901250D02*
X161925000Y-98901250D01*
X104775000Y-98901250D02*
X105825000Y-98901250D01*
X105825000Y-98901250D02*
X123825000Y-98901250D01*
X85725000Y-98901250D02*
X104775000Y-98901250D01*
X66675000Y-98901250D02*
X67725000Y-98901250D01*
X67725000Y-98901250D02*
X85725000Y-98901250D01*
X47625000Y-98901250D02*
X48675000Y-98901250D01*
X48675000Y-98901250D02*
X66675000Y-98901250D01*
X47625000Y-93853000D02*
X41751250Y-87979250D01*
X41751250Y-87979250D02*
X41751250Y-85725000D01*
X47625000Y-98901250D02*
X47625000Y-93853000D01*
X251968000Y-86391750D02*
X251301250Y-85725000D01*
X251968000Y-91694000D02*
X251968000Y-86391750D01*
X250317000Y-93345000D02*
X251968000Y-91694000D01*
X250317000Y-96393000D02*
X250317000Y-93345000D01*
X247808750Y-98901250D02*
X250317000Y-96393000D01*
X238125000Y-98901250D02*
X247808750Y-98901250D01*
G04 #@! TO.N,Net-(D37-Pad2)*
X40640000Y-90170000D02*
X36195000Y-85725000D01*
X36195000Y-85725000D02*
X34131250Y-85725000D01*
G04 #@! TO.N,Net-(D38-Pad2)*
X59690000Y-90170000D02*
X58565001Y-89045001D01*
X58565001Y-89045001D02*
X49861249Y-89045001D01*
X49861249Y-89045001D02*
X48424999Y-90481251D01*
X48424999Y-90481251D02*
X47625000Y-91281250D01*
G04 #@! TO.N,Net-(D39-Pad2)*
X78700000Y-90750000D02*
X76977000Y-89027000D01*
X76977000Y-89027000D02*
X68929250Y-89027000D01*
X68929250Y-89027000D02*
X67474999Y-90481251D01*
X67474999Y-90481251D02*
X66675000Y-91281250D01*
G04 #@! TO.N,Net-(D40-Pad2)*
X97790000Y-90170000D02*
X96665001Y-89045001D01*
X96665001Y-89045001D02*
X87961249Y-89045001D01*
X87961249Y-89045001D02*
X86524999Y-90481251D01*
X86524999Y-90481251D02*
X85725000Y-91281250D01*
G04 #@! TO.N,Net-(D41-Pad2)*
X116840000Y-90170000D02*
X115715001Y-89045001D01*
X115715001Y-89045001D02*
X107011249Y-89045001D01*
X107011249Y-89045001D02*
X105574999Y-90481251D01*
X105574999Y-90481251D02*
X104775000Y-91281250D01*
G04 #@! TO.N,Net-(D42-Pad2)*
X133664010Y-89535000D02*
X125571250Y-89535000D01*
X125571250Y-89535000D02*
X123825000Y-91281250D01*
X145375000Y-90750000D02*
X144979000Y-90750000D01*
X144979000Y-90750000D02*
X143764000Y-89535000D01*
X137065000Y-89535000D02*
X135850000Y-90750000D01*
X143764000Y-89535000D02*
X137065000Y-89535000D01*
X134635000Y-89535000D02*
X135850000Y-90750000D01*
X133664010Y-89535000D02*
X134635000Y-89535000D01*
G04 #@! TO.N,Net-(D43-Pad2)*
X154940000Y-90170000D02*
X160813750Y-90170000D01*
X160813750Y-90170000D02*
X161925000Y-91281250D01*
G04 #@! TO.N,Net-(D44-Pad2)*
X173990000Y-90170000D02*
X179863750Y-90170000D01*
X179863750Y-90170000D02*
X180975000Y-91281250D01*
G04 #@! TO.N,Net-(D45-Pad2)*
X194183000Y-90170000D02*
X198913750Y-90170000D01*
X198913750Y-90170000D02*
X200025000Y-91281250D01*
X193603000Y-90750000D02*
X194183000Y-90170000D01*
X193000000Y-90750000D02*
X193603000Y-90750000D01*
G04 #@! TO.N,Net-(D46-Pad2)*
X212090000Y-90170000D02*
X217963750Y-90170000D01*
X217963750Y-90170000D02*
X219075000Y-91281250D01*
G04 #@! TO.N,Net-(D47-Pad2)*
X231140000Y-90170000D02*
X237013750Y-90170000D01*
X237013750Y-90170000D02*
X238125000Y-91281250D01*
G04 #@! TO.N,Net-(D48-Pad2)*
X250190000Y-90170000D02*
X245745000Y-85725000D01*
X245745000Y-85725000D02*
X243681250Y-85725000D01*
G04 #@! TO.N,COL3*
X83820000Y-57943750D02*
X87153750Y-54610000D01*
X87153750Y-54610000D02*
X91440000Y-54610000D01*
G04 #@! TO.N,COL4*
X83820000Y-55403750D02*
X85979000Y-53244750D01*
X85979000Y-53244750D02*
X85979000Y-49657000D01*
X85979000Y-49657000D02*
X87376000Y-48260000D01*
X87376000Y-48260000D02*
X106910000Y-48260000D01*
X106910000Y-48260000D02*
X111800000Y-53150000D01*
G04 #@! TO.N,COL5*
X83820000Y-52863750D02*
X85471000Y-51212750D01*
X85471000Y-51212750D02*
X85471000Y-49403000D01*
X85471000Y-49403000D02*
X87122000Y-47752000D01*
X87122000Y-47752000D02*
X125452000Y-47752000D01*
X125452000Y-47752000D02*
X130850000Y-53150000D01*
X139065000Y-92710000D02*
X132310000Y-92710000D01*
X132310000Y-92710000D02*
X130850000Y-91250000D01*
G04 #@! TO.N,COL6*
X149328000Y-52578000D02*
X149900000Y-53150000D01*
X86899750Y-47244000D02*
X143994000Y-47244000D01*
X143994000Y-47244000D02*
X149328000Y-52578000D01*
X83820000Y-50323750D02*
X86899750Y-47244000D01*
G04 #@! TO.N,COL7*
X83820000Y-47783750D02*
X84867750Y-46736000D01*
X84867750Y-46736000D02*
X162536000Y-46736000D01*
X162536000Y-46736000D02*
X168950000Y-53150000D01*
G04 #@! TO.N,COL8*
X84836000Y-46228000D02*
X181078000Y-46228000D01*
X181078000Y-46228000D02*
X188000000Y-53150000D01*
X83851750Y-45243750D02*
X84836000Y-46228000D01*
X83820000Y-45243750D02*
X83851750Y-45243750D01*
G04 #@! TO.N,COL9*
X86836250Y-45720000D02*
X199620000Y-45720000D01*
X199620000Y-45720000D02*
X207050000Y-53150000D01*
X83820000Y-42703750D02*
X86836250Y-45720000D01*
G04 #@! TO.N,COL10*
X85979000Y-44069000D02*
X87122000Y-45212000D01*
X87122000Y-45212000D02*
X218162000Y-45212000D01*
X83820000Y-35083750D02*
X85344000Y-36607750D01*
X85344000Y-36607750D02*
X85344000Y-43434000D01*
X85344000Y-43434000D02*
X85979000Y-44069000D01*
X218162000Y-45212000D02*
X226100000Y-53150000D01*
G04 #@! TO.N,COL11*
X85852000Y-43180000D02*
X87376000Y-44704000D01*
X85852000Y-34575750D02*
X85852000Y-43180000D01*
X83820000Y-32543750D02*
X85852000Y-34575750D01*
X236347000Y-51181000D02*
X229870000Y-44704000D01*
X240411000Y-51181000D02*
X236347000Y-51181000D01*
X243840000Y-54610000D02*
X240411000Y-51181000D01*
X87376000Y-44704000D02*
X229870000Y-44704000D01*
G04 #@! TO.N,Net-(SW1-Pad1)*
X48439000Y-63425000D02*
X49875000Y-63425000D01*
X45974000Y-60960000D02*
X48439000Y-63425000D01*
X68580000Y-37623750D02*
X62198250Y-31242000D01*
X54610000Y-31242000D02*
X43688000Y-42164000D01*
X43688000Y-42164000D02*
X43688000Y-53213000D01*
X62198250Y-31242000D02*
X54610000Y-31242000D01*
X43688000Y-53213000D02*
X45974000Y-55499000D01*
X45974000Y-55499000D02*
X45974000Y-60960000D01*
D24*
G04 #@! TO.N,GND*
X41910000Y-66675000D02*
X41910000Y-67818000D01*
X44017000Y-69925000D02*
X45375000Y-69925000D01*
X41910000Y-67818000D02*
X44017000Y-69925000D01*
X66960750Y-35083750D02*
X68580000Y-35083750D01*
X40513000Y-44450000D02*
X54356000Y-30607000D01*
X40513000Y-48895000D02*
X40513000Y-44450000D01*
X54356000Y-30607000D02*
X62484000Y-30607000D01*
X41910000Y-66675000D02*
X41910000Y-64516000D01*
X62484000Y-30607000D02*
X66960750Y-35083750D01*
X41910000Y-64516000D02*
X44831000Y-61595000D01*
X44831000Y-61595000D02*
X44831000Y-56007000D01*
X44831000Y-56007000D02*
X42545000Y-53721000D01*
X42545000Y-53721000D02*
X42545000Y-50927000D01*
X42545000Y-50927000D02*
X40513000Y-48895000D01*
D23*
G04 #@! TO.N,PIN18*
X38862000Y-68707000D02*
X36830000Y-66675000D01*
X57785000Y-69596000D02*
X57531000Y-69342000D01*
X57531000Y-69342000D02*
X53467000Y-69342000D01*
X53467000Y-69342000D02*
X50800000Y-72009000D01*
X50800000Y-72009000D02*
X44450000Y-72009000D01*
X44450000Y-72009000D02*
X41148000Y-68707000D01*
X41148000Y-68707000D02*
X38862000Y-68707000D01*
G04 #@! TO.N,PIN15*
X40259000Y-68199000D02*
X39370000Y-67310000D01*
X58547000Y-69088000D02*
X58293000Y-68834000D01*
X58293000Y-68834000D02*
X53213000Y-68834000D01*
X50546000Y-71501000D02*
X44704000Y-71501000D01*
X39370000Y-67310000D02*
X39370000Y-66675000D01*
X53213000Y-68834000D02*
X50546000Y-71501000D01*
X44704000Y-71501000D02*
X41402000Y-68199000D01*
X41402000Y-68199000D02*
X40259000Y-68199000D01*
G04 #@! TD*
M02*
