G04 #@! TF.FileFunction,Soldermask,Top*
%FSLAX46Y46*%
G04 Gerber Fmt 4.6, Leading zero omitted, Abs format (unit mm)*
G04 Created by KiCad (PCBNEW 4.0.7) date 04/03/18 16:51:40*
%MOMM*%
%LPD*%
G01*
G04 APERTURE LIST*
%ADD10C,0.100000*%
%ADD11C,4.400000*%
%ADD12C,2.200000*%
%ADD13C,2.432000*%
%ADD14C,4.387800*%
%ADD15C,2.150000*%
%ADD16C,3.448000*%
%ADD17R,2.000000X2.000000*%
%ADD18O,2.000000X2.000000*%
%ADD19C,2.400000*%
G04 APERTURE END LIST*
D10*
D11*
X47625000Y-47625000D03*
X238125000Y-47625000D03*
X47625000Y-85725000D03*
X238125000Y-85725000D03*
X142875000Y-66675000D03*
D12*
X44375000Y-64425000D03*
X50875000Y-68925000D03*
X44375000Y-68925000D03*
X50875000Y-64425000D03*
D13*
X83820000Y-32543750D03*
X83820000Y-35083750D03*
X83820000Y-37623750D03*
X83820000Y-40163750D03*
X83820000Y-42703750D03*
X83820000Y-45243750D03*
X83820000Y-47783750D03*
X83820000Y-50323750D03*
X83820000Y-52863750D03*
X83820000Y-55403750D03*
X83820000Y-57943750D03*
X83820000Y-60483750D03*
X68580000Y-32543750D03*
X68580000Y-35083750D03*
X68580000Y-37623750D03*
X68580000Y-40163750D03*
X68580000Y-42703750D03*
X68580000Y-45243750D03*
X68580000Y-47783750D03*
X68580000Y-50323750D03*
X68580000Y-52863750D03*
X68580000Y-55403750D03*
X68580000Y-57943750D03*
X68580000Y-60483750D03*
D14*
X142875000Y-95250000D03*
D15*
X137795000Y-95250000D03*
X147955000Y-95250000D03*
D16*
X130937000Y-102235000D03*
X154813000Y-102235000D03*
D14*
X130937000Y-86995000D03*
X154813000Y-86995000D03*
X247650000Y-95250000D03*
D15*
X242570000Y-95250000D03*
X252730000Y-95250000D03*
D14*
X228600000Y-95250000D03*
D15*
X223520000Y-95250000D03*
X233680000Y-95250000D03*
D14*
X209550000Y-95250000D03*
D15*
X204470000Y-95250000D03*
X214630000Y-95250000D03*
D14*
X190500000Y-95250000D03*
D15*
X185420000Y-95250000D03*
X195580000Y-95250000D03*
D14*
X171450000Y-95250000D03*
D15*
X166370000Y-95250000D03*
X176530000Y-95250000D03*
D14*
X152400000Y-95250000D03*
D15*
X147320000Y-95250000D03*
X157480000Y-95250000D03*
D14*
X133350000Y-95250000D03*
D15*
X128270000Y-95250000D03*
X138430000Y-95250000D03*
D14*
X114300000Y-95250000D03*
D15*
X109220000Y-95250000D03*
X119380000Y-95250000D03*
D14*
X95250000Y-95250000D03*
D15*
X90170000Y-95250000D03*
X100330000Y-95250000D03*
D14*
X76200000Y-95250000D03*
D15*
X71120000Y-95250000D03*
X81280000Y-95250000D03*
D14*
X57150000Y-95250000D03*
D15*
X52070000Y-95250000D03*
X62230000Y-95250000D03*
D14*
X38100000Y-95250000D03*
D15*
X33020000Y-95250000D03*
X43180000Y-95250000D03*
D14*
X247650000Y-76200000D03*
D15*
X242570000Y-76200000D03*
X252730000Y-76200000D03*
D14*
X228600000Y-76200000D03*
D15*
X223520000Y-76200000D03*
X233680000Y-76200000D03*
D14*
X209550000Y-76200000D03*
D15*
X204470000Y-76200000D03*
X214630000Y-76200000D03*
D14*
X190500000Y-76200000D03*
D15*
X185420000Y-76200000D03*
X195580000Y-76200000D03*
D14*
X171450000Y-76200000D03*
D15*
X166370000Y-76200000D03*
X176530000Y-76200000D03*
D14*
X152400000Y-76200000D03*
D15*
X147320000Y-76200000D03*
X157480000Y-76200000D03*
D14*
X133350000Y-76200000D03*
D15*
X128270000Y-76200000D03*
X138430000Y-76200000D03*
D14*
X114300000Y-76200000D03*
D15*
X109220000Y-76200000D03*
X119380000Y-76200000D03*
D14*
X95250000Y-76200000D03*
D15*
X90170000Y-76200000D03*
X100330000Y-76200000D03*
D14*
X76200000Y-76200000D03*
D15*
X71120000Y-76200000D03*
X81280000Y-76200000D03*
D14*
X57150000Y-76200000D03*
D15*
X52070000Y-76200000D03*
X62230000Y-76200000D03*
D14*
X38100000Y-76200000D03*
D15*
X33020000Y-76200000D03*
X43180000Y-76200000D03*
D14*
X247650000Y-57150000D03*
D15*
X242570000Y-57150000D03*
X252730000Y-57150000D03*
D14*
X228600000Y-57150000D03*
D15*
X223520000Y-57150000D03*
X233680000Y-57150000D03*
D14*
X209550000Y-57150000D03*
D15*
X204470000Y-57150000D03*
X214630000Y-57150000D03*
D14*
X190500000Y-57150000D03*
D15*
X185420000Y-57150000D03*
X195580000Y-57150000D03*
D14*
X171450000Y-57150000D03*
D15*
X166370000Y-57150000D03*
X176530000Y-57150000D03*
D14*
X152400000Y-57150000D03*
D15*
X147320000Y-57150000D03*
X157480000Y-57150000D03*
D14*
X133350000Y-57150000D03*
D15*
X128270000Y-57150000D03*
X138430000Y-57150000D03*
D14*
X114300000Y-57150000D03*
D15*
X109220000Y-57150000D03*
X119380000Y-57150000D03*
D14*
X95250000Y-57150000D03*
D15*
X90170000Y-57150000D03*
X100330000Y-57150000D03*
D14*
X76200000Y-57150000D03*
D15*
X71120000Y-57150000D03*
X81280000Y-57150000D03*
D14*
X57150000Y-57150000D03*
D15*
X52070000Y-57150000D03*
X62230000Y-57150000D03*
D14*
X38100000Y-57150000D03*
D15*
X33020000Y-57150000D03*
X43180000Y-57150000D03*
D14*
X247650000Y-38100000D03*
D15*
X242570000Y-38100000D03*
X252730000Y-38100000D03*
D14*
X228600000Y-38100000D03*
D15*
X223520000Y-38100000D03*
X233680000Y-38100000D03*
D14*
X209550000Y-38100000D03*
D15*
X204470000Y-38100000D03*
X214630000Y-38100000D03*
D14*
X190500000Y-38100000D03*
D15*
X185420000Y-38100000D03*
X195580000Y-38100000D03*
D14*
X171450000Y-38100000D03*
D15*
X166370000Y-38100000D03*
X176530000Y-38100000D03*
D14*
X152400000Y-38100000D03*
D15*
X147320000Y-38100000D03*
X157480000Y-38100000D03*
D14*
X133350000Y-38100000D03*
D15*
X128270000Y-38100000D03*
X138430000Y-38100000D03*
D14*
X114300000Y-38100000D03*
D15*
X109220000Y-38100000D03*
X119380000Y-38100000D03*
D14*
X95250000Y-38100000D03*
D15*
X90170000Y-38100000D03*
X100330000Y-38100000D03*
D14*
X76200000Y-38100000D03*
D15*
X71120000Y-38100000D03*
X81280000Y-38100000D03*
D14*
X57150000Y-38100000D03*
D15*
X52070000Y-38100000D03*
X62230000Y-38100000D03*
D14*
X38100000Y-38100000D03*
D15*
X33020000Y-38100000D03*
X43180000Y-38100000D03*
D17*
X251301250Y-85725000D03*
D18*
X243681250Y-85725000D03*
D17*
X238125000Y-98901250D03*
D18*
X238125000Y-91281250D03*
D17*
X219075000Y-98901250D03*
D18*
X219075000Y-91281250D03*
D17*
X200025000Y-98901250D03*
D18*
X200025000Y-91281250D03*
D17*
X180975000Y-98901250D03*
D18*
X180975000Y-91281250D03*
D17*
X161925000Y-98901250D03*
D18*
X161925000Y-91281250D03*
D17*
X123825000Y-98901250D03*
D18*
X123825000Y-91281250D03*
D17*
X104775000Y-98901250D03*
D18*
X104775000Y-91281250D03*
D17*
X85725000Y-98901250D03*
D18*
X85725000Y-91281250D03*
D17*
X66675000Y-98901250D03*
D18*
X66675000Y-91281250D03*
D17*
X47625000Y-98901250D03*
D18*
X47625000Y-91281250D03*
D17*
X41751250Y-85725000D03*
D18*
X34131250Y-85725000D03*
D17*
X238125000Y-79851250D03*
D18*
X238125000Y-72231250D03*
D17*
X232251250Y-85725000D03*
D18*
X224631250Y-85725000D03*
D17*
X219075000Y-79851250D03*
D18*
X219075000Y-72231250D03*
D17*
X200025000Y-79851250D03*
D18*
X200025000Y-72231250D03*
D17*
X180975000Y-79851250D03*
D18*
X180975000Y-72231250D03*
D17*
X161925000Y-79851250D03*
D18*
X161925000Y-72231250D03*
D17*
X142875000Y-79851250D03*
D18*
X142875000Y-72231250D03*
D17*
X123825000Y-79851250D03*
D18*
X123825000Y-72231250D03*
D17*
X104775000Y-79851250D03*
D18*
X104775000Y-72231250D03*
D17*
X85725000Y-79851250D03*
D18*
X85725000Y-72231250D03*
D17*
X66675000Y-79851250D03*
D18*
X66675000Y-72231250D03*
D17*
X47625000Y-79851250D03*
D18*
X47625000Y-72231250D03*
D17*
X251301250Y-66675000D03*
D18*
X243681250Y-66675000D03*
D17*
X238125000Y-60801250D03*
D18*
X238125000Y-53181250D03*
D17*
X219075000Y-60801250D03*
D18*
X219075000Y-53181250D03*
D17*
X200025000Y-60801250D03*
D18*
X200025000Y-53181250D03*
D17*
X180975000Y-60801250D03*
D18*
X180975000Y-53181250D03*
D17*
X161925000Y-60801250D03*
D18*
X161925000Y-53181250D03*
D17*
X142875000Y-60801250D03*
D18*
X142875000Y-53181250D03*
D17*
X123825000Y-60801250D03*
D18*
X123825000Y-53181250D03*
D17*
X104775000Y-60801250D03*
D18*
X104775000Y-53181250D03*
D17*
X98901250Y-66675000D03*
D18*
X91281250Y-66675000D03*
D17*
X60801250Y-66675000D03*
D18*
X53181250Y-66675000D03*
D17*
X47625000Y-61595000D03*
D18*
X47625000Y-53975000D03*
D17*
X251301250Y-47625000D03*
D18*
X243681250Y-47625000D03*
D17*
X238125000Y-41751250D03*
D18*
X238125000Y-34131250D03*
D17*
X219075000Y-41751250D03*
D18*
X219075000Y-34131250D03*
D17*
X200025000Y-41751250D03*
D18*
X200025000Y-34131250D03*
D17*
X180975000Y-41751250D03*
D18*
X180975000Y-34131250D03*
D17*
X161925000Y-41751250D03*
D18*
X161925000Y-34131250D03*
D17*
X142875000Y-41751250D03*
D18*
X142875000Y-34131250D03*
D17*
X123825000Y-41751250D03*
D18*
X123825000Y-34131250D03*
D17*
X104775000Y-41751250D03*
D18*
X104775000Y-34131250D03*
D17*
X79851250Y-66675000D03*
D18*
X72231250Y-66675000D03*
D17*
X60801250Y-47625000D03*
D18*
X53181250Y-47625000D03*
D17*
X47625000Y-41751250D03*
D18*
X47625000Y-34131250D03*
D19*
X40767000Y-66675000D03*
X33147000Y-66675000D03*
X38227000Y-66675000D03*
X35687000Y-66675000D03*
M02*
