G04 #@! TF.GenerationSoftware,KiCad,Pcbnew,(5.0.0)*
G04 #@! TF.CreationDate,2018-11-27T00:40:26-08:00*
G04 #@! TF.ProjectId,Contra,436F6E7472612E6B696361645F706362,rev?*
G04 #@! TF.SameCoordinates,Original*
G04 #@! TF.FileFunction,Legend,Bot*
G04 #@! TF.FilePolarity,Positive*
%FSLAX46Y46*%
G04 Gerber Fmt 4.6, Leading zero omitted, Abs format (unit mm)*
G04 Created by KiCad (PCBNEW (5.0.0)) date 11/27/18 00:40:26*
%MOMM*%
%LPD*%
G01*
G04 APERTURE LIST*
%ADD10C,0.200000*%
%ADD11C,0.150000*%
%ADD12C,0.300000*%
%ADD13C,0.010000*%
%ADD14C,2.150000*%
%ADD15C,2.650000*%
%ADD16C,4.387800*%
%ADD17C,2.650000*%
%ADD18C,2.432000*%
%ADD19C,3.448000*%
%ADD20C,4.800000*%
%ADD21C,1.100000*%
%ADD22R,2.000000X2.000000*%
%ADD23O,2.000000X2.000000*%
%ADD24O,2.100000X2.100000*%
%ADD25R,2.100000X2.100000*%
G04 APERTURE END LIST*
D10*
X81715857Y-43368380D02*
X81715857Y-42368380D01*
X81334904Y-42368380D01*
X81239666Y-42416000D01*
X81192047Y-42463619D01*
X81144428Y-42558857D01*
X81144428Y-42701714D01*
X81192047Y-42796952D01*
X81239666Y-42844571D01*
X81334904Y-42892190D01*
X81715857Y-42892190D01*
X80715857Y-43368380D02*
X80715857Y-42701714D01*
X80715857Y-42892190D02*
X80668238Y-42796952D01*
X80620619Y-42749333D01*
X80525380Y-42701714D01*
X80430142Y-42701714D01*
X79953952Y-43368380D02*
X80049190Y-43320761D01*
X80096809Y-43273142D01*
X80144428Y-43177904D01*
X80144428Y-42892190D01*
X80096809Y-42796952D01*
X80049190Y-42749333D01*
X79953952Y-42701714D01*
X79811095Y-42701714D01*
X79715857Y-42749333D01*
X79668238Y-42796952D01*
X79620619Y-42892190D01*
X79620619Y-43177904D01*
X79668238Y-43273142D01*
X79715857Y-43320761D01*
X79811095Y-43368380D01*
X79953952Y-43368380D01*
X78430142Y-43368380D02*
X78430142Y-42368380D01*
X78096809Y-43082666D01*
X77763476Y-42368380D01*
X77763476Y-43368380D01*
X77287285Y-43368380D02*
X77287285Y-42701714D01*
X77287285Y-42368380D02*
X77334904Y-42416000D01*
X77287285Y-42463619D01*
X77239666Y-42416000D01*
X77287285Y-42368380D01*
X77287285Y-42463619D01*
X76382523Y-43320761D02*
X76477761Y-43368380D01*
X76668238Y-43368380D01*
X76763476Y-43320761D01*
X76811095Y-43273142D01*
X76858714Y-43177904D01*
X76858714Y-42892190D01*
X76811095Y-42796952D01*
X76763476Y-42749333D01*
X76668238Y-42701714D01*
X76477761Y-42701714D01*
X76382523Y-42749333D01*
X75953952Y-43368380D02*
X75953952Y-42701714D01*
X75953952Y-42892190D02*
X75906333Y-42796952D01*
X75858714Y-42749333D01*
X75763476Y-42701714D01*
X75668238Y-42701714D01*
X75192047Y-43368380D02*
X75287285Y-43320761D01*
X75334904Y-43273142D01*
X75382523Y-43177904D01*
X75382523Y-42892190D01*
X75334904Y-42796952D01*
X75287285Y-42749333D01*
X75192047Y-42701714D01*
X75049190Y-42701714D01*
X74953952Y-42749333D01*
X74906333Y-42796952D01*
X74858714Y-42892190D01*
X74858714Y-43177904D01*
X74906333Y-43273142D01*
X74953952Y-43320761D01*
X75049190Y-43368380D01*
X75192047Y-43368380D01*
X73668238Y-43368380D02*
X73668238Y-42368380D01*
X73239666Y-43368380D02*
X73239666Y-42844571D01*
X73287285Y-42749333D01*
X73382523Y-42701714D01*
X73525380Y-42701714D01*
X73620619Y-42749333D01*
X73668238Y-42796952D01*
X72382523Y-43320761D02*
X72477761Y-43368380D01*
X72668238Y-43368380D01*
X72763476Y-43320761D01*
X72811095Y-43225523D01*
X72811095Y-42844571D01*
X72763476Y-42749333D01*
X72668238Y-42701714D01*
X72477761Y-42701714D01*
X72382523Y-42749333D01*
X72334904Y-42844571D01*
X72334904Y-42939809D01*
X72811095Y-43035047D01*
X71906333Y-43368380D02*
X71906333Y-42701714D01*
X71906333Y-42892190D02*
X71858714Y-42796952D01*
X71811095Y-42749333D01*
X71715857Y-42701714D01*
X71620619Y-42701714D01*
X70906333Y-43320761D02*
X71001571Y-43368380D01*
X71192047Y-43368380D01*
X71287285Y-43320761D01*
X71334904Y-43225523D01*
X71334904Y-42844571D01*
X71287285Y-42749333D01*
X71192047Y-42701714D01*
X71001571Y-42701714D01*
X70906333Y-42749333D01*
X70858714Y-42844571D01*
X70858714Y-42939809D01*
X71334904Y-43035047D01*
X70430142Y-43273142D02*
X70382523Y-43320761D01*
X70430142Y-43368380D01*
X70477761Y-43320761D01*
X70430142Y-43273142D01*
X70430142Y-43368380D01*
X70430142Y-42987428D02*
X70477761Y-42416000D01*
X70430142Y-42368380D01*
X70382523Y-42416000D01*
X70430142Y-42987428D01*
X70430142Y-42368380D01*
X81311095Y-44973142D02*
X81358714Y-45020761D01*
X81501571Y-45068380D01*
X81596809Y-45068380D01*
X81739666Y-45020761D01*
X81834904Y-44925523D01*
X81882523Y-44830285D01*
X81930142Y-44639809D01*
X81930142Y-44496952D01*
X81882523Y-44306476D01*
X81834904Y-44211238D01*
X81739666Y-44116000D01*
X81596809Y-44068380D01*
X81501571Y-44068380D01*
X81358714Y-44116000D01*
X81311095Y-44163619D01*
X80739666Y-45068380D02*
X80834904Y-45020761D01*
X80882523Y-44973142D01*
X80930142Y-44877904D01*
X80930142Y-44592190D01*
X80882523Y-44496952D01*
X80834904Y-44449333D01*
X80739666Y-44401714D01*
X80596809Y-44401714D01*
X80501571Y-44449333D01*
X80453952Y-44496952D01*
X80406333Y-44592190D01*
X80406333Y-44877904D01*
X80453952Y-44973142D01*
X80501571Y-45020761D01*
X80596809Y-45068380D01*
X80739666Y-45068380D01*
X79977761Y-45068380D02*
X79977761Y-44401714D01*
X79977761Y-44496952D02*
X79930142Y-44449333D01*
X79834904Y-44401714D01*
X79692047Y-44401714D01*
X79596809Y-44449333D01*
X79549190Y-44544571D01*
X79549190Y-45068380D01*
X79549190Y-44544571D02*
X79501571Y-44449333D01*
X79406333Y-44401714D01*
X79263476Y-44401714D01*
X79168238Y-44449333D01*
X79120619Y-44544571D01*
X79120619Y-45068380D01*
X78644428Y-44401714D02*
X78644428Y-45401714D01*
X78644428Y-44449333D02*
X78549190Y-44401714D01*
X78358714Y-44401714D01*
X78263476Y-44449333D01*
X78215857Y-44496952D01*
X78168238Y-44592190D01*
X78168238Y-44877904D01*
X78215857Y-44973142D01*
X78263476Y-45020761D01*
X78358714Y-45068380D01*
X78549190Y-45068380D01*
X78644428Y-45020761D01*
X77596809Y-45068380D02*
X77692047Y-45020761D01*
X77739666Y-44973142D01*
X77787285Y-44877904D01*
X77787285Y-44592190D01*
X77739666Y-44496952D01*
X77692047Y-44449333D01*
X77596809Y-44401714D01*
X77453952Y-44401714D01*
X77358714Y-44449333D01*
X77311095Y-44496952D01*
X77263476Y-44592190D01*
X77263476Y-44877904D01*
X77311095Y-44973142D01*
X77358714Y-45020761D01*
X77453952Y-45068380D01*
X77596809Y-45068380D01*
X76834904Y-44401714D02*
X76834904Y-45068380D01*
X76834904Y-44496952D02*
X76787285Y-44449333D01*
X76692047Y-44401714D01*
X76549190Y-44401714D01*
X76453952Y-44449333D01*
X76406333Y-44544571D01*
X76406333Y-45068380D01*
X75549190Y-45020761D02*
X75644428Y-45068380D01*
X75834904Y-45068380D01*
X75930142Y-45020761D01*
X75977761Y-44925523D01*
X75977761Y-44544571D01*
X75930142Y-44449333D01*
X75834904Y-44401714D01*
X75644428Y-44401714D01*
X75549190Y-44449333D01*
X75501571Y-44544571D01*
X75501571Y-44639809D01*
X75977761Y-44735047D01*
X75073000Y-44401714D02*
X75073000Y-45068380D01*
X75073000Y-44496952D02*
X75025380Y-44449333D01*
X74930142Y-44401714D01*
X74787285Y-44401714D01*
X74692047Y-44449333D01*
X74644428Y-44544571D01*
X74644428Y-45068380D01*
X74311095Y-44401714D02*
X73930142Y-44401714D01*
X74168238Y-44068380D02*
X74168238Y-44925523D01*
X74120619Y-45020761D01*
X74025380Y-45068380D01*
X73930142Y-45068380D01*
X72882523Y-45020761D02*
X72787285Y-45068380D01*
X72596809Y-45068380D01*
X72501571Y-45020761D01*
X72453952Y-44925523D01*
X72453952Y-44877904D01*
X72501571Y-44782666D01*
X72596809Y-44735047D01*
X72739666Y-44735047D01*
X72834904Y-44687428D01*
X72882523Y-44592190D01*
X72882523Y-44544571D01*
X72834904Y-44449333D01*
X72739666Y-44401714D01*
X72596809Y-44401714D01*
X72501571Y-44449333D01*
X72025380Y-45068380D02*
X72025380Y-44401714D01*
X72025380Y-44068380D02*
X72073000Y-44116000D01*
X72025380Y-44163619D01*
X71977761Y-44116000D01*
X72025380Y-44068380D01*
X72025380Y-44163619D01*
X71120619Y-45068380D02*
X71120619Y-44068380D01*
X71120619Y-45020761D02*
X71215857Y-45068380D01*
X71406333Y-45068380D01*
X71501571Y-45020761D01*
X71549190Y-44973142D01*
X71596809Y-44877904D01*
X71596809Y-44592190D01*
X71549190Y-44496952D01*
X71501571Y-44449333D01*
X71406333Y-44401714D01*
X71215857Y-44401714D01*
X71120619Y-44449333D01*
X70263476Y-45020761D02*
X70358714Y-45068380D01*
X70549190Y-45068380D01*
X70644428Y-45020761D01*
X70692047Y-44925523D01*
X70692047Y-44544571D01*
X70644428Y-44449333D01*
X70549190Y-44401714D01*
X70358714Y-44401714D01*
X70263476Y-44449333D01*
X70215857Y-44544571D01*
X70215857Y-44639809D01*
X70692047Y-44735047D01*
X82263476Y-46101714D02*
X81882523Y-46101714D01*
X82120619Y-46768380D02*
X82120619Y-45911238D01*
X82073000Y-45816000D01*
X81977761Y-45768380D01*
X81882523Y-45768380D01*
X81120619Y-46768380D02*
X81120619Y-46244571D01*
X81168238Y-46149333D01*
X81263476Y-46101714D01*
X81453952Y-46101714D01*
X81549190Y-46149333D01*
X81120619Y-46720761D02*
X81215857Y-46768380D01*
X81453952Y-46768380D01*
X81549190Y-46720761D01*
X81596809Y-46625523D01*
X81596809Y-46530285D01*
X81549190Y-46435047D01*
X81453952Y-46387428D01*
X81215857Y-46387428D01*
X81120619Y-46339809D01*
X80215857Y-46720761D02*
X80311095Y-46768380D01*
X80501571Y-46768380D01*
X80596809Y-46720761D01*
X80644428Y-46673142D01*
X80692047Y-46577904D01*
X80692047Y-46292190D01*
X80644428Y-46196952D01*
X80596809Y-46149333D01*
X80501571Y-46101714D01*
X80311095Y-46101714D01*
X80215857Y-46149333D01*
X79406333Y-46720761D02*
X79501571Y-46768380D01*
X79692047Y-46768380D01*
X79787285Y-46720761D01*
X79834904Y-46625523D01*
X79834904Y-46244571D01*
X79787285Y-46149333D01*
X79692047Y-46101714D01*
X79501571Y-46101714D01*
X79406333Y-46149333D01*
X79358714Y-46244571D01*
X79358714Y-46339809D01*
X79834904Y-46435047D01*
X78977761Y-46720761D02*
X78882523Y-46768380D01*
X78692047Y-46768380D01*
X78596809Y-46720761D01*
X78549190Y-46625523D01*
X78549190Y-46577904D01*
X78596809Y-46482666D01*
X78692047Y-46435047D01*
X78834904Y-46435047D01*
X78930142Y-46387428D01*
X78977761Y-46292190D01*
X78977761Y-46244571D01*
X78930142Y-46149333D01*
X78834904Y-46101714D01*
X78692047Y-46101714D01*
X78596809Y-46149333D01*
X76930142Y-46768380D02*
X76930142Y-46244571D01*
X76977761Y-46149333D01*
X77073000Y-46101714D01*
X77263476Y-46101714D01*
X77358714Y-46149333D01*
X76930142Y-46720761D02*
X77025380Y-46768380D01*
X77263476Y-46768380D01*
X77358714Y-46720761D01*
X77406333Y-46625523D01*
X77406333Y-46530285D01*
X77358714Y-46435047D01*
X77263476Y-46387428D01*
X77025380Y-46387428D01*
X76930142Y-46339809D01*
X76549190Y-46101714D02*
X76358714Y-46768380D01*
X76168238Y-46292190D01*
X75977761Y-46768380D01*
X75787285Y-46101714D01*
X74977761Y-46768380D02*
X74977761Y-46244571D01*
X75025380Y-46149333D01*
X75120619Y-46101714D01*
X75311095Y-46101714D01*
X75406333Y-46149333D01*
X74977761Y-46720761D02*
X75073000Y-46768380D01*
X75311095Y-46768380D01*
X75406333Y-46720761D01*
X75453952Y-46625523D01*
X75453952Y-46530285D01*
X75406333Y-46435047D01*
X75311095Y-46387428D01*
X75073000Y-46387428D01*
X74977761Y-46339809D01*
X74596809Y-46101714D02*
X74358714Y-46768380D01*
X74120619Y-46101714D02*
X74358714Y-46768380D01*
X74453952Y-47006476D01*
X74501571Y-47054095D01*
X74596809Y-47101714D01*
X73120619Y-46101714D02*
X72739666Y-46101714D01*
X72977761Y-46768380D02*
X72977761Y-45911238D01*
X72930142Y-45816000D01*
X72834904Y-45768380D01*
X72739666Y-45768380D01*
X72406333Y-46768380D02*
X72406333Y-46101714D01*
X72406333Y-46292190D02*
X72358714Y-46196952D01*
X72311095Y-46149333D01*
X72215857Y-46101714D01*
X72120619Y-46101714D01*
X71644428Y-46768380D02*
X71739666Y-46720761D01*
X71787285Y-46673142D01*
X71834904Y-46577904D01*
X71834904Y-46292190D01*
X71787285Y-46196952D01*
X71739666Y-46149333D01*
X71644428Y-46101714D01*
X71501571Y-46101714D01*
X71406333Y-46149333D01*
X71358714Y-46196952D01*
X71311095Y-46292190D01*
X71311095Y-46577904D01*
X71358714Y-46673142D01*
X71406333Y-46720761D01*
X71501571Y-46768380D01*
X71644428Y-46768380D01*
X70882523Y-46768380D02*
X70882523Y-46101714D01*
X70882523Y-46196952D02*
X70834904Y-46149333D01*
X70739666Y-46101714D01*
X70596809Y-46101714D01*
X70501571Y-46149333D01*
X70453952Y-46244571D01*
X70453952Y-46768380D01*
X70453952Y-46244571D02*
X70406333Y-46149333D01*
X70311095Y-46101714D01*
X70168238Y-46101714D01*
X70073000Y-46149333D01*
X70025380Y-46244571D01*
X70025380Y-46768380D01*
X79263476Y-47801714D02*
X78882523Y-47801714D01*
X79120619Y-47468380D02*
X79120619Y-48325523D01*
X79073000Y-48420761D01*
X78977761Y-48468380D01*
X78882523Y-48468380D01*
X78549190Y-48468380D02*
X78549190Y-47468380D01*
X78120619Y-48468380D02*
X78120619Y-47944571D01*
X78168238Y-47849333D01*
X78263476Y-47801714D01*
X78406333Y-47801714D01*
X78501571Y-47849333D01*
X78549190Y-47896952D01*
X77263476Y-48420761D02*
X77358714Y-48468380D01*
X77549190Y-48468380D01*
X77644428Y-48420761D01*
X77692047Y-48325523D01*
X77692047Y-47944571D01*
X77644428Y-47849333D01*
X77549190Y-47801714D01*
X77358714Y-47801714D01*
X77263476Y-47849333D01*
X77215857Y-47944571D01*
X77215857Y-48039809D01*
X77692047Y-48135047D01*
X76025380Y-48468380D02*
X76025380Y-47468380D01*
X75644428Y-47468380D01*
X75549190Y-47516000D01*
X75501571Y-47563619D01*
X75453952Y-47658857D01*
X75453952Y-47801714D01*
X75501571Y-47896952D01*
X75549190Y-47944571D01*
X75644428Y-47992190D01*
X76025380Y-47992190D01*
X74453952Y-48373142D02*
X74501571Y-48420761D01*
X74644428Y-48468380D01*
X74739666Y-48468380D01*
X74882523Y-48420761D01*
X74977761Y-48325523D01*
X75025380Y-48230285D01*
X75073000Y-48039809D01*
X75073000Y-47896952D01*
X75025380Y-47706476D01*
X74977761Y-47611238D01*
X74882523Y-47516000D01*
X74739666Y-47468380D01*
X74644428Y-47468380D01*
X74501571Y-47516000D01*
X74453952Y-47563619D01*
X73692047Y-47944571D02*
X73549190Y-47992190D01*
X73501571Y-48039809D01*
X73453952Y-48135047D01*
X73453952Y-48277904D01*
X73501571Y-48373142D01*
X73549190Y-48420761D01*
X73644428Y-48468380D01*
X74025380Y-48468380D01*
X74025380Y-47468380D01*
X73692047Y-47468380D01*
X73596809Y-47516000D01*
X73549190Y-47563619D01*
X73501571Y-47658857D01*
X73501571Y-47754095D01*
X73549190Y-47849333D01*
X73596809Y-47896952D01*
X73692047Y-47944571D01*
X74025380Y-47944571D01*
X73025380Y-48373142D02*
X72977761Y-48420761D01*
X73025380Y-48468380D01*
X73073000Y-48420761D01*
X73025380Y-48373142D01*
X73025380Y-48468380D01*
D11*
G04 #@! TO.C,U1*
X86360000Y-30003750D02*
X86360000Y-32543750D01*
X83820000Y-30003750D02*
X86360000Y-30003750D01*
X86360000Y-63023750D02*
X83820000Y-63023750D01*
X86360000Y-60483750D02*
X86360000Y-63023750D01*
X66040000Y-63023750D02*
X66040000Y-60483750D01*
X68580000Y-63023750D02*
X66040000Y-63023750D01*
X66040000Y-30003750D02*
X66040000Y-32543750D01*
X68580000Y-30003750D02*
X66040000Y-30003750D01*
G04 #@! TO.C,D1*
X46609000Y-39211250D02*
X48641000Y-39211250D01*
X47625000Y-39973250D02*
X47625000Y-40735250D01*
X47625000Y-35909250D02*
X47625000Y-35147250D01*
X48641000Y-35909250D02*
X46609000Y-35909250D01*
X48641000Y-39973250D02*
X48641000Y-35909250D01*
X46609000Y-39973250D02*
X48641000Y-39973250D01*
X46609000Y-35909250D02*
X46609000Y-39973250D01*
G04 #@! TO.C,D2*
X54959250Y-48641000D02*
X59023250Y-48641000D01*
X59023250Y-48641000D02*
X59023250Y-46609000D01*
X59023250Y-46609000D02*
X54959250Y-46609000D01*
X54959250Y-46609000D02*
X54959250Y-48641000D01*
X54959250Y-47625000D02*
X54197250Y-47625000D01*
X59023250Y-47625000D02*
X59785250Y-47625000D01*
X58261250Y-48641000D02*
X58261250Y-46609000D01*
G04 #@! TO.C,D3*
X74009250Y-67691000D02*
X78073250Y-67691000D01*
X78073250Y-67691000D02*
X78073250Y-65659000D01*
X78073250Y-65659000D02*
X74009250Y-65659000D01*
X74009250Y-65659000D02*
X74009250Y-67691000D01*
X74009250Y-66675000D02*
X73247250Y-66675000D01*
X78073250Y-66675000D02*
X78835250Y-66675000D01*
X77311250Y-67691000D02*
X77311250Y-65659000D01*
G04 #@! TO.C,D4*
X103759000Y-39211250D02*
X105791000Y-39211250D01*
X104775000Y-39973250D02*
X104775000Y-40735250D01*
X104775000Y-35909250D02*
X104775000Y-35147250D01*
X105791000Y-35909250D02*
X103759000Y-35909250D01*
X105791000Y-39973250D02*
X105791000Y-35909250D01*
X103759000Y-39973250D02*
X105791000Y-39973250D01*
X103759000Y-35909250D02*
X103759000Y-39973250D01*
G04 #@! TO.C,D5*
X122809000Y-39211250D02*
X124841000Y-39211250D01*
X123825000Y-39973250D02*
X123825000Y-40735250D01*
X123825000Y-35909250D02*
X123825000Y-35147250D01*
X124841000Y-35909250D02*
X122809000Y-35909250D01*
X124841000Y-39973250D02*
X124841000Y-35909250D01*
X122809000Y-39973250D02*
X124841000Y-39973250D01*
X122809000Y-35909250D02*
X122809000Y-39973250D01*
G04 #@! TO.C,D6*
X141859000Y-35909250D02*
X141859000Y-39973250D01*
X141859000Y-39973250D02*
X143891000Y-39973250D01*
X143891000Y-39973250D02*
X143891000Y-35909250D01*
X143891000Y-35909250D02*
X141859000Y-35909250D01*
X142875000Y-35909250D02*
X142875000Y-35147250D01*
X142875000Y-39973250D02*
X142875000Y-40735250D01*
X141859000Y-39211250D02*
X143891000Y-39211250D01*
G04 #@! TO.C,D7*
X160909000Y-35909250D02*
X160909000Y-39973250D01*
X160909000Y-39973250D02*
X162941000Y-39973250D01*
X162941000Y-39973250D02*
X162941000Y-35909250D01*
X162941000Y-35909250D02*
X160909000Y-35909250D01*
X161925000Y-35909250D02*
X161925000Y-35147250D01*
X161925000Y-39973250D02*
X161925000Y-40735250D01*
X160909000Y-39211250D02*
X162941000Y-39211250D01*
G04 #@! TO.C,D8*
X179959000Y-35909250D02*
X179959000Y-39973250D01*
X179959000Y-39973250D02*
X181991000Y-39973250D01*
X181991000Y-39973250D02*
X181991000Y-35909250D01*
X181991000Y-35909250D02*
X179959000Y-35909250D01*
X180975000Y-35909250D02*
X180975000Y-35147250D01*
X180975000Y-39973250D02*
X180975000Y-40735250D01*
X179959000Y-39211250D02*
X181991000Y-39211250D01*
G04 #@! TO.C,D9*
X199009000Y-35909250D02*
X199009000Y-39973250D01*
X199009000Y-39973250D02*
X201041000Y-39973250D01*
X201041000Y-39973250D02*
X201041000Y-35909250D01*
X201041000Y-35909250D02*
X199009000Y-35909250D01*
X200025000Y-35909250D02*
X200025000Y-35147250D01*
X200025000Y-39973250D02*
X200025000Y-40735250D01*
X199009000Y-39211250D02*
X201041000Y-39211250D01*
G04 #@! TO.C,D10*
X218059000Y-39211250D02*
X220091000Y-39211250D01*
X219075000Y-39973250D02*
X219075000Y-40735250D01*
X219075000Y-35909250D02*
X219075000Y-35147250D01*
X220091000Y-35909250D02*
X218059000Y-35909250D01*
X220091000Y-39973250D02*
X220091000Y-35909250D01*
X218059000Y-39973250D02*
X220091000Y-39973250D01*
X218059000Y-35909250D02*
X218059000Y-39973250D01*
G04 #@! TO.C,D11*
X237109000Y-39211250D02*
X239141000Y-39211250D01*
X238125000Y-39973250D02*
X238125000Y-40735250D01*
X238125000Y-35909250D02*
X238125000Y-35147250D01*
X239141000Y-35909250D02*
X237109000Y-35909250D01*
X239141000Y-39973250D02*
X239141000Y-35909250D01*
X237109000Y-39973250D02*
X239141000Y-39973250D01*
X237109000Y-35909250D02*
X237109000Y-39973250D01*
G04 #@! TO.C,D12*
X248761250Y-48641000D02*
X248761250Y-46609000D01*
X249523250Y-47625000D02*
X250285250Y-47625000D01*
X245459250Y-47625000D02*
X244697250Y-47625000D01*
X245459250Y-46609000D02*
X245459250Y-48641000D01*
X249523250Y-46609000D02*
X245459250Y-46609000D01*
X249523250Y-48641000D02*
X249523250Y-46609000D01*
X245459250Y-48641000D02*
X249523250Y-48641000D01*
G04 #@! TO.C,D13*
X39528750Y-48641000D02*
X39528750Y-46609000D01*
X40290750Y-47625000D02*
X41052750Y-47625000D01*
X36226750Y-47625000D02*
X35464750Y-47625000D01*
X36226750Y-46609000D02*
X36226750Y-48641000D01*
X40290750Y-46609000D02*
X36226750Y-46609000D01*
X40290750Y-48641000D02*
X40290750Y-46609000D01*
X36226750Y-48641000D02*
X40290750Y-48641000D01*
G04 #@! TO.C,D14*
X58261250Y-67691000D02*
X58261250Y-65659000D01*
X59023250Y-66675000D02*
X59785250Y-66675000D01*
X54959250Y-66675000D02*
X54197250Y-66675000D01*
X54959250Y-65659000D02*
X54959250Y-67691000D01*
X59023250Y-65659000D02*
X54959250Y-65659000D01*
X59023250Y-67691000D02*
X59023250Y-65659000D01*
X54959250Y-67691000D02*
X59023250Y-67691000D01*
G04 #@! TO.C,D15*
X93059250Y-67691000D02*
X97123250Y-67691000D01*
X97123250Y-67691000D02*
X97123250Y-65659000D01*
X97123250Y-65659000D02*
X93059250Y-65659000D01*
X93059250Y-65659000D02*
X93059250Y-67691000D01*
X93059250Y-66675000D02*
X92297250Y-66675000D01*
X97123250Y-66675000D02*
X97885250Y-66675000D01*
X96361250Y-67691000D02*
X96361250Y-65659000D01*
G04 #@! TO.C,D16*
X103759000Y-58261250D02*
X105791000Y-58261250D01*
X104775000Y-59023250D02*
X104775000Y-59785250D01*
X104775000Y-54959250D02*
X104775000Y-54197250D01*
X105791000Y-54959250D02*
X103759000Y-54959250D01*
X105791000Y-59023250D02*
X105791000Y-54959250D01*
X103759000Y-59023250D02*
X105791000Y-59023250D01*
X103759000Y-54959250D02*
X103759000Y-59023250D01*
G04 #@! TO.C,D17*
X122809000Y-54959250D02*
X122809000Y-59023250D01*
X122809000Y-59023250D02*
X124841000Y-59023250D01*
X124841000Y-59023250D02*
X124841000Y-54959250D01*
X124841000Y-54959250D02*
X122809000Y-54959250D01*
X123825000Y-54959250D02*
X123825000Y-54197250D01*
X123825000Y-59023250D02*
X123825000Y-59785250D01*
X122809000Y-58261250D02*
X124841000Y-58261250D01*
G04 #@! TO.C,D18*
X141859000Y-58261250D02*
X143891000Y-58261250D01*
X142875000Y-59023250D02*
X142875000Y-59785250D01*
X142875000Y-54959250D02*
X142875000Y-54197250D01*
X143891000Y-54959250D02*
X141859000Y-54959250D01*
X143891000Y-59023250D02*
X143891000Y-54959250D01*
X141859000Y-59023250D02*
X143891000Y-59023250D01*
X141859000Y-54959250D02*
X141859000Y-59023250D01*
G04 #@! TO.C,D19*
X160909000Y-58261250D02*
X162941000Y-58261250D01*
X161925000Y-59023250D02*
X161925000Y-59785250D01*
X161925000Y-54959250D02*
X161925000Y-54197250D01*
X162941000Y-54959250D02*
X160909000Y-54959250D01*
X162941000Y-59023250D02*
X162941000Y-54959250D01*
X160909000Y-59023250D02*
X162941000Y-59023250D01*
X160909000Y-54959250D02*
X160909000Y-59023250D01*
G04 #@! TO.C,D20*
X179959000Y-54959250D02*
X179959000Y-59023250D01*
X179959000Y-59023250D02*
X181991000Y-59023250D01*
X181991000Y-59023250D02*
X181991000Y-54959250D01*
X181991000Y-54959250D02*
X179959000Y-54959250D01*
X180975000Y-54959250D02*
X180975000Y-54197250D01*
X180975000Y-59023250D02*
X180975000Y-59785250D01*
X179959000Y-58261250D02*
X181991000Y-58261250D01*
G04 #@! TO.C,D21*
X199009000Y-54959250D02*
X199009000Y-59023250D01*
X199009000Y-59023250D02*
X201041000Y-59023250D01*
X201041000Y-59023250D02*
X201041000Y-54959250D01*
X201041000Y-54959250D02*
X199009000Y-54959250D01*
X200025000Y-54959250D02*
X200025000Y-54197250D01*
X200025000Y-59023250D02*
X200025000Y-59785250D01*
X199009000Y-58261250D02*
X201041000Y-58261250D01*
G04 #@! TO.C,D22*
X218059000Y-58261250D02*
X220091000Y-58261250D01*
X219075000Y-59023250D02*
X219075000Y-59785250D01*
X219075000Y-54959250D02*
X219075000Y-54197250D01*
X220091000Y-54959250D02*
X218059000Y-54959250D01*
X220091000Y-59023250D02*
X220091000Y-54959250D01*
X218059000Y-59023250D02*
X220091000Y-59023250D01*
X218059000Y-54959250D02*
X218059000Y-59023250D01*
G04 #@! TO.C,D23*
X237109000Y-58261250D02*
X239141000Y-58261250D01*
X238125000Y-59023250D02*
X238125000Y-59785250D01*
X238125000Y-54959250D02*
X238125000Y-54197250D01*
X239141000Y-54959250D02*
X237109000Y-54959250D01*
X239141000Y-59023250D02*
X239141000Y-54959250D01*
X237109000Y-59023250D02*
X239141000Y-59023250D01*
X237109000Y-54959250D02*
X237109000Y-59023250D01*
G04 #@! TO.C,D24*
X245459250Y-67691000D02*
X249523250Y-67691000D01*
X249523250Y-67691000D02*
X249523250Y-65659000D01*
X249523250Y-65659000D02*
X245459250Y-65659000D01*
X245459250Y-65659000D02*
X245459250Y-67691000D01*
X245459250Y-66675000D02*
X244697250Y-66675000D01*
X249523250Y-66675000D02*
X250285250Y-66675000D01*
X248761250Y-67691000D02*
X248761250Y-65659000D01*
G04 #@! TO.C,D25*
X55276750Y-86741000D02*
X59340750Y-86741000D01*
X59340750Y-86741000D02*
X59340750Y-84709000D01*
X59340750Y-84709000D02*
X55276750Y-84709000D01*
X55276750Y-84709000D02*
X55276750Y-86741000D01*
X55276750Y-85725000D02*
X54514750Y-85725000D01*
X59340750Y-85725000D02*
X60102750Y-85725000D01*
X58578750Y-86741000D02*
X58578750Y-84709000D01*
G04 #@! TO.C,D26*
X65659000Y-77311250D02*
X67691000Y-77311250D01*
X66675000Y-78073250D02*
X66675000Y-78835250D01*
X66675000Y-74009250D02*
X66675000Y-73247250D01*
X67691000Y-74009250D02*
X65659000Y-74009250D01*
X67691000Y-78073250D02*
X67691000Y-74009250D01*
X65659000Y-78073250D02*
X67691000Y-78073250D01*
X65659000Y-74009250D02*
X65659000Y-78073250D01*
G04 #@! TO.C,D27*
X84709000Y-74009250D02*
X84709000Y-78073250D01*
X84709000Y-78073250D02*
X86741000Y-78073250D01*
X86741000Y-78073250D02*
X86741000Y-74009250D01*
X86741000Y-74009250D02*
X84709000Y-74009250D01*
X85725000Y-74009250D02*
X85725000Y-73247250D01*
X85725000Y-78073250D02*
X85725000Y-78835250D01*
X84709000Y-77311250D02*
X86741000Y-77311250D01*
G04 #@! TO.C,D28*
X103759000Y-74009250D02*
X103759000Y-78073250D01*
X103759000Y-78073250D02*
X105791000Y-78073250D01*
X105791000Y-78073250D02*
X105791000Y-74009250D01*
X105791000Y-74009250D02*
X103759000Y-74009250D01*
X104775000Y-74009250D02*
X104775000Y-73247250D01*
X104775000Y-78073250D02*
X104775000Y-78835250D01*
X103759000Y-77311250D02*
X105791000Y-77311250D01*
G04 #@! TO.C,D29*
X122809000Y-77311250D02*
X124841000Y-77311250D01*
X123825000Y-78073250D02*
X123825000Y-78835250D01*
X123825000Y-74009250D02*
X123825000Y-73247250D01*
X124841000Y-74009250D02*
X122809000Y-74009250D01*
X124841000Y-78073250D02*
X124841000Y-74009250D01*
X122809000Y-78073250D02*
X124841000Y-78073250D01*
X122809000Y-74009250D02*
X122809000Y-78073250D01*
G04 #@! TO.C,D30*
X141859000Y-77311250D02*
X143891000Y-77311250D01*
X142875000Y-78073250D02*
X142875000Y-78835250D01*
X142875000Y-74009250D02*
X142875000Y-73247250D01*
X143891000Y-74009250D02*
X141859000Y-74009250D01*
X143891000Y-78073250D02*
X143891000Y-74009250D01*
X141859000Y-78073250D02*
X143891000Y-78073250D01*
X141859000Y-74009250D02*
X141859000Y-78073250D01*
G04 #@! TO.C,D31*
X160909000Y-74009250D02*
X160909000Y-78073250D01*
X160909000Y-78073250D02*
X162941000Y-78073250D01*
X162941000Y-78073250D02*
X162941000Y-74009250D01*
X162941000Y-74009250D02*
X160909000Y-74009250D01*
X161925000Y-74009250D02*
X161925000Y-73247250D01*
X161925000Y-78073250D02*
X161925000Y-78835250D01*
X160909000Y-77311250D02*
X162941000Y-77311250D01*
G04 #@! TO.C,D32*
X179959000Y-74009250D02*
X179959000Y-78073250D01*
X179959000Y-78073250D02*
X181991000Y-78073250D01*
X181991000Y-78073250D02*
X181991000Y-74009250D01*
X181991000Y-74009250D02*
X179959000Y-74009250D01*
X180975000Y-74009250D02*
X180975000Y-73247250D01*
X180975000Y-78073250D02*
X180975000Y-78835250D01*
X179959000Y-77311250D02*
X181991000Y-77311250D01*
G04 #@! TO.C,D33*
X199009000Y-77311250D02*
X201041000Y-77311250D01*
X200025000Y-78073250D02*
X200025000Y-78835250D01*
X200025000Y-74009250D02*
X200025000Y-73247250D01*
X201041000Y-74009250D02*
X199009000Y-74009250D01*
X201041000Y-78073250D02*
X201041000Y-74009250D01*
X199009000Y-78073250D02*
X201041000Y-78073250D01*
X199009000Y-74009250D02*
X199009000Y-78073250D01*
G04 #@! TO.C,D34*
X218059000Y-77311250D02*
X220091000Y-77311250D01*
X219075000Y-78073250D02*
X219075000Y-78835250D01*
X219075000Y-74009250D02*
X219075000Y-73247250D01*
X220091000Y-74009250D02*
X218059000Y-74009250D01*
X220091000Y-78073250D02*
X220091000Y-74009250D01*
X218059000Y-78073250D02*
X220091000Y-78073250D01*
X218059000Y-74009250D02*
X218059000Y-78073250D01*
G04 #@! TO.C,D35*
X226409250Y-86741000D02*
X230473250Y-86741000D01*
X230473250Y-86741000D02*
X230473250Y-84709000D01*
X230473250Y-84709000D02*
X226409250Y-84709000D01*
X226409250Y-84709000D02*
X226409250Y-86741000D01*
X226409250Y-85725000D02*
X225647250Y-85725000D01*
X230473250Y-85725000D02*
X231235250Y-85725000D01*
X229711250Y-86741000D02*
X229711250Y-84709000D01*
G04 #@! TO.C,D36*
X237109000Y-77311250D02*
X239141000Y-77311250D01*
X238125000Y-78073250D02*
X238125000Y-78835250D01*
X238125000Y-74009250D02*
X238125000Y-73247250D01*
X239141000Y-74009250D02*
X237109000Y-74009250D01*
X239141000Y-78073250D02*
X239141000Y-74009250D01*
X237109000Y-78073250D02*
X239141000Y-78073250D01*
X237109000Y-74009250D02*
X237109000Y-78073250D01*
G04 #@! TO.C,D37*
X35909250Y-86741000D02*
X39973250Y-86741000D01*
X39973250Y-86741000D02*
X39973250Y-84709000D01*
X39973250Y-84709000D02*
X35909250Y-84709000D01*
X35909250Y-84709000D02*
X35909250Y-86741000D01*
X35909250Y-85725000D02*
X35147250Y-85725000D01*
X39973250Y-85725000D02*
X40735250Y-85725000D01*
X39211250Y-86741000D02*
X39211250Y-84709000D01*
G04 #@! TO.C,D38*
X46609000Y-96361250D02*
X48641000Y-96361250D01*
X47625000Y-97123250D02*
X47625000Y-97885250D01*
X47625000Y-93059250D02*
X47625000Y-92297250D01*
X48641000Y-93059250D02*
X46609000Y-93059250D01*
X48641000Y-97123250D02*
X48641000Y-93059250D01*
X46609000Y-97123250D02*
X48641000Y-97123250D01*
X46609000Y-93059250D02*
X46609000Y-97123250D01*
G04 #@! TO.C,D39*
X65659000Y-93059250D02*
X65659000Y-97123250D01*
X65659000Y-97123250D02*
X67691000Y-97123250D01*
X67691000Y-97123250D02*
X67691000Y-93059250D01*
X67691000Y-93059250D02*
X65659000Y-93059250D01*
X66675000Y-93059250D02*
X66675000Y-92297250D01*
X66675000Y-97123250D02*
X66675000Y-97885250D01*
X65659000Y-96361250D02*
X67691000Y-96361250D01*
G04 #@! TO.C,D40*
X84709000Y-93059250D02*
X84709000Y-97123250D01*
X84709000Y-97123250D02*
X86741000Y-97123250D01*
X86741000Y-97123250D02*
X86741000Y-93059250D01*
X86741000Y-93059250D02*
X84709000Y-93059250D01*
X85725000Y-93059250D02*
X85725000Y-92297250D01*
X85725000Y-97123250D02*
X85725000Y-97885250D01*
X84709000Y-96361250D02*
X86741000Y-96361250D01*
G04 #@! TO.C,D41*
X103759000Y-96361250D02*
X105791000Y-96361250D01*
X104775000Y-97123250D02*
X104775000Y-97885250D01*
X104775000Y-93059250D02*
X104775000Y-92297250D01*
X105791000Y-93059250D02*
X103759000Y-93059250D01*
X105791000Y-97123250D02*
X105791000Y-93059250D01*
X103759000Y-97123250D02*
X105791000Y-97123250D01*
X103759000Y-93059250D02*
X103759000Y-97123250D01*
G04 #@! TO.C,D42*
X122809000Y-93059250D02*
X122809000Y-97123250D01*
X122809000Y-97123250D02*
X124841000Y-97123250D01*
X124841000Y-97123250D02*
X124841000Y-93059250D01*
X124841000Y-93059250D02*
X122809000Y-93059250D01*
X123825000Y-93059250D02*
X123825000Y-92297250D01*
X123825000Y-97123250D02*
X123825000Y-97885250D01*
X122809000Y-96361250D02*
X124841000Y-96361250D01*
G04 #@! TO.C,D43*
X160909000Y-96361250D02*
X162941000Y-96361250D01*
X161925000Y-97123250D02*
X161925000Y-97885250D01*
X161925000Y-93059250D02*
X161925000Y-92297250D01*
X162941000Y-93059250D02*
X160909000Y-93059250D01*
X162941000Y-97123250D02*
X162941000Y-93059250D01*
X160909000Y-97123250D02*
X162941000Y-97123250D01*
X160909000Y-93059250D02*
X160909000Y-97123250D01*
G04 #@! TO.C,D44*
X179959000Y-93059250D02*
X179959000Y-97123250D01*
X179959000Y-97123250D02*
X181991000Y-97123250D01*
X181991000Y-97123250D02*
X181991000Y-93059250D01*
X181991000Y-93059250D02*
X179959000Y-93059250D01*
X180975000Y-93059250D02*
X180975000Y-92297250D01*
X180975000Y-97123250D02*
X180975000Y-97885250D01*
X179959000Y-96361250D02*
X181991000Y-96361250D01*
G04 #@! TO.C,D45*
X199009000Y-93059250D02*
X199009000Y-97123250D01*
X199009000Y-97123250D02*
X201041000Y-97123250D01*
X201041000Y-97123250D02*
X201041000Y-93059250D01*
X201041000Y-93059250D02*
X199009000Y-93059250D01*
X200025000Y-93059250D02*
X200025000Y-92297250D01*
X200025000Y-97123250D02*
X200025000Y-97885250D01*
X199009000Y-96361250D02*
X201041000Y-96361250D01*
G04 #@! TO.C,D46*
X218059000Y-93059250D02*
X218059000Y-97123250D01*
X218059000Y-97123250D02*
X220091000Y-97123250D01*
X220091000Y-97123250D02*
X220091000Y-93059250D01*
X220091000Y-93059250D02*
X218059000Y-93059250D01*
X219075000Y-93059250D02*
X219075000Y-92297250D01*
X219075000Y-97123250D02*
X219075000Y-97885250D01*
X218059000Y-96361250D02*
X220091000Y-96361250D01*
G04 #@! TO.C,D47*
X237109000Y-96361250D02*
X239141000Y-96361250D01*
X238125000Y-97123250D02*
X238125000Y-97885250D01*
X238125000Y-93059250D02*
X238125000Y-92297250D01*
X239141000Y-93059250D02*
X237109000Y-93059250D01*
X239141000Y-97123250D02*
X239141000Y-93059250D01*
X237109000Y-97123250D02*
X239141000Y-97123250D01*
X237109000Y-93059250D02*
X237109000Y-97123250D01*
G04 #@! TO.C,D48*
X248761250Y-86741000D02*
X248761250Y-84709000D01*
X249523250Y-85725000D02*
X250285250Y-85725000D01*
X245459250Y-85725000D02*
X244697250Y-85725000D01*
X245459250Y-84709000D02*
X245459250Y-86741000D01*
X249523250Y-84709000D02*
X245459250Y-84709000D01*
X249523250Y-86741000D02*
X249523250Y-84709000D01*
X245459250Y-86741000D02*
X249523250Y-86741000D01*
G04 #@! TO.C,SW1*
X49421051Y-66675000D02*
G75*
G03X49421051Y-66675000I-1796051J0D01*
G01*
X44625000Y-69675000D02*
X50625000Y-69675000D01*
X44625000Y-63675000D02*
X44625000Y-69675000D01*
X50625000Y-63675000D02*
X44625000Y-63675000D01*
X50625000Y-69675000D02*
X50625000Y-63675000D01*
G04 #@! TD*
%LPC*%
D12*
X222501785Y-65623214D02*
X222573214Y-65694642D01*
X222787500Y-65766071D01*
X222930357Y-65766071D01*
X223144642Y-65694642D01*
X223287500Y-65551785D01*
X223358928Y-65408928D01*
X223430357Y-65123214D01*
X223430357Y-64908928D01*
X223358928Y-64623214D01*
X223287500Y-64480357D01*
X223144642Y-64337500D01*
X222930357Y-64266071D01*
X222787500Y-64266071D01*
X222573214Y-64337500D01*
X222501785Y-64408928D01*
X221644642Y-65766071D02*
X221787500Y-65694642D01*
X221858928Y-65623214D01*
X221930357Y-65480357D01*
X221930357Y-65051785D01*
X221858928Y-64908928D01*
X221787500Y-64837500D01*
X221644642Y-64766071D01*
X221430357Y-64766071D01*
X221287500Y-64837500D01*
X221216071Y-64908928D01*
X221144642Y-65051785D01*
X221144642Y-65480357D01*
X221216071Y-65623214D01*
X221287500Y-65694642D01*
X221430357Y-65766071D01*
X221644642Y-65766071D01*
X220501785Y-64766071D02*
X220501785Y-65766071D01*
X220501785Y-64908928D02*
X220430357Y-64837500D01*
X220287500Y-64766071D01*
X220073214Y-64766071D01*
X219930357Y-64837500D01*
X219858928Y-64980357D01*
X219858928Y-65766071D01*
X219358928Y-64766071D02*
X218787500Y-64766071D01*
X219144642Y-64266071D02*
X219144642Y-65551785D01*
X219073214Y-65694642D01*
X218930357Y-65766071D01*
X218787500Y-65766071D01*
X218287500Y-65766071D02*
X218287500Y-64766071D01*
X218287500Y-65051785D02*
X218216071Y-64908928D01*
X218144642Y-64837500D01*
X218001785Y-64766071D01*
X217858928Y-64766071D01*
X216716071Y-65766071D02*
X216716071Y-64980357D01*
X216787500Y-64837500D01*
X216930357Y-64766071D01*
X217216071Y-64766071D01*
X217358928Y-64837500D01*
X216716071Y-65694642D02*
X216858928Y-65766071D01*
X217216071Y-65766071D01*
X217358928Y-65694642D01*
X217430357Y-65551785D01*
X217430357Y-65408928D01*
X217358928Y-65266071D01*
X217216071Y-65194642D01*
X216858928Y-65194642D01*
X216716071Y-65123214D01*
X214858928Y-65766071D02*
X214858928Y-64266071D01*
X214287500Y-64266071D01*
X214144642Y-64337500D01*
X214073214Y-64408928D01*
X214001785Y-64551785D01*
X214001785Y-64766071D01*
X214073214Y-64908928D01*
X214144642Y-64980357D01*
X214287500Y-65051785D01*
X214858928Y-65051785D01*
X212501785Y-65623214D02*
X212573214Y-65694642D01*
X212787500Y-65766071D01*
X212930357Y-65766071D01*
X213144642Y-65694642D01*
X213287500Y-65551785D01*
X213358928Y-65408928D01*
X213430357Y-65123214D01*
X213430357Y-64908928D01*
X213358928Y-64623214D01*
X213287500Y-64480357D01*
X213144642Y-64337500D01*
X212930357Y-64266071D01*
X212787500Y-64266071D01*
X212573214Y-64337500D01*
X212501785Y-64408928D01*
X211358928Y-64980357D02*
X211144642Y-65051785D01*
X211073214Y-65123214D01*
X211001785Y-65266071D01*
X211001785Y-65480357D01*
X211073214Y-65623214D01*
X211144642Y-65694642D01*
X211287500Y-65766071D01*
X211858928Y-65766071D01*
X211858928Y-64266071D01*
X211358928Y-64266071D01*
X211216071Y-64337500D01*
X211144642Y-64408928D01*
X211073214Y-64551785D01*
X211073214Y-64694642D01*
X211144642Y-64837500D01*
X211216071Y-64908928D01*
X211358928Y-64980357D01*
X211858928Y-64980357D01*
X209216071Y-65766071D02*
X209216071Y-64266071D01*
X209216071Y-64837500D02*
X209073214Y-64766071D01*
X208787500Y-64766071D01*
X208644642Y-64837500D01*
X208573214Y-64908928D01*
X208501785Y-65051785D01*
X208501785Y-65480357D01*
X208573214Y-65623214D01*
X208644642Y-65694642D01*
X208787500Y-65766071D01*
X209073214Y-65766071D01*
X209216071Y-65694642D01*
X208001785Y-64766071D02*
X207644642Y-65766071D01*
X207287500Y-64766071D02*
X207644642Y-65766071D01*
X207787500Y-66123214D01*
X207858928Y-66194642D01*
X208001785Y-66266071D01*
X204930357Y-65766071D02*
X204930357Y-64980357D01*
X205001785Y-64837500D01*
X205144642Y-64766071D01*
X205430357Y-64766071D01*
X205573214Y-64837500D01*
X204930357Y-65694642D02*
X205073214Y-65766071D01*
X205430357Y-65766071D01*
X205573214Y-65694642D01*
X205644642Y-65551785D01*
X205644642Y-65408928D01*
X205573214Y-65266071D01*
X205430357Y-65194642D01*
X205073214Y-65194642D01*
X204930357Y-65123214D01*
X204216071Y-65766071D02*
X204216071Y-64766071D01*
X204216071Y-64266071D02*
X204287500Y-64337500D01*
X204216071Y-64408928D01*
X204144642Y-64337500D01*
X204216071Y-64266071D01*
X204216071Y-64408928D01*
X203216071Y-64266071D02*
X203073214Y-64266071D01*
X202930357Y-64337500D01*
X202858928Y-64408928D01*
X202787500Y-64551785D01*
X202716071Y-64837500D01*
X202716071Y-65194642D01*
X202787500Y-65480357D01*
X202858928Y-65623214D01*
X202930357Y-65694642D01*
X203073214Y-65766071D01*
X203216071Y-65766071D01*
X203358928Y-65694642D01*
X203430357Y-65623214D01*
X203501785Y-65480357D01*
X203573214Y-65194642D01*
X203573214Y-64837500D01*
X203501785Y-64551785D01*
X203430357Y-64408928D01*
X203358928Y-64337500D01*
X203216071Y-64266071D01*
X202216071Y-64266071D02*
X201287500Y-64266071D01*
X201787500Y-64837500D01*
X201573214Y-64837500D01*
X201430357Y-64908928D01*
X201358928Y-64980357D01*
X201287500Y-65123214D01*
X201287500Y-65480357D01*
X201358928Y-65623214D01*
X201430357Y-65694642D01*
X201573214Y-65766071D01*
X202001785Y-65766071D01*
X202144642Y-65694642D01*
X202216071Y-65623214D01*
X198644642Y-65766071D02*
X199144642Y-65051785D01*
X199501785Y-65766071D02*
X199501785Y-64266071D01*
X198930357Y-64266071D01*
X198787500Y-64337500D01*
X198716071Y-64408928D01*
X198644642Y-64551785D01*
X198644642Y-64766071D01*
X198716071Y-64908928D01*
X198787500Y-64980357D01*
X198930357Y-65051785D01*
X199501785Y-65051785D01*
X197430357Y-65694642D02*
X197573214Y-65766071D01*
X197858928Y-65766071D01*
X198001785Y-65694642D01*
X198073214Y-65551785D01*
X198073214Y-64980357D01*
X198001785Y-64837500D01*
X197858928Y-64766071D01*
X197573214Y-64766071D01*
X197430357Y-64837500D01*
X197358928Y-64980357D01*
X197358928Y-65123214D01*
X198073214Y-65266071D01*
X196858928Y-64766071D02*
X196501785Y-65766071D01*
X196144642Y-64766071D01*
X195573214Y-65766071D02*
X195573214Y-64766071D01*
X195573214Y-64266071D02*
X195644642Y-64337500D01*
X195573214Y-64408928D01*
X195501785Y-64337500D01*
X195573214Y-64266071D01*
X195573214Y-64408928D01*
X194930357Y-65694642D02*
X194787500Y-65766071D01*
X194501785Y-65766071D01*
X194358928Y-65694642D01*
X194287500Y-65551785D01*
X194287500Y-65480357D01*
X194358928Y-65337500D01*
X194501785Y-65266071D01*
X194716071Y-65266071D01*
X194858928Y-65194642D01*
X194930357Y-65051785D01*
X194930357Y-64980357D01*
X194858928Y-64837500D01*
X194716071Y-64766071D01*
X194501785Y-64766071D01*
X194358928Y-64837500D01*
X193644642Y-65766071D02*
X193644642Y-64766071D01*
X193644642Y-64266071D02*
X193716071Y-64337500D01*
X193644642Y-64408928D01*
X193573214Y-64337500D01*
X193644642Y-64266071D01*
X193644642Y-64408928D01*
X192716071Y-65766071D02*
X192858928Y-65694642D01*
X192930357Y-65623214D01*
X193001785Y-65480357D01*
X193001785Y-65051785D01*
X192930357Y-64908928D01*
X192858928Y-64837500D01*
X192716071Y-64766071D01*
X192501785Y-64766071D01*
X192358928Y-64837500D01*
X192287500Y-64908928D01*
X192216071Y-65051785D01*
X192216071Y-65480357D01*
X192287500Y-65623214D01*
X192358928Y-65694642D01*
X192501785Y-65766071D01*
X192716071Y-65766071D01*
X191573214Y-64766071D02*
X191573214Y-65766071D01*
X191573214Y-64908928D02*
X191501785Y-64837500D01*
X191358928Y-64766071D01*
X191144642Y-64766071D01*
X191001785Y-64837500D01*
X190930357Y-64980357D01*
X190930357Y-65766071D01*
X189144642Y-64408928D02*
X189073214Y-64337500D01*
X188930357Y-64266071D01*
X188573214Y-64266071D01*
X188430357Y-64337500D01*
X188358928Y-64408928D01*
X188287500Y-64551785D01*
X188287500Y-64694642D01*
X188358928Y-64908928D01*
X189216071Y-65766071D01*
X188287500Y-65766071D01*
X187644642Y-65623214D02*
X187573214Y-65694642D01*
X187644642Y-65766071D01*
X187716071Y-65694642D01*
X187644642Y-65623214D01*
X187644642Y-65766071D01*
X186644642Y-64266071D02*
X186501785Y-64266071D01*
X186358928Y-64337500D01*
X186287500Y-64408928D01*
X186216071Y-64551785D01*
X186144642Y-64837500D01*
X186144642Y-65194642D01*
X186216071Y-65480357D01*
X186287500Y-65623214D01*
X186358928Y-65694642D01*
X186501785Y-65766071D01*
X186644642Y-65766071D01*
X186787500Y-65694642D01*
X186858928Y-65623214D01*
X186930357Y-65480357D01*
X187001785Y-65194642D01*
X187001785Y-64837500D01*
X186930357Y-64551785D01*
X186858928Y-64408928D01*
X186787500Y-64337500D01*
X186644642Y-64266071D01*
D13*
G04 #@! TO.C,G\002A\002A\002A*
G36*
X228409500Y-64008000D02*
X228814312Y-64008000D01*
X228814312Y-63603188D01*
X228409500Y-63603188D01*
X228409500Y-64008000D01*
X228409500Y-64008000D01*
G37*
X228409500Y-64008000D02*
X228814312Y-64008000D01*
X228814312Y-63603188D01*
X228409500Y-63603188D01*
X228409500Y-64008000D01*
G36*
X228004687Y-64793813D02*
X228409500Y-64793813D01*
X228409500Y-64412813D01*
X228004687Y-64412813D01*
X228004687Y-64793813D01*
X228004687Y-64793813D01*
G37*
X228004687Y-64793813D02*
X228409500Y-64793813D01*
X228409500Y-64412813D01*
X228004687Y-64412813D01*
X228004687Y-64793813D01*
G36*
X228814312Y-64793813D02*
X229195312Y-64793813D01*
X229195312Y-64412813D01*
X228814312Y-64412813D01*
X228814312Y-64793813D01*
X228814312Y-64793813D01*
G37*
X228814312Y-64793813D02*
X229195312Y-64793813D01*
X229195312Y-64412813D01*
X228814312Y-64412813D01*
X228814312Y-64793813D01*
G36*
X227623687Y-65603438D02*
X228004687Y-65603438D01*
X228004687Y-65198625D01*
X227623687Y-65198625D01*
X227623687Y-65603438D01*
X227623687Y-65603438D01*
G37*
X227623687Y-65603438D02*
X228004687Y-65603438D01*
X228004687Y-65198625D01*
X227623687Y-65198625D01*
X227623687Y-65603438D01*
G36*
X228409500Y-65603438D02*
X228814312Y-65603438D01*
X228814312Y-65198625D01*
X228409500Y-65198625D01*
X228409500Y-65603438D01*
X228409500Y-65603438D01*
G37*
X228409500Y-65603438D02*
X228814312Y-65603438D01*
X228814312Y-65198625D01*
X228409500Y-65198625D01*
X228409500Y-65603438D01*
G36*
X229195312Y-65603438D02*
X229600125Y-65603438D01*
X229600125Y-65198625D01*
X229195312Y-65198625D01*
X229195312Y-65603438D01*
X229195312Y-65603438D01*
G37*
X229195312Y-65603438D02*
X229600125Y-65603438D01*
X229600125Y-65198625D01*
X229195312Y-65198625D01*
X229195312Y-65603438D01*
G36*
X227218875Y-66389250D02*
X227623687Y-66389250D01*
X227623687Y-65984438D01*
X227218875Y-65984438D01*
X227218875Y-66389250D01*
X227218875Y-66389250D01*
G37*
X227218875Y-66389250D02*
X227623687Y-66389250D01*
X227623687Y-65984438D01*
X227218875Y-65984438D01*
X227218875Y-66389250D01*
G36*
X229600125Y-66389250D02*
X230004937Y-66389250D01*
X230004937Y-65984438D01*
X229600125Y-65984438D01*
X229600125Y-66389250D01*
X229600125Y-66389250D01*
G37*
X229600125Y-66389250D02*
X230004937Y-66389250D01*
X230004937Y-65984438D01*
X229600125Y-65984438D01*
X229600125Y-66389250D01*
G36*
X228596031Y-62115545D02*
X228471913Y-62116915D01*
X228360201Y-62121072D01*
X228257608Y-62128419D01*
X228160844Y-62139360D01*
X228066622Y-62154298D01*
X227971653Y-62173637D01*
X227872649Y-62197781D01*
X227827370Y-62209918D01*
X227618823Y-62275156D01*
X227416735Y-62354492D01*
X227221872Y-62447528D01*
X227035001Y-62553868D01*
X226856886Y-62673116D01*
X226704740Y-62791117D01*
X226547072Y-62931842D01*
X226399735Y-63083287D01*
X226263414Y-63244385D01*
X226138792Y-63414067D01*
X226026553Y-63591266D01*
X225927380Y-63774916D01*
X225841958Y-63963947D01*
X225770970Y-64157293D01*
X225722216Y-64325303D01*
X225689145Y-64465289D01*
X225663785Y-64597225D01*
X225645393Y-64726497D01*
X225633225Y-64858493D01*
X225626539Y-64998600D01*
X225625886Y-65024000D01*
X225628605Y-65242297D01*
X225646800Y-65457080D01*
X225680465Y-65668321D01*
X225729594Y-65875989D01*
X225794181Y-66080055D01*
X225858378Y-66243987D01*
X225886461Y-66309252D01*
X225910523Y-66363410D01*
X225932392Y-66410113D01*
X225953893Y-66453013D01*
X225976854Y-66495763D01*
X226003100Y-66542015D01*
X226032225Y-66591656D01*
X226151444Y-66777927D01*
X226281548Y-66952653D01*
X226422671Y-67115965D01*
X226574945Y-67267996D01*
X226738503Y-67408880D01*
X226913476Y-67538748D01*
X227095844Y-67655275D01*
X227148673Y-67686244D01*
X227194586Y-67712221D01*
X227237235Y-67735031D01*
X227280272Y-67756501D01*
X227327349Y-67778457D01*
X227382119Y-67802725D01*
X227443513Y-67829122D01*
X227539746Y-67868669D01*
X227628464Y-67901708D01*
X227715578Y-67930195D01*
X227807002Y-67956089D01*
X227889594Y-67976822D01*
X228054110Y-68012376D01*
X228211205Y-68038053D01*
X228365433Y-68054393D01*
X228521351Y-68061936D01*
X228611906Y-68062513D01*
X228663125Y-68061998D01*
X228711246Y-68061293D01*
X228753126Y-68060460D01*
X228785622Y-68059563D01*
X228805590Y-68058665D01*
X228806375Y-68058609D01*
X229022549Y-68034657D01*
X229235306Y-67995670D01*
X229443787Y-67941967D01*
X229647132Y-67873863D01*
X229844484Y-67791676D01*
X230034982Y-67695725D01*
X230217768Y-67586326D01*
X230368724Y-67481296D01*
X230541651Y-67342949D01*
X230702335Y-67194588D01*
X230850549Y-67036539D01*
X230986071Y-66869132D01*
X231108676Y-66692694D01*
X231218139Y-66507552D01*
X231314237Y-66314035D01*
X231396744Y-66112471D01*
X231465437Y-65903188D01*
X231477582Y-65860130D01*
X231503948Y-65758335D01*
X231525333Y-65662011D01*
X231542141Y-65567867D01*
X231554775Y-65472617D01*
X231563640Y-65372970D01*
X231569138Y-65265640D01*
X231571674Y-65147336D01*
X231571955Y-65091469D01*
X231571280Y-65036108D01*
X231039206Y-65036108D01*
X231039103Y-65116246D01*
X231037437Y-65195910D01*
X231034241Y-65271037D01*
X231029544Y-65337560D01*
X231025824Y-65373250D01*
X230993950Y-65570548D01*
X230947299Y-65762163D01*
X230886049Y-65947722D01*
X230810381Y-66126849D01*
X230720473Y-66299169D01*
X230616506Y-66464309D01*
X230498659Y-66621893D01*
X230367112Y-66771547D01*
X230344776Y-66794760D01*
X230210542Y-66921834D01*
X230064840Y-67039770D01*
X229910369Y-67146590D01*
X229749831Y-67240316D01*
X229704042Y-67264004D01*
X229629634Y-67300653D01*
X229564393Y-67330872D01*
X229503896Y-67356440D01*
X229443722Y-67379134D01*
X229379449Y-67400733D01*
X229314375Y-67420727D01*
X229125162Y-67470140D01*
X228939411Y-67504591D01*
X228755673Y-67524214D01*
X228572497Y-67529142D01*
X228388436Y-67519511D01*
X228321894Y-67512531D01*
X228134562Y-67483587D01*
X227954981Y-67441778D01*
X227780643Y-67386354D01*
X227609041Y-67316564D01*
X227512084Y-67270366D01*
X227341452Y-67176947D01*
X227182036Y-67073212D01*
X227033078Y-66958474D01*
X226893821Y-66832050D01*
X226763506Y-66693254D01*
X226641376Y-66541403D01*
X226533108Y-66385759D01*
X226507982Y-66344568D01*
X226478659Y-66292440D01*
X226446959Y-66232996D01*
X226414701Y-66169856D01*
X226383707Y-66106640D01*
X226355794Y-66046967D01*
X226332785Y-65994457D01*
X226319347Y-65960625D01*
X226256480Y-65769084D01*
X226209084Y-65576345D01*
X226177200Y-65382950D01*
X226160870Y-65189440D01*
X226160132Y-64996357D01*
X226175028Y-64804242D01*
X226205598Y-64613636D01*
X226215401Y-64567594D01*
X226249050Y-64431301D01*
X226287358Y-64305118D01*
X226332296Y-64183507D01*
X226385837Y-64060932D01*
X226423496Y-63983458D01*
X226517201Y-63814610D01*
X226624026Y-63654173D01*
X226743202Y-63502868D01*
X226873963Y-63361414D01*
X227015540Y-63230531D01*
X227167166Y-63110940D01*
X227328073Y-63003360D01*
X227497493Y-62908511D01*
X227641675Y-62840980D01*
X227813303Y-62774585D01*
X227985857Y-62722587D01*
X228161344Y-62684578D01*
X228341774Y-62660151D01*
X228529155Y-62648897D01*
X228592062Y-62648007D01*
X228790157Y-62654377D01*
X228981785Y-62675022D01*
X229167719Y-62710173D01*
X229348735Y-62760067D01*
X229525606Y-62824935D01*
X229699106Y-62905013D01*
X229870009Y-63000535D01*
X229970706Y-63064744D01*
X230110139Y-63166272D01*
X230244337Y-63280778D01*
X230371659Y-63406339D01*
X230490465Y-63541031D01*
X230599114Y-63682931D01*
X230695965Y-63830115D01*
X230779378Y-63980661D01*
X230814174Y-64053580D01*
X230875577Y-64198439D01*
X230925808Y-64337678D01*
X230966065Y-64475626D01*
X230997544Y-64616614D01*
X231021444Y-64764971D01*
X231029845Y-64833500D01*
X231034608Y-64890670D01*
X231037718Y-64959561D01*
X231039206Y-65036108D01*
X231571280Y-65036108D01*
X231570210Y-64948473D01*
X231564336Y-64817606D01*
X231553762Y-64695525D01*
X231537915Y-64578885D01*
X231516223Y-64464344D01*
X231488113Y-64348559D01*
X231453014Y-64228187D01*
X231410353Y-64099884D01*
X231394659Y-64055625D01*
X231316274Y-63860906D01*
X231223434Y-63672572D01*
X231116328Y-63490885D01*
X230995148Y-63316108D01*
X230860083Y-63148503D01*
X230711326Y-62988333D01*
X230549067Y-62835860D01*
X230442229Y-62745679D01*
X230356400Y-62680186D01*
X230258861Y-62612860D01*
X230153252Y-62545912D01*
X230043214Y-62481555D01*
X229932387Y-62422000D01*
X229824411Y-62369458D01*
X229818406Y-62366715D01*
X229748446Y-62336842D01*
X229667265Y-62305456D01*
X229579233Y-62274036D01*
X229488721Y-62244062D01*
X229400099Y-62217011D01*
X229317736Y-62194364D01*
X229285850Y-62186471D01*
X229192625Y-62165703D01*
X229103651Y-62149043D01*
X229015647Y-62136152D01*
X228925331Y-62126695D01*
X228829422Y-62120332D01*
X228724640Y-62116728D01*
X228607705Y-62115544D01*
X228596031Y-62115545D01*
X228596031Y-62115545D01*
G37*
X228596031Y-62115545D02*
X228471913Y-62116915D01*
X228360201Y-62121072D01*
X228257608Y-62128419D01*
X228160844Y-62139360D01*
X228066622Y-62154298D01*
X227971653Y-62173637D01*
X227872649Y-62197781D01*
X227827370Y-62209918D01*
X227618823Y-62275156D01*
X227416735Y-62354492D01*
X227221872Y-62447528D01*
X227035001Y-62553868D01*
X226856886Y-62673116D01*
X226704740Y-62791117D01*
X226547072Y-62931842D01*
X226399735Y-63083287D01*
X226263414Y-63244385D01*
X226138792Y-63414067D01*
X226026553Y-63591266D01*
X225927380Y-63774916D01*
X225841958Y-63963947D01*
X225770970Y-64157293D01*
X225722216Y-64325303D01*
X225689145Y-64465289D01*
X225663785Y-64597225D01*
X225645393Y-64726497D01*
X225633225Y-64858493D01*
X225626539Y-64998600D01*
X225625886Y-65024000D01*
X225628605Y-65242297D01*
X225646800Y-65457080D01*
X225680465Y-65668321D01*
X225729594Y-65875989D01*
X225794181Y-66080055D01*
X225858378Y-66243987D01*
X225886461Y-66309252D01*
X225910523Y-66363410D01*
X225932392Y-66410113D01*
X225953893Y-66453013D01*
X225976854Y-66495763D01*
X226003100Y-66542015D01*
X226032225Y-66591656D01*
X226151444Y-66777927D01*
X226281548Y-66952653D01*
X226422671Y-67115965D01*
X226574945Y-67267996D01*
X226738503Y-67408880D01*
X226913476Y-67538748D01*
X227095844Y-67655275D01*
X227148673Y-67686244D01*
X227194586Y-67712221D01*
X227237235Y-67735031D01*
X227280272Y-67756501D01*
X227327349Y-67778457D01*
X227382119Y-67802725D01*
X227443513Y-67829122D01*
X227539746Y-67868669D01*
X227628464Y-67901708D01*
X227715578Y-67930195D01*
X227807002Y-67956089D01*
X227889594Y-67976822D01*
X228054110Y-68012376D01*
X228211205Y-68038053D01*
X228365433Y-68054393D01*
X228521351Y-68061936D01*
X228611906Y-68062513D01*
X228663125Y-68061998D01*
X228711246Y-68061293D01*
X228753126Y-68060460D01*
X228785622Y-68059563D01*
X228805590Y-68058665D01*
X228806375Y-68058609D01*
X229022549Y-68034657D01*
X229235306Y-67995670D01*
X229443787Y-67941967D01*
X229647132Y-67873863D01*
X229844484Y-67791676D01*
X230034982Y-67695725D01*
X230217768Y-67586326D01*
X230368724Y-67481296D01*
X230541651Y-67342949D01*
X230702335Y-67194588D01*
X230850549Y-67036539D01*
X230986071Y-66869132D01*
X231108676Y-66692694D01*
X231218139Y-66507552D01*
X231314237Y-66314035D01*
X231396744Y-66112471D01*
X231465437Y-65903188D01*
X231477582Y-65860130D01*
X231503948Y-65758335D01*
X231525333Y-65662011D01*
X231542141Y-65567867D01*
X231554775Y-65472617D01*
X231563640Y-65372970D01*
X231569138Y-65265640D01*
X231571674Y-65147336D01*
X231571955Y-65091469D01*
X231571280Y-65036108D01*
X231039206Y-65036108D01*
X231039103Y-65116246D01*
X231037437Y-65195910D01*
X231034241Y-65271037D01*
X231029544Y-65337560D01*
X231025824Y-65373250D01*
X230993950Y-65570548D01*
X230947299Y-65762163D01*
X230886049Y-65947722D01*
X230810381Y-66126849D01*
X230720473Y-66299169D01*
X230616506Y-66464309D01*
X230498659Y-66621893D01*
X230367112Y-66771547D01*
X230344776Y-66794760D01*
X230210542Y-66921834D01*
X230064840Y-67039770D01*
X229910369Y-67146590D01*
X229749831Y-67240316D01*
X229704042Y-67264004D01*
X229629634Y-67300653D01*
X229564393Y-67330872D01*
X229503896Y-67356440D01*
X229443722Y-67379134D01*
X229379449Y-67400733D01*
X229314375Y-67420727D01*
X229125162Y-67470140D01*
X228939411Y-67504591D01*
X228755673Y-67524214D01*
X228572497Y-67529142D01*
X228388436Y-67519511D01*
X228321894Y-67512531D01*
X228134562Y-67483587D01*
X227954981Y-67441778D01*
X227780643Y-67386354D01*
X227609041Y-67316564D01*
X227512084Y-67270366D01*
X227341452Y-67176947D01*
X227182036Y-67073212D01*
X227033078Y-66958474D01*
X226893821Y-66832050D01*
X226763506Y-66693254D01*
X226641376Y-66541403D01*
X226533108Y-66385759D01*
X226507982Y-66344568D01*
X226478659Y-66292440D01*
X226446959Y-66232996D01*
X226414701Y-66169856D01*
X226383707Y-66106640D01*
X226355794Y-66046967D01*
X226332785Y-65994457D01*
X226319347Y-65960625D01*
X226256480Y-65769084D01*
X226209084Y-65576345D01*
X226177200Y-65382950D01*
X226160870Y-65189440D01*
X226160132Y-64996357D01*
X226175028Y-64804242D01*
X226205598Y-64613636D01*
X226215401Y-64567594D01*
X226249050Y-64431301D01*
X226287358Y-64305118D01*
X226332296Y-64183507D01*
X226385837Y-64060932D01*
X226423496Y-63983458D01*
X226517201Y-63814610D01*
X226624026Y-63654173D01*
X226743202Y-63502868D01*
X226873963Y-63361414D01*
X227015540Y-63230531D01*
X227167166Y-63110940D01*
X227328073Y-63003360D01*
X227497493Y-62908511D01*
X227641675Y-62840980D01*
X227813303Y-62774585D01*
X227985857Y-62722587D01*
X228161344Y-62684578D01*
X228341774Y-62660151D01*
X228529155Y-62648897D01*
X228592062Y-62648007D01*
X228790157Y-62654377D01*
X228981785Y-62675022D01*
X229167719Y-62710173D01*
X229348735Y-62760067D01*
X229525606Y-62824935D01*
X229699106Y-62905013D01*
X229870009Y-63000535D01*
X229970706Y-63064744D01*
X230110139Y-63166272D01*
X230244337Y-63280778D01*
X230371659Y-63406339D01*
X230490465Y-63541031D01*
X230599114Y-63682931D01*
X230695965Y-63830115D01*
X230779378Y-63980661D01*
X230814174Y-64053580D01*
X230875577Y-64198439D01*
X230925808Y-64337678D01*
X230966065Y-64475626D01*
X230997544Y-64616614D01*
X231021444Y-64764971D01*
X231029845Y-64833500D01*
X231034608Y-64890670D01*
X231037718Y-64959561D01*
X231039206Y-65036108D01*
X231571280Y-65036108D01*
X231570210Y-64948473D01*
X231564336Y-64817606D01*
X231553762Y-64695525D01*
X231537915Y-64578885D01*
X231516223Y-64464344D01*
X231488113Y-64348559D01*
X231453014Y-64228187D01*
X231410353Y-64099884D01*
X231394659Y-64055625D01*
X231316274Y-63860906D01*
X231223434Y-63672572D01*
X231116328Y-63490885D01*
X230995148Y-63316108D01*
X230860083Y-63148503D01*
X230711326Y-62988333D01*
X230549067Y-62835860D01*
X230442229Y-62745679D01*
X230356400Y-62680186D01*
X230258861Y-62612860D01*
X230153252Y-62545912D01*
X230043214Y-62481555D01*
X229932387Y-62422000D01*
X229824411Y-62369458D01*
X229818406Y-62366715D01*
X229748446Y-62336842D01*
X229667265Y-62305456D01*
X229579233Y-62274036D01*
X229488721Y-62244062D01*
X229400099Y-62217011D01*
X229317736Y-62194364D01*
X229285850Y-62186471D01*
X229192625Y-62165703D01*
X229103651Y-62149043D01*
X229015647Y-62136152D01*
X228925331Y-62126695D01*
X228829422Y-62120332D01*
X228724640Y-62116728D01*
X228607705Y-62115544D01*
X228596031Y-62115545D01*
G04 #@! TD*
D14*
G04 #@! TO.C,MX11*
X233680000Y-38100000D03*
X223520000Y-38100000D03*
D15*
X226100000Y-34100000D03*
D16*
X228600000Y-38100000D03*
D15*
X225445001Y-34830000D03*
D17*
X224790000Y-35560000D02*
X226100002Y-34100000D01*
D15*
X231140000Y-33020000D03*
X231120000Y-33310000D03*
D17*
X231100000Y-33600000D02*
X231140000Y-33020000D01*
G04 #@! TD*
D18*
G04 #@! TO.C,U1*
X68580000Y-60483750D03*
X68580000Y-57943750D03*
X68580000Y-55403750D03*
X68580000Y-52863750D03*
X68580000Y-50323750D03*
X68580000Y-47783750D03*
X68580000Y-45243750D03*
X68580000Y-42703750D03*
X68580000Y-40163750D03*
X68580000Y-37623750D03*
X68580000Y-35083750D03*
X68580000Y-32543750D03*
X83820000Y-60483750D03*
X83820000Y-57943750D03*
X83820000Y-55403750D03*
X83820000Y-52863750D03*
X83820000Y-50323750D03*
X83820000Y-47783750D03*
X83820000Y-45243750D03*
X83820000Y-42703750D03*
X83820000Y-40163750D03*
X83820000Y-37623750D03*
X83820000Y-35083750D03*
X83820000Y-32543750D03*
G04 #@! TD*
D16*
G04 #@! TO.C,MX49*
X154813000Y-86995000D03*
X130937000Y-86995000D03*
D19*
X154813000Y-102235000D03*
X130937000Y-102235000D03*
D14*
X147955000Y-95250000D03*
X137795000Y-95250000D03*
D15*
X140375000Y-91250000D03*
D16*
X142875000Y-95250000D03*
D15*
X139720001Y-91980000D03*
D17*
X139065000Y-92710000D02*
X140375002Y-91250000D01*
D15*
X145415000Y-90170000D03*
X145395000Y-90460000D03*
D17*
X145375000Y-90750000D02*
X145415000Y-90170000D01*
G04 #@! TD*
D14*
G04 #@! TO.C,MX48*
X252730000Y-95250000D03*
X242570000Y-95250000D03*
D15*
X245150000Y-91250000D03*
D16*
X247650000Y-95250000D03*
D15*
X244495001Y-91980000D03*
D17*
X243840000Y-92710000D02*
X245150002Y-91250000D01*
D15*
X250190000Y-90170000D03*
X250170000Y-90460000D03*
D17*
X250150000Y-90750000D02*
X250190000Y-90170000D01*
G04 #@! TD*
D14*
G04 #@! TO.C,MX47*
X233680000Y-95250000D03*
X223520000Y-95250000D03*
D15*
X226100000Y-91250000D03*
D16*
X228600000Y-95250000D03*
D15*
X225445001Y-91980000D03*
D17*
X224790000Y-92710000D02*
X226100002Y-91250000D01*
D15*
X231140000Y-90170000D03*
X231120000Y-90460000D03*
D17*
X231100000Y-90750000D02*
X231140000Y-90170000D01*
G04 #@! TD*
D14*
G04 #@! TO.C,MX46*
X214630000Y-95250000D03*
X204470000Y-95250000D03*
D15*
X207050000Y-91250000D03*
D16*
X209550000Y-95250000D03*
D15*
X206395001Y-91980000D03*
D17*
X205740000Y-92710000D02*
X207050002Y-91250000D01*
D15*
X212090000Y-90170000D03*
X212070000Y-90460000D03*
D17*
X212050000Y-90750000D02*
X212090000Y-90170000D01*
G04 #@! TD*
D14*
G04 #@! TO.C,MX45*
X195580000Y-95250000D03*
X185420000Y-95250000D03*
D15*
X188000000Y-91250000D03*
D16*
X190500000Y-95250000D03*
D15*
X187345001Y-91980000D03*
D17*
X186690000Y-92710000D02*
X188000002Y-91250000D01*
D15*
X193040000Y-90170000D03*
X193020000Y-90460000D03*
D17*
X193000000Y-90750000D02*
X193040000Y-90170000D01*
G04 #@! TD*
D14*
G04 #@! TO.C,MX44*
X176530000Y-95250000D03*
X166370000Y-95250000D03*
D15*
X168950000Y-91250000D03*
D16*
X171450000Y-95250000D03*
D15*
X168295001Y-91980000D03*
D17*
X167640000Y-92710000D02*
X168950002Y-91250000D01*
D15*
X173990000Y-90170000D03*
X173970000Y-90460000D03*
D17*
X173950000Y-90750000D02*
X173990000Y-90170000D01*
G04 #@! TD*
D14*
G04 #@! TO.C,MX43*
X157480000Y-95250000D03*
X147320000Y-95250000D03*
D15*
X149900000Y-91250000D03*
D16*
X152400000Y-95250000D03*
D15*
X149245001Y-91980000D03*
D17*
X148590000Y-92710000D02*
X149900002Y-91250000D01*
D15*
X154940000Y-90170000D03*
X154920000Y-90460000D03*
D17*
X154900000Y-90750000D02*
X154940000Y-90170000D01*
G04 #@! TD*
D14*
G04 #@! TO.C,MX42*
X138430000Y-95250000D03*
X128270000Y-95250000D03*
D15*
X130850000Y-91250000D03*
D16*
X133350000Y-95250000D03*
D15*
X130195001Y-91980000D03*
D17*
X129540000Y-92710000D02*
X130850002Y-91250000D01*
D15*
X135890000Y-90170000D03*
X135870000Y-90460000D03*
D17*
X135850000Y-90750000D02*
X135890000Y-90170000D01*
G04 #@! TD*
D14*
G04 #@! TO.C,MX41*
X119380000Y-95250000D03*
X109220000Y-95250000D03*
D15*
X111800000Y-91250000D03*
D16*
X114300000Y-95250000D03*
D15*
X111145001Y-91980000D03*
D17*
X110490000Y-92710000D02*
X111800002Y-91250000D01*
D15*
X116840000Y-90170000D03*
X116820000Y-90460000D03*
D17*
X116800000Y-90750000D02*
X116840000Y-90170000D01*
G04 #@! TD*
D14*
G04 #@! TO.C,MX40*
X100330000Y-95250000D03*
X90170000Y-95250000D03*
D15*
X92750000Y-91250000D03*
D16*
X95250000Y-95250000D03*
D15*
X92095001Y-91980000D03*
D17*
X91440000Y-92710000D02*
X92750002Y-91250000D01*
D15*
X97790000Y-90170000D03*
X97770000Y-90460000D03*
D17*
X97750000Y-90750000D02*
X97790000Y-90170000D01*
G04 #@! TD*
D14*
G04 #@! TO.C,MX39*
X81280000Y-95250000D03*
X71120000Y-95250000D03*
D15*
X73700000Y-91250000D03*
D16*
X76200000Y-95250000D03*
D15*
X73045001Y-91980000D03*
D17*
X72390000Y-92710000D02*
X73700002Y-91250000D01*
D15*
X78740000Y-90170000D03*
X78720000Y-90460000D03*
D17*
X78700000Y-90750000D02*
X78740000Y-90170000D01*
G04 #@! TD*
D14*
G04 #@! TO.C,MX38*
X62230000Y-95250000D03*
X52070000Y-95250000D03*
D15*
X54650000Y-91250000D03*
D16*
X57150000Y-95250000D03*
D15*
X53995001Y-91980000D03*
D17*
X53340000Y-92710000D02*
X54650002Y-91250000D01*
D15*
X59690000Y-90170000D03*
X59670000Y-90460000D03*
D17*
X59650000Y-90750000D02*
X59690000Y-90170000D01*
G04 #@! TD*
D14*
G04 #@! TO.C,MX37*
X43180000Y-95250000D03*
X33020000Y-95250000D03*
D15*
X35600000Y-91250000D03*
D16*
X38100000Y-95250000D03*
D15*
X34945001Y-91980000D03*
D17*
X34290000Y-92710000D02*
X35600002Y-91250000D01*
D15*
X40640000Y-90170000D03*
X40620000Y-90460000D03*
D17*
X40600000Y-90750000D02*
X40640000Y-90170000D01*
G04 #@! TD*
D14*
G04 #@! TO.C,MX36*
X252730000Y-76200000D03*
X242570000Y-76200000D03*
D15*
X245150000Y-72200000D03*
D16*
X247650000Y-76200000D03*
D15*
X244495001Y-72930000D03*
D17*
X243840000Y-73660000D02*
X245150002Y-72200000D01*
D15*
X250190000Y-71120000D03*
X250170000Y-71410000D03*
D17*
X250150000Y-71700000D02*
X250190000Y-71120000D01*
G04 #@! TD*
D14*
G04 #@! TO.C,MX35*
X233680000Y-76200000D03*
X223520000Y-76200000D03*
D15*
X226100000Y-72200000D03*
D16*
X228600000Y-76200000D03*
D15*
X225445001Y-72930000D03*
D17*
X224790000Y-73660000D02*
X226100002Y-72200000D01*
D15*
X231140000Y-71120000D03*
X231120000Y-71410000D03*
D17*
X231100000Y-71700000D02*
X231140000Y-71120000D01*
G04 #@! TD*
D14*
G04 #@! TO.C,MX34*
X214630000Y-76200000D03*
X204470000Y-76200000D03*
D15*
X207050000Y-72200000D03*
D16*
X209550000Y-76200000D03*
D15*
X206395001Y-72930000D03*
D17*
X205740000Y-73660000D02*
X207050002Y-72200000D01*
D15*
X212090000Y-71120000D03*
X212070000Y-71410000D03*
D17*
X212050000Y-71700000D02*
X212090000Y-71120000D01*
G04 #@! TD*
D14*
G04 #@! TO.C,MX33*
X195580000Y-76200000D03*
X185420000Y-76200000D03*
D15*
X188000000Y-72200000D03*
D16*
X190500000Y-76200000D03*
D15*
X187345001Y-72930000D03*
D17*
X186690000Y-73660000D02*
X188000002Y-72200000D01*
D15*
X193040000Y-71120000D03*
X193020000Y-71410000D03*
D17*
X193000000Y-71700000D02*
X193040000Y-71120000D01*
G04 #@! TD*
D14*
G04 #@! TO.C,MX32*
X176530000Y-76200000D03*
X166370000Y-76200000D03*
D15*
X168950000Y-72200000D03*
D16*
X171450000Y-76200000D03*
D15*
X168295001Y-72930000D03*
D17*
X167640000Y-73660000D02*
X168950002Y-72200000D01*
D15*
X173990000Y-71120000D03*
X173970000Y-71410000D03*
D17*
X173950000Y-71700000D02*
X173990000Y-71120000D01*
G04 #@! TD*
D14*
G04 #@! TO.C,MX31*
X157480000Y-76200000D03*
X147320000Y-76200000D03*
D15*
X149900000Y-72200000D03*
D16*
X152400000Y-76200000D03*
D15*
X149245001Y-72930000D03*
D17*
X148590000Y-73660000D02*
X149900002Y-72200000D01*
D15*
X154940000Y-71120000D03*
X154920000Y-71410000D03*
D17*
X154900000Y-71700000D02*
X154940000Y-71120000D01*
G04 #@! TD*
D14*
G04 #@! TO.C,MX30*
X138430000Y-76200000D03*
X128270000Y-76200000D03*
D15*
X130850000Y-72200000D03*
D16*
X133350000Y-76200000D03*
D15*
X130195001Y-72930000D03*
D17*
X129540000Y-73660000D02*
X130850002Y-72200000D01*
D15*
X135890000Y-71120000D03*
X135870000Y-71410000D03*
D17*
X135850000Y-71700000D02*
X135890000Y-71120000D01*
G04 #@! TD*
D14*
G04 #@! TO.C,MX29*
X119380000Y-76200000D03*
X109220000Y-76200000D03*
D15*
X111800000Y-72200000D03*
D16*
X114300000Y-76200000D03*
D15*
X111145001Y-72930000D03*
D17*
X110490000Y-73660000D02*
X111800002Y-72200000D01*
D15*
X116840000Y-71120000D03*
X116820000Y-71410000D03*
D17*
X116800000Y-71700000D02*
X116840000Y-71120000D01*
G04 #@! TD*
D14*
G04 #@! TO.C,MX28*
X100330000Y-76200000D03*
X90170000Y-76200000D03*
D15*
X92750000Y-72200000D03*
D16*
X95250000Y-76200000D03*
D15*
X92095001Y-72930000D03*
D17*
X91440000Y-73660000D02*
X92750002Y-72200000D01*
D15*
X97790000Y-71120000D03*
X97770000Y-71410000D03*
D17*
X97750000Y-71700000D02*
X97790000Y-71120000D01*
G04 #@! TD*
D14*
G04 #@! TO.C,MX27*
X81280000Y-76200000D03*
X71120000Y-76200000D03*
D15*
X73700000Y-72200000D03*
D16*
X76200000Y-76200000D03*
D15*
X73045001Y-72930000D03*
D17*
X72390000Y-73660000D02*
X73700002Y-72200000D01*
D15*
X78740000Y-71120000D03*
X78720000Y-71410000D03*
D17*
X78700000Y-71700000D02*
X78740000Y-71120000D01*
G04 #@! TD*
D14*
G04 #@! TO.C,MX26*
X62230000Y-76200000D03*
X52070000Y-76200000D03*
D15*
X54650000Y-72200000D03*
D16*
X57150000Y-76200000D03*
D15*
X53995001Y-72930000D03*
D17*
X53340000Y-73660000D02*
X54650002Y-72200000D01*
D15*
X59690000Y-71120000D03*
X59670000Y-71410000D03*
D17*
X59650000Y-71700000D02*
X59690000Y-71120000D01*
G04 #@! TD*
D14*
G04 #@! TO.C,MX25*
X43180000Y-76200000D03*
X33020000Y-76200000D03*
D15*
X35600000Y-72200000D03*
D16*
X38100000Y-76200000D03*
D15*
X34945001Y-72930000D03*
D17*
X34290000Y-73660000D02*
X35600002Y-72200000D01*
D15*
X40640000Y-71120000D03*
X40620000Y-71410000D03*
D17*
X40600000Y-71700000D02*
X40640000Y-71120000D01*
G04 #@! TD*
D14*
G04 #@! TO.C,MX24*
X252730000Y-57150000D03*
X242570000Y-57150000D03*
D15*
X245150000Y-53150000D03*
D16*
X247650000Y-57150000D03*
D15*
X244495001Y-53880000D03*
D17*
X243840000Y-54610000D02*
X245150002Y-53150000D01*
D15*
X250190000Y-52070000D03*
X250170000Y-52360000D03*
D17*
X250150000Y-52650000D02*
X250190000Y-52070000D01*
G04 #@! TD*
D14*
G04 #@! TO.C,MX23*
X233680000Y-57150000D03*
X223520000Y-57150000D03*
D15*
X226100000Y-53150000D03*
D16*
X228600000Y-57150000D03*
D15*
X225445001Y-53880000D03*
D17*
X224790000Y-54610000D02*
X226100002Y-53150000D01*
D15*
X231140000Y-52070000D03*
X231120000Y-52360000D03*
D17*
X231100000Y-52650000D02*
X231140000Y-52070000D01*
G04 #@! TD*
D14*
G04 #@! TO.C,MX22*
X214630000Y-57150000D03*
X204470000Y-57150000D03*
D15*
X207050000Y-53150000D03*
D16*
X209550000Y-57150000D03*
D15*
X206395001Y-53880000D03*
D17*
X205740000Y-54610000D02*
X207050002Y-53150000D01*
D15*
X212090000Y-52070000D03*
X212070000Y-52360000D03*
D17*
X212050000Y-52650000D02*
X212090000Y-52070000D01*
G04 #@! TD*
D14*
G04 #@! TO.C,MX21*
X195580000Y-57150000D03*
X185420000Y-57150000D03*
D15*
X188000000Y-53150000D03*
D16*
X190500000Y-57150000D03*
D15*
X187345001Y-53880000D03*
D17*
X186690000Y-54610000D02*
X188000002Y-53150000D01*
D15*
X193040000Y-52070000D03*
X193020000Y-52360000D03*
D17*
X193000000Y-52650000D02*
X193040000Y-52070000D01*
G04 #@! TD*
D14*
G04 #@! TO.C,MX20*
X176530000Y-57150000D03*
X166370000Y-57150000D03*
D15*
X168950000Y-53150000D03*
D16*
X171450000Y-57150000D03*
D15*
X168295001Y-53880000D03*
D17*
X167640000Y-54610000D02*
X168950002Y-53150000D01*
D15*
X173990000Y-52070000D03*
X173970000Y-52360000D03*
D17*
X173950000Y-52650000D02*
X173990000Y-52070000D01*
G04 #@! TD*
D14*
G04 #@! TO.C,MX19*
X157480000Y-57150000D03*
X147320000Y-57150000D03*
D15*
X149900000Y-53150000D03*
D16*
X152400000Y-57150000D03*
D15*
X149245001Y-53880000D03*
D17*
X148590000Y-54610000D02*
X149900002Y-53150000D01*
D15*
X154940000Y-52070000D03*
X154920000Y-52360000D03*
D17*
X154900000Y-52650000D02*
X154940000Y-52070000D01*
G04 #@! TD*
D14*
G04 #@! TO.C,MX18*
X138430000Y-57150000D03*
X128270000Y-57150000D03*
D15*
X130850000Y-53150000D03*
D16*
X133350000Y-57150000D03*
D15*
X130195001Y-53880000D03*
D17*
X129540000Y-54610000D02*
X130850002Y-53150000D01*
D15*
X135890000Y-52070000D03*
X135870000Y-52360000D03*
D17*
X135850000Y-52650000D02*
X135890000Y-52070000D01*
G04 #@! TD*
D14*
G04 #@! TO.C,MX17*
X119380000Y-57150000D03*
X109220000Y-57150000D03*
D15*
X111800000Y-53150000D03*
D16*
X114300000Y-57150000D03*
D15*
X111145001Y-53880000D03*
D17*
X110490000Y-54610000D02*
X111800002Y-53150000D01*
D15*
X116840000Y-52070000D03*
X116820000Y-52360000D03*
D17*
X116800000Y-52650000D02*
X116840000Y-52070000D01*
G04 #@! TD*
D14*
G04 #@! TO.C,MX16*
X100330000Y-57150000D03*
X90170000Y-57150000D03*
D15*
X92750000Y-53150000D03*
D16*
X95250000Y-57150000D03*
D15*
X92095001Y-53880000D03*
D17*
X91440000Y-54610000D02*
X92750002Y-53150000D01*
D15*
X97790000Y-52070000D03*
X97770000Y-52360000D03*
D17*
X97750000Y-52650000D02*
X97790000Y-52070000D01*
G04 #@! TD*
D14*
G04 #@! TO.C,MX15*
X81280000Y-57150000D03*
X71120000Y-57150000D03*
D15*
X73700000Y-53150000D03*
D16*
X76200000Y-57150000D03*
D15*
X73045001Y-53880000D03*
D17*
X72390000Y-54610000D02*
X73700002Y-53150000D01*
D15*
X78740000Y-52070000D03*
X78720000Y-52360000D03*
D17*
X78700000Y-52650000D02*
X78740000Y-52070000D01*
G04 #@! TD*
D14*
G04 #@! TO.C,MX14*
X62230000Y-57150000D03*
X52070000Y-57150000D03*
D15*
X54650000Y-53150000D03*
D16*
X57150000Y-57150000D03*
D15*
X53995001Y-53880000D03*
D17*
X53340000Y-54610000D02*
X54650002Y-53150000D01*
D15*
X59690000Y-52070000D03*
X59670000Y-52360000D03*
D17*
X59650000Y-52650000D02*
X59690000Y-52070000D01*
G04 #@! TD*
D14*
G04 #@! TO.C,MX13*
X43180000Y-57150000D03*
X33020000Y-57150000D03*
D15*
X35600000Y-53150000D03*
D16*
X38100000Y-57150000D03*
D15*
X34945001Y-53880000D03*
D17*
X34290000Y-54610000D02*
X35600002Y-53150000D01*
D15*
X40640000Y-52070000D03*
X40620000Y-52360000D03*
D17*
X40600000Y-52650000D02*
X40640000Y-52070000D01*
G04 #@! TD*
D14*
G04 #@! TO.C,MX12*
X252730000Y-38100000D03*
X242570000Y-38100000D03*
D15*
X245150000Y-34100000D03*
D16*
X247650000Y-38100000D03*
D15*
X244495001Y-34830000D03*
D17*
X243840000Y-35560000D02*
X245150002Y-34100000D01*
D15*
X250190000Y-33020000D03*
X250170000Y-33310000D03*
D17*
X250150000Y-33600000D02*
X250190000Y-33020000D01*
G04 #@! TD*
D14*
G04 #@! TO.C,MX10*
X214630000Y-38100000D03*
X204470000Y-38100000D03*
D15*
X207050000Y-34100000D03*
D16*
X209550000Y-38100000D03*
D15*
X206395001Y-34830000D03*
D17*
X205740000Y-35560000D02*
X207050002Y-34100000D01*
D15*
X212090000Y-33020000D03*
X212070000Y-33310000D03*
D17*
X212050000Y-33600000D02*
X212090000Y-33020000D01*
G04 #@! TD*
D14*
G04 #@! TO.C,MX9*
X195580000Y-38100000D03*
X185420000Y-38100000D03*
D15*
X188000000Y-34100000D03*
D16*
X190500000Y-38100000D03*
D15*
X187345001Y-34830000D03*
D17*
X186690000Y-35560000D02*
X188000002Y-34100000D01*
D15*
X193040000Y-33020000D03*
X193020000Y-33310000D03*
D17*
X193000000Y-33600000D02*
X193040000Y-33020000D01*
G04 #@! TD*
D14*
G04 #@! TO.C,MX8*
X176530000Y-38100000D03*
X166370000Y-38100000D03*
D15*
X168950000Y-34100000D03*
D16*
X171450000Y-38100000D03*
D15*
X168295001Y-34830000D03*
D17*
X167640000Y-35560000D02*
X168950002Y-34100000D01*
D15*
X173990000Y-33020000D03*
X173970000Y-33310000D03*
D17*
X173950000Y-33600000D02*
X173990000Y-33020000D01*
G04 #@! TD*
D14*
G04 #@! TO.C,MX7*
X157480000Y-38100000D03*
X147320000Y-38100000D03*
D15*
X149900000Y-34100000D03*
D16*
X152400000Y-38100000D03*
D15*
X149245001Y-34830000D03*
D17*
X148590000Y-35560000D02*
X149900002Y-34100000D01*
D15*
X154940000Y-33020000D03*
X154920000Y-33310000D03*
D17*
X154900000Y-33600000D02*
X154940000Y-33020000D01*
G04 #@! TD*
D14*
G04 #@! TO.C,MX6*
X138430000Y-38100000D03*
X128270000Y-38100000D03*
D15*
X130850000Y-34100000D03*
D16*
X133350000Y-38100000D03*
D15*
X130195001Y-34830000D03*
D17*
X129540000Y-35560000D02*
X130850002Y-34100000D01*
D15*
X135890000Y-33020000D03*
X135870000Y-33310000D03*
D17*
X135850000Y-33600000D02*
X135890000Y-33020000D01*
G04 #@! TD*
D14*
G04 #@! TO.C,MX5*
X119380000Y-38100000D03*
X109220000Y-38100000D03*
D15*
X111800000Y-34100000D03*
D16*
X114300000Y-38100000D03*
D15*
X111145001Y-34830000D03*
D17*
X110490000Y-35560000D02*
X111800002Y-34100000D01*
D15*
X116840000Y-33020000D03*
X116820000Y-33310000D03*
D17*
X116800000Y-33600000D02*
X116840000Y-33020000D01*
G04 #@! TD*
D14*
G04 #@! TO.C,MX4*
X100330000Y-38100000D03*
X90170000Y-38100000D03*
D15*
X92750000Y-34100000D03*
D16*
X95250000Y-38100000D03*
D15*
X92095001Y-34830000D03*
D17*
X91440000Y-35560000D02*
X92750002Y-34100000D01*
D15*
X97790000Y-33020000D03*
X97770000Y-33310000D03*
D17*
X97750000Y-33600000D02*
X97790000Y-33020000D01*
G04 #@! TD*
D14*
G04 #@! TO.C,MX3*
X81280000Y-38100000D03*
X71120000Y-38100000D03*
D15*
X73700000Y-34100000D03*
D16*
X76200000Y-38100000D03*
D15*
X73045001Y-34830000D03*
D17*
X72390000Y-35560000D02*
X73700002Y-34100000D01*
D15*
X78740000Y-33020000D03*
X78720000Y-33310000D03*
D17*
X78700000Y-33600000D02*
X78740000Y-33020000D01*
G04 #@! TD*
D14*
G04 #@! TO.C,MX2*
X62230000Y-38100000D03*
X52070000Y-38100000D03*
D15*
X54650000Y-34100000D03*
D16*
X57150000Y-38100000D03*
D15*
X53995001Y-34830000D03*
D17*
X53340000Y-35560000D02*
X54650002Y-34100000D01*
D15*
X59690000Y-33020000D03*
X59670000Y-33310000D03*
D17*
X59650000Y-33600000D02*
X59690000Y-33020000D01*
G04 #@! TD*
D14*
G04 #@! TO.C,MX1*
X43180000Y-38100000D03*
X33020000Y-38100000D03*
D15*
X35600000Y-34100000D03*
D16*
X38100000Y-38100000D03*
D15*
X34945001Y-34830000D03*
D17*
X34290000Y-35560000D02*
X35600002Y-34100000D01*
D15*
X40640000Y-33020000D03*
X40620000Y-33310000D03*
D17*
X40600000Y-33600000D02*
X40640000Y-33020000D01*
G04 #@! TD*
D20*
G04 #@! TO.C,REF\002A\002A*
X238125000Y-85725000D03*
D21*
X239775000Y-85725000D03*
X239291726Y-86891726D03*
X238125000Y-87375000D03*
X236958274Y-86891726D03*
X236475000Y-85725000D03*
X236958274Y-84558274D03*
X238125000Y-84075000D03*
X239291726Y-84558274D03*
G04 #@! TD*
D20*
G04 #@! TO.C,REF\002A\002A*
X238125000Y-47625000D03*
D21*
X239775000Y-47625000D03*
X239291726Y-48791726D03*
X238125000Y-49275000D03*
X236958274Y-48791726D03*
X236475000Y-47625000D03*
X236958274Y-46458274D03*
X238125000Y-45975000D03*
X239291726Y-46458274D03*
G04 #@! TD*
D20*
G04 #@! TO.C,REF\002A\002A*
X142875000Y-66675000D03*
D21*
X144525000Y-66675000D03*
X144041726Y-67841726D03*
X142875000Y-68325000D03*
X141708274Y-67841726D03*
X141225000Y-66675000D03*
X141708274Y-65508274D03*
X142875000Y-65025000D03*
X144041726Y-65508274D03*
G04 #@! TD*
D20*
G04 #@! TO.C,REF\002A\002A*
X47625000Y-47625000D03*
D21*
X49275000Y-47625000D03*
X48791726Y-48791726D03*
X47625000Y-49275000D03*
X46458274Y-48791726D03*
X45975000Y-47625000D03*
X46458274Y-46458274D03*
X47625000Y-45975000D03*
X48791726Y-46458274D03*
G04 #@! TD*
D20*
G04 #@! TO.C,REF\002A\002A*
X47625000Y-85725000D03*
D21*
X49275000Y-85725000D03*
X48791726Y-86891726D03*
X47625000Y-87375000D03*
X46458274Y-86891726D03*
X45975000Y-85725000D03*
X46458274Y-84558274D03*
X47625000Y-84075000D03*
X48791726Y-84558274D03*
G04 #@! TD*
D22*
G04 #@! TO.C,D1*
X47625000Y-41751250D03*
D23*
X47625000Y-34131250D03*
G04 #@! TD*
G04 #@! TO.C,D2*
X53181250Y-47625000D03*
D22*
X60801250Y-47625000D03*
G04 #@! TD*
D23*
G04 #@! TO.C,D3*
X72231250Y-66675000D03*
D22*
X79851250Y-66675000D03*
G04 #@! TD*
G04 #@! TO.C,D4*
X104775000Y-41751250D03*
D23*
X104775000Y-34131250D03*
G04 #@! TD*
D22*
G04 #@! TO.C,D5*
X123825000Y-41751250D03*
D23*
X123825000Y-34131250D03*
G04 #@! TD*
G04 #@! TO.C,D6*
X142875000Y-34131250D03*
D22*
X142875000Y-41751250D03*
G04 #@! TD*
D23*
G04 #@! TO.C,D7*
X161925000Y-34131250D03*
D22*
X161925000Y-41751250D03*
G04 #@! TD*
D23*
G04 #@! TO.C,D8*
X180975000Y-34131250D03*
D22*
X180975000Y-41751250D03*
G04 #@! TD*
D23*
G04 #@! TO.C,D9*
X200025000Y-34131250D03*
D22*
X200025000Y-41751250D03*
G04 #@! TD*
G04 #@! TO.C,D10*
X219075000Y-41751250D03*
D23*
X219075000Y-34131250D03*
G04 #@! TD*
D22*
G04 #@! TO.C,D11*
X238125000Y-41751250D03*
D23*
X238125000Y-34131250D03*
G04 #@! TD*
D22*
G04 #@! TO.C,D12*
X251301250Y-47625000D03*
D23*
X243681250Y-47625000D03*
G04 #@! TD*
D22*
G04 #@! TO.C,D13*
X42068750Y-47625000D03*
D23*
X34448750Y-47625000D03*
G04 #@! TD*
D22*
G04 #@! TO.C,D14*
X60801250Y-66675000D03*
D23*
X53181250Y-66675000D03*
G04 #@! TD*
G04 #@! TO.C,D15*
X91281250Y-66675000D03*
D22*
X98901250Y-66675000D03*
G04 #@! TD*
G04 #@! TO.C,D16*
X104775000Y-60801250D03*
D23*
X104775000Y-53181250D03*
G04 #@! TD*
G04 #@! TO.C,D17*
X123825000Y-53181250D03*
D22*
X123825000Y-60801250D03*
G04 #@! TD*
G04 #@! TO.C,D18*
X142875000Y-60801250D03*
D23*
X142875000Y-53181250D03*
G04 #@! TD*
D22*
G04 #@! TO.C,D19*
X161925000Y-60801250D03*
D23*
X161925000Y-53181250D03*
G04 #@! TD*
G04 #@! TO.C,D20*
X180975000Y-53181250D03*
D22*
X180975000Y-60801250D03*
G04 #@! TD*
D23*
G04 #@! TO.C,D21*
X200025000Y-53181250D03*
D22*
X200025000Y-60801250D03*
G04 #@! TD*
G04 #@! TO.C,D22*
X219075000Y-60801250D03*
D23*
X219075000Y-53181250D03*
G04 #@! TD*
D22*
G04 #@! TO.C,D23*
X238125000Y-60801250D03*
D23*
X238125000Y-53181250D03*
G04 #@! TD*
G04 #@! TO.C,D24*
X243681250Y-66675000D03*
D22*
X251301250Y-66675000D03*
G04 #@! TD*
D23*
G04 #@! TO.C,D25*
X53498750Y-85725000D03*
D22*
X61118750Y-85725000D03*
G04 #@! TD*
G04 #@! TO.C,D26*
X66675000Y-79851250D03*
D23*
X66675000Y-72231250D03*
G04 #@! TD*
G04 #@! TO.C,D27*
X85725000Y-72231250D03*
D22*
X85725000Y-79851250D03*
G04 #@! TD*
D23*
G04 #@! TO.C,D28*
X104775000Y-72231250D03*
D22*
X104775000Y-79851250D03*
G04 #@! TD*
G04 #@! TO.C,D29*
X123825000Y-79851250D03*
D23*
X123825000Y-72231250D03*
G04 #@! TD*
D22*
G04 #@! TO.C,D30*
X142875000Y-79851250D03*
D23*
X142875000Y-72231250D03*
G04 #@! TD*
G04 #@! TO.C,D31*
X161925000Y-72231250D03*
D22*
X161925000Y-79851250D03*
G04 #@! TD*
D23*
G04 #@! TO.C,D32*
X180975000Y-72231250D03*
D22*
X180975000Y-79851250D03*
G04 #@! TD*
G04 #@! TO.C,D33*
X200025000Y-79851250D03*
D23*
X200025000Y-72231250D03*
G04 #@! TD*
D22*
G04 #@! TO.C,D34*
X219075000Y-79851250D03*
D23*
X219075000Y-72231250D03*
G04 #@! TD*
G04 #@! TO.C,D35*
X224631250Y-85725000D03*
D22*
X232251250Y-85725000D03*
G04 #@! TD*
G04 #@! TO.C,D36*
X238125000Y-79851250D03*
D23*
X238125000Y-72231250D03*
G04 #@! TD*
G04 #@! TO.C,D37*
X34131250Y-85725000D03*
D22*
X41751250Y-85725000D03*
G04 #@! TD*
G04 #@! TO.C,D38*
X47625000Y-98901250D03*
D23*
X47625000Y-91281250D03*
G04 #@! TD*
G04 #@! TO.C,D39*
X66675000Y-91281250D03*
D22*
X66675000Y-98901250D03*
G04 #@! TD*
D23*
G04 #@! TO.C,D40*
X85725000Y-91281250D03*
D22*
X85725000Y-98901250D03*
G04 #@! TD*
G04 #@! TO.C,D41*
X104775000Y-98901250D03*
D23*
X104775000Y-91281250D03*
G04 #@! TD*
G04 #@! TO.C,D42*
X123825000Y-91281250D03*
D22*
X123825000Y-98901250D03*
G04 #@! TD*
G04 #@! TO.C,D43*
X161925000Y-98901250D03*
D23*
X161925000Y-91281250D03*
G04 #@! TD*
G04 #@! TO.C,D44*
X180975000Y-91281250D03*
D22*
X180975000Y-98901250D03*
G04 #@! TD*
D23*
G04 #@! TO.C,D45*
X200025000Y-91281250D03*
D22*
X200025000Y-98901250D03*
G04 #@! TD*
D23*
G04 #@! TO.C,D46*
X219075000Y-91281250D03*
D22*
X219075000Y-98901250D03*
G04 #@! TD*
G04 #@! TO.C,D47*
X238125000Y-98901250D03*
D23*
X238125000Y-91281250D03*
G04 #@! TD*
D22*
G04 #@! TO.C,D48*
X251301250Y-85725000D03*
D23*
X243681250Y-85725000D03*
G04 #@! TD*
D24*
G04 #@! TO.C,J1*
X34290000Y-66675000D03*
X36830000Y-66675000D03*
X39370000Y-66675000D03*
D25*
X41910000Y-66675000D03*
G04 #@! TD*
M02*
