G04 #@! TF.GenerationSoftware,KiCad,Pcbnew,(5.0.0)*
G04 #@! TF.CreationDate,2018-11-27T00:40:27-08:00*
G04 #@! TF.ProjectId,Contra,436F6E7472612E6B696361645F706362,rev?*
G04 #@! TF.SameCoordinates,Original*
G04 #@! TF.FileFunction,Soldermask,Top*
G04 #@! TF.FilePolarity,Negative*
%FSLAX46Y46*%
G04 Gerber Fmt 4.6, Leading zero omitted, Abs format (unit mm)*
G04 Created by KiCad (PCBNEW (5.0.0)) date 11/27/18 00:40:27*
%MOMM*%
%LPD*%
G01*
G04 APERTURE LIST*
%ADD10C,2.150000*%
%ADD11C,4.387800*%
%ADD12C,2.432000*%
%ADD13C,3.448000*%
%ADD14C,4.800000*%
%ADD15C,1.100000*%
%ADD16R,2.000000X2.000000*%
%ADD17O,2.000000X2.000000*%
%ADD18C,2.200000*%
%ADD19O,2.100000X2.100000*%
%ADD20R,2.100000X2.100000*%
G04 APERTURE END LIST*
D10*
G04 #@! TO.C,MX11*
X233680000Y-38100000D03*
X223520000Y-38100000D03*
D11*
X228600000Y-38100000D03*
G04 #@! TD*
D12*
G04 #@! TO.C,U1*
X68580000Y-60483750D03*
X68580000Y-57943750D03*
X68580000Y-55403750D03*
X68580000Y-52863750D03*
X68580000Y-50323750D03*
X68580000Y-47783750D03*
X68580000Y-45243750D03*
X68580000Y-42703750D03*
X68580000Y-40163750D03*
X68580000Y-37623750D03*
X68580000Y-35083750D03*
X68580000Y-32543750D03*
X83820000Y-60483750D03*
X83820000Y-57943750D03*
X83820000Y-55403750D03*
X83820000Y-52863750D03*
X83820000Y-50323750D03*
X83820000Y-47783750D03*
X83820000Y-45243750D03*
X83820000Y-42703750D03*
X83820000Y-40163750D03*
X83820000Y-37623750D03*
X83820000Y-35083750D03*
X83820000Y-32543750D03*
G04 #@! TD*
D11*
G04 #@! TO.C,MX49*
X154813000Y-86995000D03*
X130937000Y-86995000D03*
D13*
X154813000Y-102235000D03*
X130937000Y-102235000D03*
D10*
X147955000Y-95250000D03*
X137795000Y-95250000D03*
D11*
X142875000Y-95250000D03*
G04 #@! TD*
D10*
G04 #@! TO.C,MX48*
X252730000Y-95250000D03*
X242570000Y-95250000D03*
D11*
X247650000Y-95250000D03*
G04 #@! TD*
D10*
G04 #@! TO.C,MX47*
X233680000Y-95250000D03*
X223520000Y-95250000D03*
D11*
X228600000Y-95250000D03*
G04 #@! TD*
D10*
G04 #@! TO.C,MX46*
X214630000Y-95250000D03*
X204470000Y-95250000D03*
D11*
X209550000Y-95250000D03*
G04 #@! TD*
D10*
G04 #@! TO.C,MX45*
X195580000Y-95250000D03*
X185420000Y-95250000D03*
D11*
X190500000Y-95250000D03*
G04 #@! TD*
D10*
G04 #@! TO.C,MX44*
X176530000Y-95250000D03*
X166370000Y-95250000D03*
D11*
X171450000Y-95250000D03*
G04 #@! TD*
D10*
G04 #@! TO.C,MX43*
X157480000Y-95250000D03*
X147320000Y-95250000D03*
D11*
X152400000Y-95250000D03*
G04 #@! TD*
D10*
G04 #@! TO.C,MX42*
X138430000Y-95250000D03*
X128270000Y-95250000D03*
D11*
X133350000Y-95250000D03*
G04 #@! TD*
D10*
G04 #@! TO.C,MX41*
X119380000Y-95250000D03*
X109220000Y-95250000D03*
D11*
X114300000Y-95250000D03*
G04 #@! TD*
D10*
G04 #@! TO.C,MX40*
X100330000Y-95250000D03*
X90170000Y-95250000D03*
D11*
X95250000Y-95250000D03*
G04 #@! TD*
D10*
G04 #@! TO.C,MX39*
X81280000Y-95250000D03*
X71120000Y-95250000D03*
D11*
X76200000Y-95250000D03*
G04 #@! TD*
D10*
G04 #@! TO.C,MX38*
X62230000Y-95250000D03*
X52070000Y-95250000D03*
D11*
X57150000Y-95250000D03*
G04 #@! TD*
D10*
G04 #@! TO.C,MX37*
X43180000Y-95250000D03*
X33020000Y-95250000D03*
D11*
X38100000Y-95250000D03*
G04 #@! TD*
D10*
G04 #@! TO.C,MX36*
X252730000Y-76200000D03*
X242570000Y-76200000D03*
D11*
X247650000Y-76200000D03*
G04 #@! TD*
D10*
G04 #@! TO.C,MX35*
X233680000Y-76200000D03*
X223520000Y-76200000D03*
D11*
X228600000Y-76200000D03*
G04 #@! TD*
D10*
G04 #@! TO.C,MX34*
X214630000Y-76200000D03*
X204470000Y-76200000D03*
D11*
X209550000Y-76200000D03*
G04 #@! TD*
D10*
G04 #@! TO.C,MX33*
X195580000Y-76200000D03*
X185420000Y-76200000D03*
D11*
X190500000Y-76200000D03*
G04 #@! TD*
D10*
G04 #@! TO.C,MX32*
X176530000Y-76200000D03*
X166370000Y-76200000D03*
D11*
X171450000Y-76200000D03*
G04 #@! TD*
D10*
G04 #@! TO.C,MX31*
X157480000Y-76200000D03*
X147320000Y-76200000D03*
D11*
X152400000Y-76200000D03*
G04 #@! TD*
D10*
G04 #@! TO.C,MX30*
X138430000Y-76200000D03*
X128270000Y-76200000D03*
D11*
X133350000Y-76200000D03*
G04 #@! TD*
D10*
G04 #@! TO.C,MX29*
X119380000Y-76200000D03*
X109220000Y-76200000D03*
D11*
X114300000Y-76200000D03*
G04 #@! TD*
D10*
G04 #@! TO.C,MX28*
X100330000Y-76200000D03*
X90170000Y-76200000D03*
D11*
X95250000Y-76200000D03*
G04 #@! TD*
D10*
G04 #@! TO.C,MX27*
X81280000Y-76200000D03*
X71120000Y-76200000D03*
D11*
X76200000Y-76200000D03*
G04 #@! TD*
D10*
G04 #@! TO.C,MX26*
X62230000Y-76200000D03*
X52070000Y-76200000D03*
D11*
X57150000Y-76200000D03*
G04 #@! TD*
D10*
G04 #@! TO.C,MX25*
X43180000Y-76200000D03*
X33020000Y-76200000D03*
D11*
X38100000Y-76200000D03*
G04 #@! TD*
D10*
G04 #@! TO.C,MX24*
X252730000Y-57150000D03*
X242570000Y-57150000D03*
D11*
X247650000Y-57150000D03*
G04 #@! TD*
D10*
G04 #@! TO.C,MX23*
X233680000Y-57150000D03*
X223520000Y-57150000D03*
D11*
X228600000Y-57150000D03*
G04 #@! TD*
D10*
G04 #@! TO.C,MX22*
X214630000Y-57150000D03*
X204470000Y-57150000D03*
D11*
X209550000Y-57150000D03*
G04 #@! TD*
D10*
G04 #@! TO.C,MX21*
X195580000Y-57150000D03*
X185420000Y-57150000D03*
D11*
X190500000Y-57150000D03*
G04 #@! TD*
D10*
G04 #@! TO.C,MX20*
X176530000Y-57150000D03*
X166370000Y-57150000D03*
D11*
X171450000Y-57150000D03*
G04 #@! TD*
D10*
G04 #@! TO.C,MX19*
X157480000Y-57150000D03*
X147320000Y-57150000D03*
D11*
X152400000Y-57150000D03*
G04 #@! TD*
D10*
G04 #@! TO.C,MX18*
X138430000Y-57150000D03*
X128270000Y-57150000D03*
D11*
X133350000Y-57150000D03*
G04 #@! TD*
D10*
G04 #@! TO.C,MX17*
X119380000Y-57150000D03*
X109220000Y-57150000D03*
D11*
X114300000Y-57150000D03*
G04 #@! TD*
D10*
G04 #@! TO.C,MX16*
X100330000Y-57150000D03*
X90170000Y-57150000D03*
D11*
X95250000Y-57150000D03*
G04 #@! TD*
D10*
G04 #@! TO.C,MX15*
X81280000Y-57150000D03*
X71120000Y-57150000D03*
D11*
X76200000Y-57150000D03*
G04 #@! TD*
D10*
G04 #@! TO.C,MX14*
X62230000Y-57150000D03*
X52070000Y-57150000D03*
D11*
X57150000Y-57150000D03*
G04 #@! TD*
D10*
G04 #@! TO.C,MX13*
X43180000Y-57150000D03*
X33020000Y-57150000D03*
D11*
X38100000Y-57150000D03*
G04 #@! TD*
D10*
G04 #@! TO.C,MX12*
X252730000Y-38100000D03*
X242570000Y-38100000D03*
D11*
X247650000Y-38100000D03*
G04 #@! TD*
D10*
G04 #@! TO.C,MX10*
X214630000Y-38100000D03*
X204470000Y-38100000D03*
D11*
X209550000Y-38100000D03*
G04 #@! TD*
D10*
G04 #@! TO.C,MX9*
X195580000Y-38100000D03*
X185420000Y-38100000D03*
D11*
X190500000Y-38100000D03*
G04 #@! TD*
D10*
G04 #@! TO.C,MX8*
X176530000Y-38100000D03*
X166370000Y-38100000D03*
D11*
X171450000Y-38100000D03*
G04 #@! TD*
D10*
G04 #@! TO.C,MX7*
X157480000Y-38100000D03*
X147320000Y-38100000D03*
D11*
X152400000Y-38100000D03*
G04 #@! TD*
D10*
G04 #@! TO.C,MX6*
X138430000Y-38100000D03*
X128270000Y-38100000D03*
D11*
X133350000Y-38100000D03*
G04 #@! TD*
D10*
G04 #@! TO.C,MX5*
X119380000Y-38100000D03*
X109220000Y-38100000D03*
D11*
X114300000Y-38100000D03*
G04 #@! TD*
D10*
G04 #@! TO.C,MX4*
X100330000Y-38100000D03*
X90170000Y-38100000D03*
D11*
X95250000Y-38100000D03*
G04 #@! TD*
D10*
G04 #@! TO.C,MX3*
X81280000Y-38100000D03*
X71120000Y-38100000D03*
D11*
X76200000Y-38100000D03*
G04 #@! TD*
D10*
G04 #@! TO.C,MX2*
X62230000Y-38100000D03*
X52070000Y-38100000D03*
D11*
X57150000Y-38100000D03*
G04 #@! TD*
D10*
G04 #@! TO.C,MX1*
X43180000Y-38100000D03*
X33020000Y-38100000D03*
D11*
X38100000Y-38100000D03*
G04 #@! TD*
D14*
G04 #@! TO.C,REF\002A\002A*
X238125000Y-85725000D03*
D15*
X239775000Y-85725000D03*
X239291726Y-86891726D03*
X238125000Y-87375000D03*
X236958274Y-86891726D03*
X236475000Y-85725000D03*
X236958274Y-84558274D03*
X238125000Y-84075000D03*
X239291726Y-84558274D03*
G04 #@! TD*
D14*
G04 #@! TO.C,REF\002A\002A*
X238125000Y-47625000D03*
D15*
X239775000Y-47625000D03*
X239291726Y-48791726D03*
X238125000Y-49275000D03*
X236958274Y-48791726D03*
X236475000Y-47625000D03*
X236958274Y-46458274D03*
X238125000Y-45975000D03*
X239291726Y-46458274D03*
G04 #@! TD*
D14*
G04 #@! TO.C,REF\002A\002A*
X142875000Y-66675000D03*
D15*
X144525000Y-66675000D03*
X144041726Y-67841726D03*
X142875000Y-68325000D03*
X141708274Y-67841726D03*
X141225000Y-66675000D03*
X141708274Y-65508274D03*
X142875000Y-65025000D03*
X144041726Y-65508274D03*
G04 #@! TD*
D14*
G04 #@! TO.C,REF\002A\002A*
X47625000Y-47625000D03*
D15*
X49275000Y-47625000D03*
X48791726Y-48791726D03*
X47625000Y-49275000D03*
X46458274Y-48791726D03*
X45975000Y-47625000D03*
X46458274Y-46458274D03*
X47625000Y-45975000D03*
X48791726Y-46458274D03*
G04 #@! TD*
D14*
G04 #@! TO.C,REF\002A\002A*
X47625000Y-85725000D03*
D15*
X49275000Y-85725000D03*
X48791726Y-86891726D03*
X47625000Y-87375000D03*
X46458274Y-86891726D03*
X45975000Y-85725000D03*
X46458274Y-84558274D03*
X47625000Y-84075000D03*
X48791726Y-84558274D03*
G04 #@! TD*
D16*
G04 #@! TO.C,D1*
X47625000Y-41751250D03*
D17*
X47625000Y-34131250D03*
G04 #@! TD*
G04 #@! TO.C,D2*
X53181250Y-47625000D03*
D16*
X60801250Y-47625000D03*
G04 #@! TD*
D17*
G04 #@! TO.C,D3*
X72231250Y-66675000D03*
D16*
X79851250Y-66675000D03*
G04 #@! TD*
G04 #@! TO.C,D4*
X104775000Y-41751250D03*
D17*
X104775000Y-34131250D03*
G04 #@! TD*
D16*
G04 #@! TO.C,D5*
X123825000Y-41751250D03*
D17*
X123825000Y-34131250D03*
G04 #@! TD*
G04 #@! TO.C,D6*
X142875000Y-34131250D03*
D16*
X142875000Y-41751250D03*
G04 #@! TD*
D17*
G04 #@! TO.C,D7*
X161925000Y-34131250D03*
D16*
X161925000Y-41751250D03*
G04 #@! TD*
D17*
G04 #@! TO.C,D8*
X180975000Y-34131250D03*
D16*
X180975000Y-41751250D03*
G04 #@! TD*
D17*
G04 #@! TO.C,D9*
X200025000Y-34131250D03*
D16*
X200025000Y-41751250D03*
G04 #@! TD*
G04 #@! TO.C,D10*
X219075000Y-41751250D03*
D17*
X219075000Y-34131250D03*
G04 #@! TD*
D16*
G04 #@! TO.C,D11*
X238125000Y-41751250D03*
D17*
X238125000Y-34131250D03*
G04 #@! TD*
D16*
G04 #@! TO.C,D12*
X251301250Y-47625000D03*
D17*
X243681250Y-47625000D03*
G04 #@! TD*
D16*
G04 #@! TO.C,D13*
X42068750Y-47625000D03*
D17*
X34448750Y-47625000D03*
G04 #@! TD*
D16*
G04 #@! TO.C,D14*
X60801250Y-66675000D03*
D17*
X53181250Y-66675000D03*
G04 #@! TD*
G04 #@! TO.C,D15*
X91281250Y-66675000D03*
D16*
X98901250Y-66675000D03*
G04 #@! TD*
G04 #@! TO.C,D16*
X104775000Y-60801250D03*
D17*
X104775000Y-53181250D03*
G04 #@! TD*
G04 #@! TO.C,D17*
X123825000Y-53181250D03*
D16*
X123825000Y-60801250D03*
G04 #@! TD*
G04 #@! TO.C,D18*
X142875000Y-60801250D03*
D17*
X142875000Y-53181250D03*
G04 #@! TD*
D16*
G04 #@! TO.C,D19*
X161925000Y-60801250D03*
D17*
X161925000Y-53181250D03*
G04 #@! TD*
G04 #@! TO.C,D20*
X180975000Y-53181250D03*
D16*
X180975000Y-60801250D03*
G04 #@! TD*
D17*
G04 #@! TO.C,D21*
X200025000Y-53181250D03*
D16*
X200025000Y-60801250D03*
G04 #@! TD*
G04 #@! TO.C,D22*
X219075000Y-60801250D03*
D17*
X219075000Y-53181250D03*
G04 #@! TD*
D16*
G04 #@! TO.C,D23*
X238125000Y-60801250D03*
D17*
X238125000Y-53181250D03*
G04 #@! TD*
G04 #@! TO.C,D24*
X243681250Y-66675000D03*
D16*
X251301250Y-66675000D03*
G04 #@! TD*
D17*
G04 #@! TO.C,D25*
X53498750Y-85725000D03*
D16*
X61118750Y-85725000D03*
G04 #@! TD*
G04 #@! TO.C,D26*
X66675000Y-79851250D03*
D17*
X66675000Y-72231250D03*
G04 #@! TD*
G04 #@! TO.C,D27*
X85725000Y-72231250D03*
D16*
X85725000Y-79851250D03*
G04 #@! TD*
D17*
G04 #@! TO.C,D28*
X104775000Y-72231250D03*
D16*
X104775000Y-79851250D03*
G04 #@! TD*
G04 #@! TO.C,D29*
X123825000Y-79851250D03*
D17*
X123825000Y-72231250D03*
G04 #@! TD*
D16*
G04 #@! TO.C,D30*
X142875000Y-79851250D03*
D17*
X142875000Y-72231250D03*
G04 #@! TD*
G04 #@! TO.C,D31*
X161925000Y-72231250D03*
D16*
X161925000Y-79851250D03*
G04 #@! TD*
D17*
G04 #@! TO.C,D32*
X180975000Y-72231250D03*
D16*
X180975000Y-79851250D03*
G04 #@! TD*
G04 #@! TO.C,D33*
X200025000Y-79851250D03*
D17*
X200025000Y-72231250D03*
G04 #@! TD*
D16*
G04 #@! TO.C,D34*
X219075000Y-79851250D03*
D17*
X219075000Y-72231250D03*
G04 #@! TD*
G04 #@! TO.C,D35*
X224631250Y-85725000D03*
D16*
X232251250Y-85725000D03*
G04 #@! TD*
G04 #@! TO.C,D36*
X238125000Y-79851250D03*
D17*
X238125000Y-72231250D03*
G04 #@! TD*
G04 #@! TO.C,D37*
X34131250Y-85725000D03*
D16*
X41751250Y-85725000D03*
G04 #@! TD*
G04 #@! TO.C,D38*
X47625000Y-98901250D03*
D17*
X47625000Y-91281250D03*
G04 #@! TD*
G04 #@! TO.C,D39*
X66675000Y-91281250D03*
D16*
X66675000Y-98901250D03*
G04 #@! TD*
D17*
G04 #@! TO.C,D40*
X85725000Y-91281250D03*
D16*
X85725000Y-98901250D03*
G04 #@! TD*
G04 #@! TO.C,D41*
X104775000Y-98901250D03*
D17*
X104775000Y-91281250D03*
G04 #@! TD*
G04 #@! TO.C,D42*
X123825000Y-91281250D03*
D16*
X123825000Y-98901250D03*
G04 #@! TD*
G04 #@! TO.C,D43*
X161925000Y-98901250D03*
D17*
X161925000Y-91281250D03*
G04 #@! TD*
G04 #@! TO.C,D44*
X180975000Y-91281250D03*
D16*
X180975000Y-98901250D03*
G04 #@! TD*
D17*
G04 #@! TO.C,D45*
X200025000Y-91281250D03*
D16*
X200025000Y-98901250D03*
G04 #@! TD*
D17*
G04 #@! TO.C,D46*
X219075000Y-91281250D03*
D16*
X219075000Y-98901250D03*
G04 #@! TD*
G04 #@! TO.C,D47*
X238125000Y-98901250D03*
D17*
X238125000Y-91281250D03*
G04 #@! TD*
D16*
G04 #@! TO.C,D48*
X251301250Y-85725000D03*
D17*
X243681250Y-85725000D03*
G04 #@! TD*
D18*
G04 #@! TO.C,SW1*
X49875000Y-63425000D03*
X45375000Y-69925000D03*
X45375000Y-63425000D03*
X49875000Y-69925000D03*
G04 #@! TD*
D19*
G04 #@! TO.C,J1*
X34290000Y-66675000D03*
X36830000Y-66675000D03*
X39370000Y-66675000D03*
D20*
X41910000Y-66675000D03*
G04 #@! TD*
M02*
