M48
;DRILL file {KiCad (5.0.0)} date 11/27/18 00:40:28
;FORMAT={-:-/ absolute / inch / decimal}
FMAT,2
INCH,TZ
T1C0.0157
T2C0.0315
T3C0.0394
T4C0.0500
T5C0.0579
T6C0.0866
%
G90
G05
M72
T1
X2.275Y-2.74
X2.305Y-2.72
X1.81Y-3.375
X1.8291Y-3.3291
X1.8291Y-3.4209
X1.875Y-3.31
X1.875Y-3.44
X1.9209Y-3.3291
X1.9209Y-3.4209
X1.94Y-3.375
X5.56Y-2.625
X5.5791Y-2.5791
X5.5791Y-2.6709
X5.625Y-2.56
X5.625Y-2.69
X5.6709Y-2.5791
X5.6709Y-2.6709
X5.69Y-2.625
X9.31Y-1.875
X9.3291Y-1.8291
X9.3291Y-1.9209
X9.375Y-1.81
X9.375Y-1.94
X9.4209Y-1.8291
X9.4209Y-1.9209
X9.44Y-1.875
X9.31Y-3.375
X9.3291Y-3.3291
X9.3291Y-3.4209
X9.375Y-3.31
X9.375Y-3.44
X9.4209Y-3.3291
X9.4209Y-3.4209
X9.44Y-3.375
X1.81Y-1.875
X1.8291Y-1.8291
X1.8291Y-1.9209
X1.875Y-1.81
X1.875Y-1.94
X1.9209Y-1.8291
X1.9209Y-1.9209
X1.94Y-1.875
T2
X2.1062Y-3.375
X2.4062Y-3.375
X4.125Y-2.0938
X4.125Y-2.3937
X2.8438Y-2.625
X3.1437Y-2.625
X6.375Y-2.0938
X6.375Y-2.3937
X1.3438Y-3.375
X1.6438Y-3.375
X8.625Y-2.8438
X8.625Y-3.1437
X9.375Y-3.5938
X9.375Y-3.8937
X7.875Y-2.0938
X7.875Y-2.3937
X7.875Y-1.3438
X7.875Y-1.6438
X8.625Y-2.0938
X8.625Y-2.3937
X5.625Y-2.8438
X5.625Y-3.1437
X7.125Y-2.0938
X7.125Y-2.3937
X2.0938Y-2.625
X2.3937Y-2.625
X7.125Y-1.3438
X7.125Y-1.6438
X7.125Y-2.8438
X7.125Y-3.1437
X3.375Y-2.8438
X3.375Y-3.1437
X7.875Y-3.5938
X7.875Y-3.8937
X4.875Y-2.8438
X4.875Y-3.1437
X4.875Y-2.0938
X4.875Y-2.3937
X6.375Y-1.3438
X6.375Y-1.6438
X9.5938Y-3.375
X9.8937Y-3.375
X6.375Y-3.5938
X6.375Y-3.8937
X9.375Y-2.0938
X9.375Y-2.3937
X4.125Y-3.5938
X4.125Y-3.8937
X3.5938Y-2.625
X3.8937Y-2.625
X5.625Y-1.3438
X5.625Y-1.6438
X2.0938Y-1.875
X2.3937Y-1.875
X7.125Y-3.5938
X7.125Y-3.8937
X9.375Y-2.8438
X9.375Y-3.1437
X9.5938Y-2.625
X9.8937Y-2.625
X4.875Y-3.5938
X4.875Y-3.8937
X8.625Y-3.5938
X8.625Y-3.8937
X9.375Y-1.3438
X9.375Y-1.6438
X8.625Y-1.3438
X8.625Y-1.6438
X4.875Y-1.3438
X4.875Y-1.6438
X3.375Y-3.5938
X3.375Y-3.8937
X6.375Y-2.8438
X6.375Y-3.1437
X7.875Y-2.8438
X7.875Y-3.1437
X2.625Y-2.8438
X2.625Y-3.1437
X2.625Y-3.5938
X2.625Y-3.8937
X1.3562Y-1.875
X1.6562Y-1.875
X9.5938Y-1.875
X9.8937Y-1.875
X4.125Y-1.3438
X4.125Y-1.6438
X1.875Y-1.3438
X1.875Y-1.6438
X8.8438Y-3.375
X9.1437Y-3.375
X1.875Y-3.5938
X1.875Y-3.8937
X4.125Y-2.8438
X4.125Y-3.1437
X5.625Y-2.0938
X5.625Y-2.3937
T3
X1.35Y-2.625
X1.45Y-2.625
X1.55Y-2.625
X1.65Y-2.625
X1.7864Y-2.497
X1.7864Y-2.753
X1.9636Y-2.497
X1.9636Y-2.753
T4
X2.7Y-1.2812
X2.7Y-1.3812
X2.7Y-1.4812
X2.7Y-1.5813
X2.7Y-1.6812
X2.7Y-1.7812
X2.7Y-1.8812
X2.7Y-1.9812
X2.7Y-2.0812
X2.7Y-2.1812
X2.7Y-2.2812
X2.7Y-2.3813
X3.3Y-1.2812
X3.3Y-1.3812
X3.3Y-1.4812
X3.3Y-1.5813
X3.3Y-1.6812
X3.3Y-1.7812
X3.3Y-1.8812
X3.3Y-1.9812
X3.3Y-2.0812
X3.3Y-2.1812
X3.3Y-2.2812
X3.3Y-2.3813
T5
X3.6Y-1.4
X3.6516Y-1.3425
X3.8484Y-1.3228
X3.85Y-1.3
X5.85Y-1.4
X5.9016Y-1.3425
X6.0984Y-1.3228
X6.1Y-1.3
X5.85Y-2.15
X5.9016Y-2.0925
X6.0984Y-2.0728
X6.1Y-2.05
X5.475Y-3.65
X5.5266Y-3.5925
X5.7234Y-3.5728
X5.725Y-3.55
X4.35Y-1.4
X4.4016Y-1.3425
X4.5984Y-1.3228
X4.6Y-1.3
X8.1Y-2.15
X8.1516Y-2.0925
X8.3484Y-2.0728
X8.35Y-2.05
X2.85Y-3.65
X2.9016Y-3.5925
X3.0984Y-3.5728
X3.1Y-3.55
X3.6Y-2.15
X3.6516Y-2.0925
X3.8484Y-2.0728
X3.85Y-2.05
X2.1Y-1.4
X2.1516Y-1.3425
X2.3484Y-1.3228
X2.35Y-1.3
X7.35Y-1.4
X7.4016Y-1.3425
X7.5984Y-1.3228
X7.6Y-1.3
X6.6Y-2.15
X6.6516Y-2.0925
X6.8484Y-2.0728
X6.85Y-2.05
X3.6Y-3.65
X3.6516Y-3.5925
X3.8484Y-3.5728
X3.85Y-3.55
X4.35Y-2.15
X4.4016Y-2.0925
X4.5984Y-2.0728
X4.6Y-2.05
X8.85Y-2.15
X8.9016Y-2.0925
X9.0984Y-2.0728
X9.1Y-2.05
X5.85Y-3.65
X5.9016Y-3.5925
X6.0984Y-3.5728
X6.1Y-3.55
X8.85Y-3.65
X8.9016Y-3.5925
X9.0984Y-3.5728
X9.1Y-3.55
X6.6Y-1.4
X6.6516Y-1.3425
X6.8484Y-1.3228
X6.85Y-1.3
X3.6Y-2.9
X3.6516Y-2.8425
X3.8484Y-2.8228
X3.85Y-2.8
X7.35Y-3.65
X7.4016Y-3.5925
X7.5984Y-3.5728
X7.6Y-3.55
X9.6Y-2.15
X9.6516Y-2.0925
X9.8484Y-2.0728
X9.85Y-2.05
X6.6Y-3.65
X6.6516Y-3.5925
X6.8484Y-3.5728
X6.85Y-3.55
X9.6Y-2.9
X9.6516Y-2.8425
X9.8484Y-2.8228
X9.85Y-2.8
X2.85Y-2.15
X2.9016Y-2.0925
X3.0984Y-2.0728
X3.1Y-2.05
X8.1Y-1.4
X8.1516Y-1.3425
X8.3484Y-1.3228
X8.35Y-1.3
X7.35Y-2.15
X7.4016Y-2.0925
X7.5984Y-2.0728
X7.6Y-2.05
X4.35Y-3.65
X4.4016Y-3.5925
X4.5984Y-3.5728
X4.6Y-3.55
X8.1Y-2.9
X8.1516Y-2.8425
X8.3484Y-2.8228
X8.35Y-2.8
X5.1Y-2.9
X5.1516Y-2.8425
X5.3484Y-2.8228
X5.35Y-2.8
X8.85Y-1.4
X8.9016Y-1.3425
X9.0984Y-1.3228
X9.1Y-1.3
X5.1Y-3.65
X5.1516Y-3.5925
X5.3484Y-3.5728
X5.35Y-3.55
X1.35Y-1.4
X1.4016Y-1.3425
X1.5984Y-1.3228
X1.6Y-1.3
X9.6Y-1.4
X9.6516Y-1.3425
X9.8484Y-1.3228
X9.85Y-1.3
X5.85Y-2.9
X5.9016Y-2.8425
X6.0984Y-2.8228
X6.1Y-2.8
X1.35Y-2.9
X1.4016Y-2.8425
X1.5984Y-2.8228
X1.6Y-2.8
X8.85Y-2.9
X8.9016Y-2.8425
X9.0984Y-2.8228
X9.1Y-2.8
X2.85Y-1.4
X2.9016Y-1.3425
X3.0984Y-1.3228
X3.1Y-1.3
X1.35Y-2.15
X1.4016Y-2.0925
X1.5984Y-2.0728
X1.6Y-2.05
X2.1Y-3.65
X2.1516Y-3.5925
X2.3484Y-3.5728
X2.35Y-3.55
X9.6Y-3.65
X9.6516Y-3.5925
X9.8484Y-3.5728
X9.85Y-3.55
X2.1Y-2.9
X2.1516Y-2.8425
X2.3484Y-2.8228
X2.35Y-2.8
X2.85Y-2.9
X2.9016Y-2.8425
X3.0984Y-2.8228
X3.1Y-2.8
X5.1Y-1.4
X5.1516Y-1.3425
X5.3484Y-1.3228
X5.35Y-1.3
X2.1Y-2.15
X2.1516Y-2.0925
X2.3484Y-2.0728
X2.35Y-2.05
X4.35Y-2.9
X4.4016Y-2.8425
X4.5984Y-2.8228
X4.6Y-2.8
X7.35Y-2.9
X7.4016Y-2.8425
X7.5984Y-2.8228
X7.6Y-2.8
X5.1Y-2.15
X5.1516Y-2.0925
X5.3484Y-2.0728
X5.35Y-2.05
X6.6Y-2.9
X6.6516Y-2.8425
X6.8484Y-2.8228
X6.85Y-2.8
X1.35Y-3.65
X1.4016Y-3.5925
X1.5984Y-3.5728
X1.6Y-3.55
X8.1Y-3.65
X8.1516Y-3.5925
X8.3484Y-3.5728
X8.35Y-3.55
T6
X1.875Y-1.875
X1.875Y-3.375
X5.625Y-2.625
X9.375Y-1.875
X9.375Y-3.375
T0
M30
