M48
;DRILL file {KiCad (5.0.0)} date 11/27/18 00:40:28
;FORMAT={-:-/ absolute / inch / decimal}
FMAT,2
INCH,TZ
T1C0.0689
T2C0.1200
T3C0.1570
%
G90
G05
M72
T1
X3.55Y-1.5
X3.95Y-1.5
X5.8Y-1.5
X6.2Y-1.5
X5.8Y-2.25
X6.2Y-2.25
X5.425Y-3.75
X5.825Y-3.75
X4.3Y-1.5
X4.7Y-1.5
X8.05Y-2.25
X8.45Y-2.25
X2.8Y-3.75
X3.2Y-3.75
X3.55Y-2.25
X3.95Y-2.25
X2.05Y-1.5
X2.45Y-1.5
X7.3Y-1.5
X7.7Y-1.5
X6.55Y-2.25
X6.95Y-2.25
X3.55Y-3.75
X3.95Y-3.75
X4.3Y-2.25
X4.7Y-2.25
X8.8Y-2.25
X9.2Y-2.25
X5.8Y-3.75
X6.2Y-3.75
X8.8Y-3.75
X9.2Y-3.75
X6.55Y-1.5
X6.95Y-1.5
X3.55Y-3.
X3.95Y-3.
X7.3Y-3.75
X7.7Y-3.75
X9.55Y-2.25
X9.95Y-2.25
X6.55Y-3.75
X6.95Y-3.75
X9.55Y-3.
X9.95Y-3.
X2.8Y-2.25
X3.2Y-2.25
X8.05Y-1.5
X8.45Y-1.5
X7.3Y-2.25
X7.7Y-2.25
X4.3Y-3.75
X4.7Y-3.75
X8.05Y-3.
X8.45Y-3.
X5.05Y-3.
X5.45Y-3.
X8.8Y-1.5
X9.2Y-1.5
X5.05Y-3.75
X5.45Y-3.75
X1.3Y-1.5
X1.7Y-1.5
X9.55Y-1.5
X9.95Y-1.5
X5.8Y-3.
X6.2Y-3.
X1.3Y-3.
X1.7Y-3.
X8.8Y-3.
X9.2Y-3.
X2.8Y-1.5
X3.2Y-1.5
X1.3Y-2.25
X1.7Y-2.25
X2.05Y-3.75
X2.45Y-3.75
X9.55Y-3.75
X9.95Y-3.75
X2.05Y-3.
X2.45Y-3.
X2.8Y-3.
X3.2Y-3.
X5.05Y-1.5
X5.45Y-1.5
X2.05Y-2.25
X2.45Y-2.25
X4.3Y-3.
X4.7Y-3.
X7.3Y-3.
X7.7Y-3.
X5.05Y-2.25
X5.45Y-2.25
X6.55Y-3.
X6.95Y-3.
X1.3Y-3.75
X1.7Y-3.75
X8.05Y-3.75
X8.45Y-3.75
T2
X5.155Y-4.025
X6.095Y-4.025
T3
X2.25Y-1.5
X7.5Y-1.5
X6.75Y-2.25
X3.75Y-3.75
X4.5Y-2.25
X9.Y-2.25
X6.Y-3.75
X9.Y-3.75
X6.75Y-1.5
X3.75Y-3.
X7.5Y-3.75
X9.75Y-2.25
X6.75Y-3.75
X9.75Y-3.
X3.Y-2.25
X8.25Y-1.5
X7.5Y-2.25
X4.5Y-3.75
X8.25Y-3.
X5.25Y-3.
X9.Y-1.5
X5.25Y-3.75
X1.5Y-1.5
X9.75Y-1.5
X6.Y-3.
X1.5Y-3.
X9.Y-3.
X3.Y-1.5
X1.5Y-2.25
X2.25Y-3.75
X9.75Y-3.75
X2.25Y-3.
X3.Y-3.
X5.25Y-1.5
X2.25Y-2.25
X4.5Y-3.
X7.5Y-3.
X5.25Y-2.25
X6.75Y-3.
X1.5Y-3.75
X8.25Y-3.75
X3.75Y-1.5
X6.Y-1.5
X6.Y-2.25
X5.155Y-3.425
X5.625Y-3.75
X6.095Y-3.425
X4.5Y-1.5
X8.25Y-2.25
X3.Y-3.75
X3.75Y-2.25
T0
M30
