G04 #@! TF.GenerationSoftware,KiCad,Pcbnew,(5.0.0)*
G04 #@! TF.CreationDate,2018-11-27T00:40:26-08:00*
G04 #@! TF.ProjectId,Contra,436F6E7472612E6B696361645F706362,rev?*
G04 #@! TF.SameCoordinates,Original*
G04 #@! TF.FileFunction,Copper,L1,Top,Signal*
G04 #@! TF.FilePolarity,Positive*
%FSLAX46Y46*%
G04 Gerber Fmt 4.6, Leading zero omitted, Abs format (unit mm)*
G04 Created by KiCad (PCBNEW (5.0.0)) date 11/27/18 00:40:26*
%MOMM*%
%LPD*%
G01*
G04 APERTURE LIST*
G04 #@! TA.AperFunction,ComponentPad*
%ADD10C,2.250000*%
G04 #@! TD*
G04 #@! TA.AperFunction,Conductor*
%ADD11C,2.250000*%
G04 #@! TD*
G04 #@! TA.AperFunction,ComponentPad*
%ADD12C,2.032000*%
G04 #@! TD*
G04 #@! TA.AperFunction,ComponentPad*
%ADD13C,4.400000*%
G04 #@! TD*
G04 #@! TA.AperFunction,ComponentPad*
%ADD14C,0.700000*%
G04 #@! TD*
G04 #@! TA.AperFunction,ComponentPad*
%ADD15R,1.600000X1.600000*%
G04 #@! TD*
G04 #@! TA.AperFunction,ComponentPad*
%ADD16O,1.600000X1.600000*%
G04 #@! TD*
G04 #@! TA.AperFunction,ComponentPad*
%ADD17C,1.800000*%
G04 #@! TD*
G04 #@! TA.AperFunction,ComponentPad*
%ADD18O,1.700000X1.700000*%
G04 #@! TD*
G04 #@! TA.AperFunction,ComponentPad*
%ADD19R,1.700000X1.700000*%
G04 #@! TD*
G04 #@! TA.AperFunction,ViaPad*
%ADD20C,0.600000*%
G04 #@! TD*
G04 #@! TA.AperFunction,Conductor*
%ADD21C,0.250000*%
G04 #@! TD*
G04 #@! TA.AperFunction,Conductor*
%ADD22C,0.381000*%
G04 #@! TD*
G04 APERTURE END LIST*
D10*
G04 #@! TO.P,MX11,1*
G04 #@! TO.N,COL10*
X226100000Y-34100000D03*
X225445001Y-34830000D03*
D11*
G04 #@! TD*
G04 #@! TO.N,COL10*
G04 #@! TO.C,MX11*
X224790000Y-35560000D02*
X226100002Y-34100000D01*
D10*
G04 #@! TO.P,MX11,2*
G04 #@! TO.N,Net-(D11-Pad2)*
X231140000Y-33020000D03*
X231120000Y-33310000D03*
D11*
G04 #@! TD*
G04 #@! TO.N,Net-(D11-Pad2)*
G04 #@! TO.C,MX11*
X231100000Y-33600000D02*
X231140000Y-33020000D01*
D12*
G04 #@! TO.P,U1,13*
G04 #@! TO.N,ROW3*
X68580000Y-60483750D03*
G04 #@! TO.P,U1,14*
G04 #@! TO.N,ROW2*
X68580000Y-57943750D03*
G04 #@! TO.P,U1,15*
G04 #@! TO.N,ROW1*
X68580000Y-55403750D03*
G04 #@! TO.P,U1,16*
G04 #@! TO.N,PIN15*
X68580000Y-52863750D03*
G04 #@! TO.P,U1,17*
G04 #@! TO.N,PIN18*
X68580000Y-50323750D03*
G04 #@! TO.P,U1,18*
G04 #@! TO.N,ROW0*
X68580000Y-47783750D03*
G04 #@! TO.P,U1,19*
G04 #@! TO.N,COL1*
X68580000Y-45243750D03*
G04 #@! TO.P,U1,20*
G04 #@! TO.N,COL0*
X68580000Y-42703750D03*
G04 #@! TO.P,U1,21*
G04 #@! TO.N,+5V*
X68580000Y-40163750D03*
G04 #@! TO.P,U1,22*
G04 #@! TO.N,Net-(SW1-Pad1)*
X68580000Y-37623750D03*
G04 #@! TO.P,U1,23*
G04 #@! TO.N,GND*
X68580000Y-35083750D03*
G04 #@! TO.P,U1,24*
G04 #@! TO.N,Net-(U1-Pad24)*
X68580000Y-32543750D03*
G04 #@! TO.P,U1,12*
G04 #@! TO.N,COL2*
X83820000Y-60483750D03*
G04 #@! TO.P,U1,11*
G04 #@! TO.N,COL3*
X83820000Y-57943750D03*
G04 #@! TO.P,U1,10*
G04 #@! TO.N,COL4*
X83820000Y-55403750D03*
G04 #@! TO.P,U1,9*
G04 #@! TO.N,COL5*
X83820000Y-52863750D03*
G04 #@! TO.P,U1,8*
G04 #@! TO.N,COL6*
X83820000Y-50323750D03*
G04 #@! TO.P,U1,7*
G04 #@! TO.N,COL7*
X83820000Y-47783750D03*
G04 #@! TO.P,U1,6*
G04 #@! TO.N,COL8*
X83820000Y-45243750D03*
G04 #@! TO.P,U1,5*
G04 #@! TO.N,COL9*
X83820000Y-42703750D03*
G04 #@! TO.P,U1,4*
G04 #@! TO.N,GND*
X83820000Y-40163750D03*
G04 #@! TO.P,U1,3*
X83820000Y-37623750D03*
G04 #@! TO.P,U1,2*
G04 #@! TO.N,COL10*
X83820000Y-35083750D03*
G04 #@! TO.P,U1,1*
G04 #@! TO.N,COL11*
X83820000Y-32543750D03*
G04 #@! TD*
D10*
G04 #@! TO.P,MX49,1*
G04 #@! TO.N,COL5*
X140375000Y-91250000D03*
X139720001Y-91980000D03*
D11*
G04 #@! TD*
G04 #@! TO.N,COL5*
G04 #@! TO.C,MX49*
X139065000Y-92710000D02*
X140375002Y-91250000D01*
D10*
G04 #@! TO.P,MX49,2*
G04 #@! TO.N,Net-(D42-Pad2)*
X145415000Y-90170000D03*
X145395000Y-90460000D03*
D11*
G04 #@! TD*
G04 #@! TO.N,Net-(D42-Pad2)*
G04 #@! TO.C,MX49*
X145375000Y-90750000D02*
X145415000Y-90170000D01*
D10*
G04 #@! TO.P,MX48,1*
G04 #@! TO.N,COL11*
X245150000Y-91250000D03*
X244495001Y-91980000D03*
D11*
G04 #@! TD*
G04 #@! TO.N,COL11*
G04 #@! TO.C,MX48*
X243840000Y-92710000D02*
X245150002Y-91250000D01*
D10*
G04 #@! TO.P,MX48,2*
G04 #@! TO.N,Net-(D48-Pad2)*
X250190000Y-90170000D03*
X250170000Y-90460000D03*
D11*
G04 #@! TD*
G04 #@! TO.N,Net-(D48-Pad2)*
G04 #@! TO.C,MX48*
X250150000Y-90750000D02*
X250190000Y-90170000D01*
D10*
G04 #@! TO.P,MX47,1*
G04 #@! TO.N,COL10*
X226100000Y-91250000D03*
X225445001Y-91980000D03*
D11*
G04 #@! TD*
G04 #@! TO.N,COL10*
G04 #@! TO.C,MX47*
X224790000Y-92710000D02*
X226100002Y-91250000D01*
D10*
G04 #@! TO.P,MX47,2*
G04 #@! TO.N,Net-(D47-Pad2)*
X231140000Y-90170000D03*
X231120000Y-90460000D03*
D11*
G04 #@! TD*
G04 #@! TO.N,Net-(D47-Pad2)*
G04 #@! TO.C,MX47*
X231100000Y-90750000D02*
X231140000Y-90170000D01*
D10*
G04 #@! TO.P,MX46,1*
G04 #@! TO.N,COL9*
X207050000Y-91250000D03*
X206395001Y-91980000D03*
D11*
G04 #@! TD*
G04 #@! TO.N,COL9*
G04 #@! TO.C,MX46*
X205740000Y-92710000D02*
X207050002Y-91250000D01*
D10*
G04 #@! TO.P,MX46,2*
G04 #@! TO.N,Net-(D46-Pad2)*
X212090000Y-90170000D03*
X212070000Y-90460000D03*
D11*
G04 #@! TD*
G04 #@! TO.N,Net-(D46-Pad2)*
G04 #@! TO.C,MX46*
X212050000Y-90750000D02*
X212090000Y-90170000D01*
D10*
G04 #@! TO.P,MX45,1*
G04 #@! TO.N,COL8*
X188000000Y-91250000D03*
X187345001Y-91980000D03*
D11*
G04 #@! TD*
G04 #@! TO.N,COL8*
G04 #@! TO.C,MX45*
X186690000Y-92710000D02*
X188000002Y-91250000D01*
D10*
G04 #@! TO.P,MX45,2*
G04 #@! TO.N,Net-(D45-Pad2)*
X193040000Y-90170000D03*
X193020000Y-90460000D03*
D11*
G04 #@! TD*
G04 #@! TO.N,Net-(D45-Pad2)*
G04 #@! TO.C,MX45*
X193000000Y-90750000D02*
X193040000Y-90170000D01*
D10*
G04 #@! TO.P,MX44,1*
G04 #@! TO.N,COL7*
X168950000Y-91250000D03*
X168295001Y-91980000D03*
D11*
G04 #@! TD*
G04 #@! TO.N,COL7*
G04 #@! TO.C,MX44*
X167640000Y-92710000D02*
X168950002Y-91250000D01*
D10*
G04 #@! TO.P,MX44,2*
G04 #@! TO.N,Net-(D44-Pad2)*
X173990000Y-90170000D03*
X173970000Y-90460000D03*
D11*
G04 #@! TD*
G04 #@! TO.N,Net-(D44-Pad2)*
G04 #@! TO.C,MX44*
X173950000Y-90750000D02*
X173990000Y-90170000D01*
D10*
G04 #@! TO.P,MX43,1*
G04 #@! TO.N,COL6*
X149900000Y-91250000D03*
X149245001Y-91980000D03*
D11*
G04 #@! TD*
G04 #@! TO.N,COL6*
G04 #@! TO.C,MX43*
X148590000Y-92710000D02*
X149900002Y-91250000D01*
D10*
G04 #@! TO.P,MX43,2*
G04 #@! TO.N,Net-(D43-Pad2)*
X154940000Y-90170000D03*
X154920000Y-90460000D03*
D11*
G04 #@! TD*
G04 #@! TO.N,Net-(D43-Pad2)*
G04 #@! TO.C,MX43*
X154900000Y-90750000D02*
X154940000Y-90170000D01*
D10*
G04 #@! TO.P,MX42,1*
G04 #@! TO.N,COL5*
X130850000Y-91250000D03*
X130195001Y-91980000D03*
D11*
G04 #@! TD*
G04 #@! TO.N,COL5*
G04 #@! TO.C,MX42*
X129540000Y-92710000D02*
X130850002Y-91250000D01*
D10*
G04 #@! TO.P,MX42,2*
G04 #@! TO.N,Net-(D42-Pad2)*
X135890000Y-90170000D03*
X135870000Y-90460000D03*
D11*
G04 #@! TD*
G04 #@! TO.N,Net-(D42-Pad2)*
G04 #@! TO.C,MX42*
X135850000Y-90750000D02*
X135890000Y-90170000D01*
D10*
G04 #@! TO.P,MX41,1*
G04 #@! TO.N,COL4*
X111800000Y-91250000D03*
X111145001Y-91980000D03*
D11*
G04 #@! TD*
G04 #@! TO.N,COL4*
G04 #@! TO.C,MX41*
X110490000Y-92710000D02*
X111800002Y-91250000D01*
D10*
G04 #@! TO.P,MX41,2*
G04 #@! TO.N,Net-(D41-Pad2)*
X116840000Y-90170000D03*
X116820000Y-90460000D03*
D11*
G04 #@! TD*
G04 #@! TO.N,Net-(D41-Pad2)*
G04 #@! TO.C,MX41*
X116800000Y-90750000D02*
X116840000Y-90170000D01*
D10*
G04 #@! TO.P,MX40,1*
G04 #@! TO.N,COL3*
X92750000Y-91250000D03*
X92095001Y-91980000D03*
D11*
G04 #@! TD*
G04 #@! TO.N,COL3*
G04 #@! TO.C,MX40*
X91440000Y-92710000D02*
X92750002Y-91250000D01*
D10*
G04 #@! TO.P,MX40,2*
G04 #@! TO.N,Net-(D40-Pad2)*
X97790000Y-90170000D03*
X97770000Y-90460000D03*
D11*
G04 #@! TD*
G04 #@! TO.N,Net-(D40-Pad2)*
G04 #@! TO.C,MX40*
X97750000Y-90750000D02*
X97790000Y-90170000D01*
D10*
G04 #@! TO.P,MX39,1*
G04 #@! TO.N,COL2*
X73700000Y-91250000D03*
X73045001Y-91980000D03*
D11*
G04 #@! TD*
G04 #@! TO.N,COL2*
G04 #@! TO.C,MX39*
X72390000Y-92710000D02*
X73700002Y-91250000D01*
D10*
G04 #@! TO.P,MX39,2*
G04 #@! TO.N,Net-(D39-Pad2)*
X78740000Y-90170000D03*
X78720000Y-90460000D03*
D11*
G04 #@! TD*
G04 #@! TO.N,Net-(D39-Pad2)*
G04 #@! TO.C,MX39*
X78700000Y-90750000D02*
X78740000Y-90170000D01*
D10*
G04 #@! TO.P,MX38,1*
G04 #@! TO.N,COL1*
X54650000Y-91250000D03*
X53995001Y-91980000D03*
D11*
G04 #@! TD*
G04 #@! TO.N,COL1*
G04 #@! TO.C,MX38*
X53340000Y-92710000D02*
X54650002Y-91250000D01*
D10*
G04 #@! TO.P,MX38,2*
G04 #@! TO.N,Net-(D38-Pad2)*
X59690000Y-90170000D03*
X59670000Y-90460000D03*
D11*
G04 #@! TD*
G04 #@! TO.N,Net-(D38-Pad2)*
G04 #@! TO.C,MX38*
X59650000Y-90750000D02*
X59690000Y-90170000D01*
D10*
G04 #@! TO.P,MX37,1*
G04 #@! TO.N,COL0*
X35600000Y-91250000D03*
X34945001Y-91980000D03*
D11*
G04 #@! TD*
G04 #@! TO.N,COL0*
G04 #@! TO.C,MX37*
X34290000Y-92710000D02*
X35600002Y-91250000D01*
D10*
G04 #@! TO.P,MX37,2*
G04 #@! TO.N,Net-(D37-Pad2)*
X40640000Y-90170000D03*
X40620000Y-90460000D03*
D11*
G04 #@! TD*
G04 #@! TO.N,Net-(D37-Pad2)*
G04 #@! TO.C,MX37*
X40600000Y-90750000D02*
X40640000Y-90170000D01*
D10*
G04 #@! TO.P,MX36,1*
G04 #@! TO.N,COL11*
X245150000Y-72200000D03*
X244495001Y-72930000D03*
D11*
G04 #@! TD*
G04 #@! TO.N,COL11*
G04 #@! TO.C,MX36*
X243840000Y-73660000D02*
X245150002Y-72200000D01*
D10*
G04 #@! TO.P,MX36,2*
G04 #@! TO.N,Net-(D36-Pad2)*
X250190000Y-71120000D03*
X250170000Y-71410000D03*
D11*
G04 #@! TD*
G04 #@! TO.N,Net-(D36-Pad2)*
G04 #@! TO.C,MX36*
X250150000Y-71700000D02*
X250190000Y-71120000D01*
D10*
G04 #@! TO.P,MX35,1*
G04 #@! TO.N,COL10*
X226100000Y-72200000D03*
X225445001Y-72930000D03*
D11*
G04 #@! TD*
G04 #@! TO.N,COL10*
G04 #@! TO.C,MX35*
X224790000Y-73660000D02*
X226100002Y-72200000D01*
D10*
G04 #@! TO.P,MX35,2*
G04 #@! TO.N,Net-(D35-Pad2)*
X231140000Y-71120000D03*
X231120000Y-71410000D03*
D11*
G04 #@! TD*
G04 #@! TO.N,Net-(D35-Pad2)*
G04 #@! TO.C,MX35*
X231100000Y-71700000D02*
X231140000Y-71120000D01*
D10*
G04 #@! TO.P,MX34,1*
G04 #@! TO.N,COL9*
X207050000Y-72200000D03*
X206395001Y-72930000D03*
D11*
G04 #@! TD*
G04 #@! TO.N,COL9*
G04 #@! TO.C,MX34*
X205740000Y-73660000D02*
X207050002Y-72200000D01*
D10*
G04 #@! TO.P,MX34,2*
G04 #@! TO.N,Net-(D34-Pad2)*
X212090000Y-71120000D03*
X212070000Y-71410000D03*
D11*
G04 #@! TD*
G04 #@! TO.N,Net-(D34-Pad2)*
G04 #@! TO.C,MX34*
X212050000Y-71700000D02*
X212090000Y-71120000D01*
D10*
G04 #@! TO.P,MX33,1*
G04 #@! TO.N,COL8*
X188000000Y-72200000D03*
X187345001Y-72930000D03*
D11*
G04 #@! TD*
G04 #@! TO.N,COL8*
G04 #@! TO.C,MX33*
X186690000Y-73660000D02*
X188000002Y-72200000D01*
D10*
G04 #@! TO.P,MX33,2*
G04 #@! TO.N,Net-(D33-Pad2)*
X193040000Y-71120000D03*
X193020000Y-71410000D03*
D11*
G04 #@! TD*
G04 #@! TO.N,Net-(D33-Pad2)*
G04 #@! TO.C,MX33*
X193000000Y-71700000D02*
X193040000Y-71120000D01*
D10*
G04 #@! TO.P,MX32,1*
G04 #@! TO.N,COL7*
X168950000Y-72200000D03*
X168295001Y-72930000D03*
D11*
G04 #@! TD*
G04 #@! TO.N,COL7*
G04 #@! TO.C,MX32*
X167640000Y-73660000D02*
X168950002Y-72200000D01*
D10*
G04 #@! TO.P,MX32,2*
G04 #@! TO.N,Net-(D32-Pad2)*
X173990000Y-71120000D03*
X173970000Y-71410000D03*
D11*
G04 #@! TD*
G04 #@! TO.N,Net-(D32-Pad2)*
G04 #@! TO.C,MX32*
X173950000Y-71700000D02*
X173990000Y-71120000D01*
D10*
G04 #@! TO.P,MX31,1*
G04 #@! TO.N,COL6*
X149900000Y-72200000D03*
X149245001Y-72930000D03*
D11*
G04 #@! TD*
G04 #@! TO.N,COL6*
G04 #@! TO.C,MX31*
X148590000Y-73660000D02*
X149900002Y-72200000D01*
D10*
G04 #@! TO.P,MX31,2*
G04 #@! TO.N,Net-(D31-Pad2)*
X154940000Y-71120000D03*
X154920000Y-71410000D03*
D11*
G04 #@! TD*
G04 #@! TO.N,Net-(D31-Pad2)*
G04 #@! TO.C,MX31*
X154900000Y-71700000D02*
X154940000Y-71120000D01*
D10*
G04 #@! TO.P,MX30,1*
G04 #@! TO.N,COL5*
X130850000Y-72200000D03*
X130195001Y-72930000D03*
D11*
G04 #@! TD*
G04 #@! TO.N,COL5*
G04 #@! TO.C,MX30*
X129540000Y-73660000D02*
X130850002Y-72200000D01*
D10*
G04 #@! TO.P,MX30,2*
G04 #@! TO.N,Net-(D30-Pad2)*
X135890000Y-71120000D03*
X135870000Y-71410000D03*
D11*
G04 #@! TD*
G04 #@! TO.N,Net-(D30-Pad2)*
G04 #@! TO.C,MX30*
X135850000Y-71700000D02*
X135890000Y-71120000D01*
D10*
G04 #@! TO.P,MX29,1*
G04 #@! TO.N,COL4*
X111800000Y-72200000D03*
X111145001Y-72930000D03*
D11*
G04 #@! TD*
G04 #@! TO.N,COL4*
G04 #@! TO.C,MX29*
X110490000Y-73660000D02*
X111800002Y-72200000D01*
D10*
G04 #@! TO.P,MX29,2*
G04 #@! TO.N,Net-(D29-Pad2)*
X116840000Y-71120000D03*
X116820000Y-71410000D03*
D11*
G04 #@! TD*
G04 #@! TO.N,Net-(D29-Pad2)*
G04 #@! TO.C,MX29*
X116800000Y-71700000D02*
X116840000Y-71120000D01*
D10*
G04 #@! TO.P,MX28,1*
G04 #@! TO.N,COL3*
X92750000Y-72200000D03*
X92095001Y-72930000D03*
D11*
G04 #@! TD*
G04 #@! TO.N,COL3*
G04 #@! TO.C,MX28*
X91440000Y-73660000D02*
X92750002Y-72200000D01*
D10*
G04 #@! TO.P,MX28,2*
G04 #@! TO.N,Net-(D28-Pad2)*
X97790000Y-71120000D03*
X97770000Y-71410000D03*
D11*
G04 #@! TD*
G04 #@! TO.N,Net-(D28-Pad2)*
G04 #@! TO.C,MX28*
X97750000Y-71700000D02*
X97790000Y-71120000D01*
D10*
G04 #@! TO.P,MX27,1*
G04 #@! TO.N,COL2*
X73700000Y-72200000D03*
X73045001Y-72930000D03*
D11*
G04 #@! TD*
G04 #@! TO.N,COL2*
G04 #@! TO.C,MX27*
X72390000Y-73660000D02*
X73700002Y-72200000D01*
D10*
G04 #@! TO.P,MX27,2*
G04 #@! TO.N,Net-(D27-Pad2)*
X78740000Y-71120000D03*
X78720000Y-71410000D03*
D11*
G04 #@! TD*
G04 #@! TO.N,Net-(D27-Pad2)*
G04 #@! TO.C,MX27*
X78700000Y-71700000D02*
X78740000Y-71120000D01*
D10*
G04 #@! TO.P,MX26,1*
G04 #@! TO.N,COL1*
X54650000Y-72200000D03*
X53995001Y-72930000D03*
D11*
G04 #@! TD*
G04 #@! TO.N,COL1*
G04 #@! TO.C,MX26*
X53340000Y-73660000D02*
X54650002Y-72200000D01*
D10*
G04 #@! TO.P,MX26,2*
G04 #@! TO.N,Net-(D26-Pad2)*
X59690000Y-71120000D03*
X59670000Y-71410000D03*
D11*
G04 #@! TD*
G04 #@! TO.N,Net-(D26-Pad2)*
G04 #@! TO.C,MX26*
X59650000Y-71700000D02*
X59690000Y-71120000D01*
D10*
G04 #@! TO.P,MX25,1*
G04 #@! TO.N,COL0*
X35600000Y-72200000D03*
X34945001Y-72930000D03*
D11*
G04 #@! TD*
G04 #@! TO.N,COL0*
G04 #@! TO.C,MX25*
X34290000Y-73660000D02*
X35600002Y-72200000D01*
D10*
G04 #@! TO.P,MX25,2*
G04 #@! TO.N,Net-(D25-Pad2)*
X40640000Y-71120000D03*
X40620000Y-71410000D03*
D11*
G04 #@! TD*
G04 #@! TO.N,Net-(D25-Pad2)*
G04 #@! TO.C,MX25*
X40600000Y-71700000D02*
X40640000Y-71120000D01*
D10*
G04 #@! TO.P,MX24,1*
G04 #@! TO.N,COL11*
X245150000Y-53150000D03*
X244495001Y-53880000D03*
D11*
G04 #@! TD*
G04 #@! TO.N,COL11*
G04 #@! TO.C,MX24*
X243840000Y-54610000D02*
X245150002Y-53150000D01*
D10*
G04 #@! TO.P,MX24,2*
G04 #@! TO.N,Net-(D24-Pad2)*
X250190000Y-52070000D03*
X250170000Y-52360000D03*
D11*
G04 #@! TD*
G04 #@! TO.N,Net-(D24-Pad2)*
G04 #@! TO.C,MX24*
X250150000Y-52650000D02*
X250190000Y-52070000D01*
D10*
G04 #@! TO.P,MX23,1*
G04 #@! TO.N,COL10*
X226100000Y-53150000D03*
X225445001Y-53880000D03*
D11*
G04 #@! TD*
G04 #@! TO.N,COL10*
G04 #@! TO.C,MX23*
X224790000Y-54610000D02*
X226100002Y-53150000D01*
D10*
G04 #@! TO.P,MX23,2*
G04 #@! TO.N,Net-(D23-Pad2)*
X231140000Y-52070000D03*
X231120000Y-52360000D03*
D11*
G04 #@! TD*
G04 #@! TO.N,Net-(D23-Pad2)*
G04 #@! TO.C,MX23*
X231100000Y-52650000D02*
X231140000Y-52070000D01*
D10*
G04 #@! TO.P,MX22,1*
G04 #@! TO.N,COL9*
X207050000Y-53150000D03*
X206395001Y-53880000D03*
D11*
G04 #@! TD*
G04 #@! TO.N,COL9*
G04 #@! TO.C,MX22*
X205740000Y-54610000D02*
X207050002Y-53150000D01*
D10*
G04 #@! TO.P,MX22,2*
G04 #@! TO.N,Net-(D22-Pad2)*
X212090000Y-52070000D03*
X212070000Y-52360000D03*
D11*
G04 #@! TD*
G04 #@! TO.N,Net-(D22-Pad2)*
G04 #@! TO.C,MX22*
X212050000Y-52650000D02*
X212090000Y-52070000D01*
D10*
G04 #@! TO.P,MX21,1*
G04 #@! TO.N,COL8*
X188000000Y-53150000D03*
X187345001Y-53880000D03*
D11*
G04 #@! TD*
G04 #@! TO.N,COL8*
G04 #@! TO.C,MX21*
X186690000Y-54610000D02*
X188000002Y-53150000D01*
D10*
G04 #@! TO.P,MX21,2*
G04 #@! TO.N,Net-(D21-Pad2)*
X193040000Y-52070000D03*
X193020000Y-52360000D03*
D11*
G04 #@! TD*
G04 #@! TO.N,Net-(D21-Pad2)*
G04 #@! TO.C,MX21*
X193000000Y-52650000D02*
X193040000Y-52070000D01*
D10*
G04 #@! TO.P,MX20,1*
G04 #@! TO.N,COL7*
X168950000Y-53150000D03*
X168295001Y-53880000D03*
D11*
G04 #@! TD*
G04 #@! TO.N,COL7*
G04 #@! TO.C,MX20*
X167640000Y-54610000D02*
X168950002Y-53150000D01*
D10*
G04 #@! TO.P,MX20,2*
G04 #@! TO.N,Net-(D20-Pad2)*
X173990000Y-52070000D03*
X173970000Y-52360000D03*
D11*
G04 #@! TD*
G04 #@! TO.N,Net-(D20-Pad2)*
G04 #@! TO.C,MX20*
X173950000Y-52650000D02*
X173990000Y-52070000D01*
D10*
G04 #@! TO.P,MX19,1*
G04 #@! TO.N,COL6*
X149900000Y-53150000D03*
X149245001Y-53880000D03*
D11*
G04 #@! TD*
G04 #@! TO.N,COL6*
G04 #@! TO.C,MX19*
X148590000Y-54610000D02*
X149900002Y-53150000D01*
D10*
G04 #@! TO.P,MX19,2*
G04 #@! TO.N,Net-(D19-Pad2)*
X154940000Y-52070000D03*
X154920000Y-52360000D03*
D11*
G04 #@! TD*
G04 #@! TO.N,Net-(D19-Pad2)*
G04 #@! TO.C,MX19*
X154900000Y-52650000D02*
X154940000Y-52070000D01*
D10*
G04 #@! TO.P,MX18,1*
G04 #@! TO.N,COL5*
X130850000Y-53150000D03*
X130195001Y-53880000D03*
D11*
G04 #@! TD*
G04 #@! TO.N,COL5*
G04 #@! TO.C,MX18*
X129540000Y-54610000D02*
X130850002Y-53150000D01*
D10*
G04 #@! TO.P,MX18,2*
G04 #@! TO.N,Net-(D18-Pad2)*
X135890000Y-52070000D03*
X135870000Y-52360000D03*
D11*
G04 #@! TD*
G04 #@! TO.N,Net-(D18-Pad2)*
G04 #@! TO.C,MX18*
X135850000Y-52650000D02*
X135890000Y-52070000D01*
D10*
G04 #@! TO.P,MX17,1*
G04 #@! TO.N,COL4*
X111800000Y-53150000D03*
X111145001Y-53880000D03*
D11*
G04 #@! TD*
G04 #@! TO.N,COL4*
G04 #@! TO.C,MX17*
X110490000Y-54610000D02*
X111800002Y-53150000D01*
D10*
G04 #@! TO.P,MX17,2*
G04 #@! TO.N,Net-(D17-Pad2)*
X116840000Y-52070000D03*
X116820000Y-52360000D03*
D11*
G04 #@! TD*
G04 #@! TO.N,Net-(D17-Pad2)*
G04 #@! TO.C,MX17*
X116800000Y-52650000D02*
X116840000Y-52070000D01*
D10*
G04 #@! TO.P,MX16,1*
G04 #@! TO.N,COL3*
X92750000Y-53150000D03*
X92095001Y-53880000D03*
D11*
G04 #@! TD*
G04 #@! TO.N,COL3*
G04 #@! TO.C,MX16*
X91440000Y-54610000D02*
X92750002Y-53150000D01*
D10*
G04 #@! TO.P,MX16,2*
G04 #@! TO.N,Net-(D16-Pad2)*
X97790000Y-52070000D03*
X97770000Y-52360000D03*
D11*
G04 #@! TD*
G04 #@! TO.N,Net-(D16-Pad2)*
G04 #@! TO.C,MX16*
X97750000Y-52650000D02*
X97790000Y-52070000D01*
D10*
G04 #@! TO.P,MX15,1*
G04 #@! TO.N,COL2*
X73700000Y-53150000D03*
X73045001Y-53880000D03*
D11*
G04 #@! TD*
G04 #@! TO.N,COL2*
G04 #@! TO.C,MX15*
X72390000Y-54610000D02*
X73700002Y-53150000D01*
D10*
G04 #@! TO.P,MX15,2*
G04 #@! TO.N,Net-(D15-Pad2)*
X78740000Y-52070000D03*
X78720000Y-52360000D03*
D11*
G04 #@! TD*
G04 #@! TO.N,Net-(D15-Pad2)*
G04 #@! TO.C,MX15*
X78700000Y-52650000D02*
X78740000Y-52070000D01*
D10*
G04 #@! TO.P,MX14,1*
G04 #@! TO.N,COL1*
X54650000Y-53150000D03*
X53995001Y-53880000D03*
D11*
G04 #@! TD*
G04 #@! TO.N,COL1*
G04 #@! TO.C,MX14*
X53340000Y-54610000D02*
X54650002Y-53150000D01*
D10*
G04 #@! TO.P,MX14,2*
G04 #@! TO.N,Net-(D14-Pad2)*
X59690000Y-52070000D03*
X59670000Y-52360000D03*
D11*
G04 #@! TD*
G04 #@! TO.N,Net-(D14-Pad2)*
G04 #@! TO.C,MX14*
X59650000Y-52650000D02*
X59690000Y-52070000D01*
D10*
G04 #@! TO.P,MX13,1*
G04 #@! TO.N,COL0*
X35600000Y-53150000D03*
X34945001Y-53880000D03*
D11*
G04 #@! TD*
G04 #@! TO.N,COL0*
G04 #@! TO.C,MX13*
X34290000Y-54610000D02*
X35600002Y-53150000D01*
D10*
G04 #@! TO.P,MX13,2*
G04 #@! TO.N,Net-(D13-Pad2)*
X40640000Y-52070000D03*
X40620000Y-52360000D03*
D11*
G04 #@! TD*
G04 #@! TO.N,Net-(D13-Pad2)*
G04 #@! TO.C,MX13*
X40600000Y-52650000D02*
X40640000Y-52070000D01*
D10*
G04 #@! TO.P,MX12,1*
G04 #@! TO.N,COL11*
X245150000Y-34100000D03*
X244495001Y-34830000D03*
D11*
G04 #@! TD*
G04 #@! TO.N,COL11*
G04 #@! TO.C,MX12*
X243840000Y-35560000D02*
X245150002Y-34100000D01*
D10*
G04 #@! TO.P,MX12,2*
G04 #@! TO.N,Net-(D12-Pad2)*
X250190000Y-33020000D03*
X250170000Y-33310000D03*
D11*
G04 #@! TD*
G04 #@! TO.N,Net-(D12-Pad2)*
G04 #@! TO.C,MX12*
X250150000Y-33600000D02*
X250190000Y-33020000D01*
D10*
G04 #@! TO.P,MX10,1*
G04 #@! TO.N,COL9*
X207050000Y-34100000D03*
X206395001Y-34830000D03*
D11*
G04 #@! TD*
G04 #@! TO.N,COL9*
G04 #@! TO.C,MX10*
X205740000Y-35560000D02*
X207050002Y-34100000D01*
D10*
G04 #@! TO.P,MX10,2*
G04 #@! TO.N,Net-(D10-Pad2)*
X212090000Y-33020000D03*
X212070000Y-33310000D03*
D11*
G04 #@! TD*
G04 #@! TO.N,Net-(D10-Pad2)*
G04 #@! TO.C,MX10*
X212050000Y-33600000D02*
X212090000Y-33020000D01*
D10*
G04 #@! TO.P,MX9,1*
G04 #@! TO.N,COL8*
X188000000Y-34100000D03*
X187345001Y-34830000D03*
D11*
G04 #@! TD*
G04 #@! TO.N,COL8*
G04 #@! TO.C,MX9*
X186690000Y-35560000D02*
X188000002Y-34100000D01*
D10*
G04 #@! TO.P,MX9,2*
G04 #@! TO.N,Net-(D9-Pad2)*
X193040000Y-33020000D03*
X193020000Y-33310000D03*
D11*
G04 #@! TD*
G04 #@! TO.N,Net-(D9-Pad2)*
G04 #@! TO.C,MX9*
X193000000Y-33600000D02*
X193040000Y-33020000D01*
D10*
G04 #@! TO.P,MX8,1*
G04 #@! TO.N,COL7*
X168950000Y-34100000D03*
X168295001Y-34830000D03*
D11*
G04 #@! TD*
G04 #@! TO.N,COL7*
G04 #@! TO.C,MX8*
X167640000Y-35560000D02*
X168950002Y-34100000D01*
D10*
G04 #@! TO.P,MX8,2*
G04 #@! TO.N,Net-(D8-Pad2)*
X173990000Y-33020000D03*
X173970000Y-33310000D03*
D11*
G04 #@! TD*
G04 #@! TO.N,Net-(D8-Pad2)*
G04 #@! TO.C,MX8*
X173950000Y-33600000D02*
X173990000Y-33020000D01*
D10*
G04 #@! TO.P,MX7,1*
G04 #@! TO.N,COL6*
X149900000Y-34100000D03*
X149245001Y-34830000D03*
D11*
G04 #@! TD*
G04 #@! TO.N,COL6*
G04 #@! TO.C,MX7*
X148590000Y-35560000D02*
X149900002Y-34100000D01*
D10*
G04 #@! TO.P,MX7,2*
G04 #@! TO.N,Net-(D7-Pad2)*
X154940000Y-33020000D03*
X154920000Y-33310000D03*
D11*
G04 #@! TD*
G04 #@! TO.N,Net-(D7-Pad2)*
G04 #@! TO.C,MX7*
X154900000Y-33600000D02*
X154940000Y-33020000D01*
D10*
G04 #@! TO.P,MX6,1*
G04 #@! TO.N,COL5*
X130850000Y-34100000D03*
X130195001Y-34830000D03*
D11*
G04 #@! TD*
G04 #@! TO.N,COL5*
G04 #@! TO.C,MX6*
X129540000Y-35560000D02*
X130850002Y-34100000D01*
D10*
G04 #@! TO.P,MX6,2*
G04 #@! TO.N,Net-(D6-Pad2)*
X135890000Y-33020000D03*
X135870000Y-33310000D03*
D11*
G04 #@! TD*
G04 #@! TO.N,Net-(D6-Pad2)*
G04 #@! TO.C,MX6*
X135850000Y-33600000D02*
X135890000Y-33020000D01*
D10*
G04 #@! TO.P,MX5,1*
G04 #@! TO.N,COL4*
X111800000Y-34100000D03*
X111145001Y-34830000D03*
D11*
G04 #@! TD*
G04 #@! TO.N,COL4*
G04 #@! TO.C,MX5*
X110490000Y-35560000D02*
X111800002Y-34100000D01*
D10*
G04 #@! TO.P,MX5,2*
G04 #@! TO.N,Net-(D5-Pad2)*
X116840000Y-33020000D03*
X116820000Y-33310000D03*
D11*
G04 #@! TD*
G04 #@! TO.N,Net-(D5-Pad2)*
G04 #@! TO.C,MX5*
X116800000Y-33600000D02*
X116840000Y-33020000D01*
D10*
G04 #@! TO.P,MX4,1*
G04 #@! TO.N,COL3*
X92750000Y-34100000D03*
X92095001Y-34830000D03*
D11*
G04 #@! TD*
G04 #@! TO.N,COL3*
G04 #@! TO.C,MX4*
X91440000Y-35560000D02*
X92750002Y-34100000D01*
D10*
G04 #@! TO.P,MX4,2*
G04 #@! TO.N,Net-(D4-Pad2)*
X97790000Y-33020000D03*
X97770000Y-33310000D03*
D11*
G04 #@! TD*
G04 #@! TO.N,Net-(D4-Pad2)*
G04 #@! TO.C,MX4*
X97750000Y-33600000D02*
X97790000Y-33020000D01*
D10*
G04 #@! TO.P,MX3,1*
G04 #@! TO.N,COL2*
X73700000Y-34100000D03*
X73045001Y-34830000D03*
D11*
G04 #@! TD*
G04 #@! TO.N,COL2*
G04 #@! TO.C,MX3*
X72390000Y-35560000D02*
X73700002Y-34100000D01*
D10*
G04 #@! TO.P,MX3,2*
G04 #@! TO.N,Net-(D3-Pad2)*
X78740000Y-33020000D03*
X78720000Y-33310000D03*
D11*
G04 #@! TD*
G04 #@! TO.N,Net-(D3-Pad2)*
G04 #@! TO.C,MX3*
X78700000Y-33600000D02*
X78740000Y-33020000D01*
D10*
G04 #@! TO.P,MX2,1*
G04 #@! TO.N,COL1*
X54650000Y-34100000D03*
X53995001Y-34830000D03*
D11*
G04 #@! TD*
G04 #@! TO.N,COL1*
G04 #@! TO.C,MX2*
X53340000Y-35560000D02*
X54650002Y-34100000D01*
D10*
G04 #@! TO.P,MX2,2*
G04 #@! TO.N,Net-(D2-Pad2)*
X59690000Y-33020000D03*
X59670000Y-33310000D03*
D11*
G04 #@! TD*
G04 #@! TO.N,Net-(D2-Pad2)*
G04 #@! TO.C,MX2*
X59650000Y-33600000D02*
X59690000Y-33020000D01*
D10*
G04 #@! TO.P,MX1,1*
G04 #@! TO.N,COL0*
X35600000Y-34100000D03*
X34945001Y-34830000D03*
D11*
G04 #@! TD*
G04 #@! TO.N,COL0*
G04 #@! TO.C,MX1*
X34290000Y-35560000D02*
X35600002Y-34100000D01*
D10*
G04 #@! TO.P,MX1,2*
G04 #@! TO.N,Net-(D1-Pad2)*
X40640000Y-33020000D03*
X40620000Y-33310000D03*
D11*
G04 #@! TD*
G04 #@! TO.N,Net-(D1-Pad2)*
G04 #@! TO.C,MX1*
X40600000Y-33600000D02*
X40640000Y-33020000D01*
D13*
G04 #@! TO.P,REF\002A\002A,1*
G04 #@! TO.N,N/C*
X238125000Y-85725000D03*
D14*
X239775000Y-85725000D03*
X239291726Y-86891726D03*
X238125000Y-87375000D03*
X236958274Y-86891726D03*
X236475000Y-85725000D03*
X236958274Y-84558274D03*
X238125000Y-84075000D03*
X239291726Y-84558274D03*
G04 #@! TD*
D13*
G04 #@! TO.P,REF\002A\002A,1*
G04 #@! TO.N,N/C*
X238125000Y-47625000D03*
D14*
X239775000Y-47625000D03*
X239291726Y-48791726D03*
X238125000Y-49275000D03*
X236958274Y-48791726D03*
X236475000Y-47625000D03*
X236958274Y-46458274D03*
X238125000Y-45975000D03*
X239291726Y-46458274D03*
G04 #@! TD*
D13*
G04 #@! TO.P,REF\002A\002A,1*
G04 #@! TO.N,N/C*
X142875000Y-66675000D03*
D14*
X144525000Y-66675000D03*
X144041726Y-67841726D03*
X142875000Y-68325000D03*
X141708274Y-67841726D03*
X141225000Y-66675000D03*
X141708274Y-65508274D03*
X142875000Y-65025000D03*
X144041726Y-65508274D03*
G04 #@! TD*
D13*
G04 #@! TO.P,REF\002A\002A,1*
G04 #@! TO.N,N/C*
X47625000Y-47625000D03*
D14*
X49275000Y-47625000D03*
X48791726Y-48791726D03*
X47625000Y-49275000D03*
X46458274Y-48791726D03*
X45975000Y-47625000D03*
X46458274Y-46458274D03*
X47625000Y-45975000D03*
X48791726Y-46458274D03*
G04 #@! TD*
D13*
G04 #@! TO.P,REF\002A\002A,1*
G04 #@! TO.N,N/C*
X47625000Y-85725000D03*
D14*
X49275000Y-85725000D03*
X48791726Y-86891726D03*
X47625000Y-87375000D03*
X46458274Y-86891726D03*
X45975000Y-85725000D03*
X46458274Y-84558274D03*
X47625000Y-84075000D03*
X48791726Y-84558274D03*
G04 #@! TD*
D15*
G04 #@! TO.P,D1,1*
G04 #@! TO.N,ROW0*
X47625000Y-41751250D03*
D16*
G04 #@! TO.P,D1,2*
G04 #@! TO.N,Net-(D1-Pad2)*
X47625000Y-34131250D03*
G04 #@! TD*
G04 #@! TO.P,D2,2*
G04 #@! TO.N,Net-(D2-Pad2)*
X53181250Y-47625000D03*
D15*
G04 #@! TO.P,D2,1*
G04 #@! TO.N,ROW0*
X60801250Y-47625000D03*
G04 #@! TD*
D16*
G04 #@! TO.P,D3,2*
G04 #@! TO.N,Net-(D3-Pad2)*
X72231250Y-66675000D03*
D15*
G04 #@! TO.P,D3,1*
G04 #@! TO.N,ROW0*
X79851250Y-66675000D03*
G04 #@! TD*
G04 #@! TO.P,D4,1*
G04 #@! TO.N,ROW0*
X104775000Y-41751250D03*
D16*
G04 #@! TO.P,D4,2*
G04 #@! TO.N,Net-(D4-Pad2)*
X104775000Y-34131250D03*
G04 #@! TD*
D15*
G04 #@! TO.P,D5,1*
G04 #@! TO.N,ROW0*
X123825000Y-41751250D03*
D16*
G04 #@! TO.P,D5,2*
G04 #@! TO.N,Net-(D5-Pad2)*
X123825000Y-34131250D03*
G04 #@! TD*
G04 #@! TO.P,D6,2*
G04 #@! TO.N,Net-(D6-Pad2)*
X142875000Y-34131250D03*
D15*
G04 #@! TO.P,D6,1*
G04 #@! TO.N,ROW0*
X142875000Y-41751250D03*
G04 #@! TD*
D16*
G04 #@! TO.P,D7,2*
G04 #@! TO.N,Net-(D7-Pad2)*
X161925000Y-34131250D03*
D15*
G04 #@! TO.P,D7,1*
G04 #@! TO.N,ROW0*
X161925000Y-41751250D03*
G04 #@! TD*
D16*
G04 #@! TO.P,D8,2*
G04 #@! TO.N,Net-(D8-Pad2)*
X180975000Y-34131250D03*
D15*
G04 #@! TO.P,D8,1*
G04 #@! TO.N,ROW0*
X180975000Y-41751250D03*
G04 #@! TD*
D16*
G04 #@! TO.P,D9,2*
G04 #@! TO.N,Net-(D9-Pad2)*
X200025000Y-34131250D03*
D15*
G04 #@! TO.P,D9,1*
G04 #@! TO.N,ROW0*
X200025000Y-41751250D03*
G04 #@! TD*
G04 #@! TO.P,D10,1*
G04 #@! TO.N,ROW0*
X219075000Y-41751250D03*
D16*
G04 #@! TO.P,D10,2*
G04 #@! TO.N,Net-(D10-Pad2)*
X219075000Y-34131250D03*
G04 #@! TD*
D15*
G04 #@! TO.P,D11,1*
G04 #@! TO.N,ROW0*
X238125000Y-41751250D03*
D16*
G04 #@! TO.P,D11,2*
G04 #@! TO.N,Net-(D11-Pad2)*
X238125000Y-34131250D03*
G04 #@! TD*
D15*
G04 #@! TO.P,D12,1*
G04 #@! TO.N,ROW0*
X251301250Y-47625000D03*
D16*
G04 #@! TO.P,D12,2*
G04 #@! TO.N,Net-(D12-Pad2)*
X243681250Y-47625000D03*
G04 #@! TD*
D15*
G04 #@! TO.P,D13,1*
G04 #@! TO.N,ROW1*
X42068750Y-47625000D03*
D16*
G04 #@! TO.P,D13,2*
G04 #@! TO.N,Net-(D13-Pad2)*
X34448750Y-47625000D03*
G04 #@! TD*
D15*
G04 #@! TO.P,D14,1*
G04 #@! TO.N,ROW1*
X60801250Y-66675000D03*
D16*
G04 #@! TO.P,D14,2*
G04 #@! TO.N,Net-(D14-Pad2)*
X53181250Y-66675000D03*
G04 #@! TD*
G04 #@! TO.P,D15,2*
G04 #@! TO.N,Net-(D15-Pad2)*
X91281250Y-66675000D03*
D15*
G04 #@! TO.P,D15,1*
G04 #@! TO.N,ROW1*
X98901250Y-66675000D03*
G04 #@! TD*
G04 #@! TO.P,D16,1*
G04 #@! TO.N,ROW1*
X104775000Y-60801250D03*
D16*
G04 #@! TO.P,D16,2*
G04 #@! TO.N,Net-(D16-Pad2)*
X104775000Y-53181250D03*
G04 #@! TD*
G04 #@! TO.P,D17,2*
G04 #@! TO.N,Net-(D17-Pad2)*
X123825000Y-53181250D03*
D15*
G04 #@! TO.P,D17,1*
G04 #@! TO.N,ROW1*
X123825000Y-60801250D03*
G04 #@! TD*
G04 #@! TO.P,D18,1*
G04 #@! TO.N,ROW1*
X142875000Y-60801250D03*
D16*
G04 #@! TO.P,D18,2*
G04 #@! TO.N,Net-(D18-Pad2)*
X142875000Y-53181250D03*
G04 #@! TD*
D15*
G04 #@! TO.P,D19,1*
G04 #@! TO.N,ROW1*
X161925000Y-60801250D03*
D16*
G04 #@! TO.P,D19,2*
G04 #@! TO.N,Net-(D19-Pad2)*
X161925000Y-53181250D03*
G04 #@! TD*
G04 #@! TO.P,D20,2*
G04 #@! TO.N,Net-(D20-Pad2)*
X180975000Y-53181250D03*
D15*
G04 #@! TO.P,D20,1*
G04 #@! TO.N,ROW1*
X180975000Y-60801250D03*
G04 #@! TD*
D16*
G04 #@! TO.P,D21,2*
G04 #@! TO.N,Net-(D21-Pad2)*
X200025000Y-53181250D03*
D15*
G04 #@! TO.P,D21,1*
G04 #@! TO.N,ROW1*
X200025000Y-60801250D03*
G04 #@! TD*
G04 #@! TO.P,D22,1*
G04 #@! TO.N,ROW1*
X219075000Y-60801250D03*
D16*
G04 #@! TO.P,D22,2*
G04 #@! TO.N,Net-(D22-Pad2)*
X219075000Y-53181250D03*
G04 #@! TD*
D15*
G04 #@! TO.P,D23,1*
G04 #@! TO.N,ROW1*
X238125000Y-60801250D03*
D16*
G04 #@! TO.P,D23,2*
G04 #@! TO.N,Net-(D23-Pad2)*
X238125000Y-53181250D03*
G04 #@! TD*
G04 #@! TO.P,D24,2*
G04 #@! TO.N,Net-(D24-Pad2)*
X243681250Y-66675000D03*
D15*
G04 #@! TO.P,D24,1*
G04 #@! TO.N,ROW1*
X251301250Y-66675000D03*
G04 #@! TD*
D16*
G04 #@! TO.P,D25,2*
G04 #@! TO.N,Net-(D25-Pad2)*
X53498750Y-85725000D03*
D15*
G04 #@! TO.P,D25,1*
G04 #@! TO.N,ROW2*
X61118750Y-85725000D03*
G04 #@! TD*
G04 #@! TO.P,D26,1*
G04 #@! TO.N,ROW2*
X66675000Y-79851250D03*
D16*
G04 #@! TO.P,D26,2*
G04 #@! TO.N,Net-(D26-Pad2)*
X66675000Y-72231250D03*
G04 #@! TD*
G04 #@! TO.P,D27,2*
G04 #@! TO.N,Net-(D27-Pad2)*
X85725000Y-72231250D03*
D15*
G04 #@! TO.P,D27,1*
G04 #@! TO.N,ROW2*
X85725000Y-79851250D03*
G04 #@! TD*
D16*
G04 #@! TO.P,D28,2*
G04 #@! TO.N,Net-(D28-Pad2)*
X104775000Y-72231250D03*
D15*
G04 #@! TO.P,D28,1*
G04 #@! TO.N,ROW2*
X104775000Y-79851250D03*
G04 #@! TD*
G04 #@! TO.P,D29,1*
G04 #@! TO.N,ROW2*
X123825000Y-79851250D03*
D16*
G04 #@! TO.P,D29,2*
G04 #@! TO.N,Net-(D29-Pad2)*
X123825000Y-72231250D03*
G04 #@! TD*
D15*
G04 #@! TO.P,D30,1*
G04 #@! TO.N,ROW2*
X142875000Y-79851250D03*
D16*
G04 #@! TO.P,D30,2*
G04 #@! TO.N,Net-(D30-Pad2)*
X142875000Y-72231250D03*
G04 #@! TD*
G04 #@! TO.P,D31,2*
G04 #@! TO.N,Net-(D31-Pad2)*
X161925000Y-72231250D03*
D15*
G04 #@! TO.P,D31,1*
G04 #@! TO.N,ROW2*
X161925000Y-79851250D03*
G04 #@! TD*
D16*
G04 #@! TO.P,D32,2*
G04 #@! TO.N,Net-(D32-Pad2)*
X180975000Y-72231250D03*
D15*
G04 #@! TO.P,D32,1*
G04 #@! TO.N,ROW2*
X180975000Y-79851250D03*
G04 #@! TD*
G04 #@! TO.P,D33,1*
G04 #@! TO.N,ROW2*
X200025000Y-79851250D03*
D16*
G04 #@! TO.P,D33,2*
G04 #@! TO.N,Net-(D33-Pad2)*
X200025000Y-72231250D03*
G04 #@! TD*
D15*
G04 #@! TO.P,D34,1*
G04 #@! TO.N,ROW2*
X219075000Y-79851250D03*
D16*
G04 #@! TO.P,D34,2*
G04 #@! TO.N,Net-(D34-Pad2)*
X219075000Y-72231250D03*
G04 #@! TD*
G04 #@! TO.P,D35,2*
G04 #@! TO.N,Net-(D35-Pad2)*
X224631250Y-85725000D03*
D15*
G04 #@! TO.P,D35,1*
G04 #@! TO.N,ROW2*
X232251250Y-85725000D03*
G04 #@! TD*
G04 #@! TO.P,D36,1*
G04 #@! TO.N,ROW2*
X238125000Y-79851250D03*
D16*
G04 #@! TO.P,D36,2*
G04 #@! TO.N,Net-(D36-Pad2)*
X238125000Y-72231250D03*
G04 #@! TD*
G04 #@! TO.P,D37,2*
G04 #@! TO.N,Net-(D37-Pad2)*
X34131250Y-85725000D03*
D15*
G04 #@! TO.P,D37,1*
G04 #@! TO.N,ROW3*
X41751250Y-85725000D03*
G04 #@! TD*
G04 #@! TO.P,D38,1*
G04 #@! TO.N,ROW3*
X47625000Y-98901250D03*
D16*
G04 #@! TO.P,D38,2*
G04 #@! TO.N,Net-(D38-Pad2)*
X47625000Y-91281250D03*
G04 #@! TD*
G04 #@! TO.P,D39,2*
G04 #@! TO.N,Net-(D39-Pad2)*
X66675000Y-91281250D03*
D15*
G04 #@! TO.P,D39,1*
G04 #@! TO.N,ROW3*
X66675000Y-98901250D03*
G04 #@! TD*
D16*
G04 #@! TO.P,D40,2*
G04 #@! TO.N,Net-(D40-Pad2)*
X85725000Y-91281250D03*
D15*
G04 #@! TO.P,D40,1*
G04 #@! TO.N,ROW3*
X85725000Y-98901250D03*
G04 #@! TD*
G04 #@! TO.P,D41,1*
G04 #@! TO.N,ROW3*
X104775000Y-98901250D03*
D16*
G04 #@! TO.P,D41,2*
G04 #@! TO.N,Net-(D41-Pad2)*
X104775000Y-91281250D03*
G04 #@! TD*
G04 #@! TO.P,D42,2*
G04 #@! TO.N,Net-(D42-Pad2)*
X123825000Y-91281250D03*
D15*
G04 #@! TO.P,D42,1*
G04 #@! TO.N,ROW3*
X123825000Y-98901250D03*
G04 #@! TD*
G04 #@! TO.P,D43,1*
G04 #@! TO.N,ROW3*
X161925000Y-98901250D03*
D16*
G04 #@! TO.P,D43,2*
G04 #@! TO.N,Net-(D43-Pad2)*
X161925000Y-91281250D03*
G04 #@! TD*
G04 #@! TO.P,D44,2*
G04 #@! TO.N,Net-(D44-Pad2)*
X180975000Y-91281250D03*
D15*
G04 #@! TO.P,D44,1*
G04 #@! TO.N,ROW3*
X180975000Y-98901250D03*
G04 #@! TD*
D16*
G04 #@! TO.P,D45,2*
G04 #@! TO.N,Net-(D45-Pad2)*
X200025000Y-91281250D03*
D15*
G04 #@! TO.P,D45,1*
G04 #@! TO.N,ROW3*
X200025000Y-98901250D03*
G04 #@! TD*
D16*
G04 #@! TO.P,D46,2*
G04 #@! TO.N,Net-(D46-Pad2)*
X219075000Y-91281250D03*
D15*
G04 #@! TO.P,D46,1*
G04 #@! TO.N,ROW3*
X219075000Y-98901250D03*
G04 #@! TD*
G04 #@! TO.P,D47,1*
G04 #@! TO.N,ROW3*
X238125000Y-98901250D03*
D16*
G04 #@! TO.P,D47,2*
G04 #@! TO.N,Net-(D47-Pad2)*
X238125000Y-91281250D03*
G04 #@! TD*
D15*
G04 #@! TO.P,D48,1*
G04 #@! TO.N,ROW3*
X251301250Y-85725000D03*
D16*
G04 #@! TO.P,D48,2*
G04 #@! TO.N,Net-(D48-Pad2)*
X243681250Y-85725000D03*
G04 #@! TD*
D17*
G04 #@! TO.P,SW1,1*
G04 #@! TO.N,Net-(SW1-Pad1)*
X49875000Y-63425000D03*
G04 #@! TO.P,SW1,2*
G04 #@! TO.N,GND*
X45375000Y-69925000D03*
G04 #@! TO.P,SW1,3*
G04 #@! TO.N,N/C*
X45375000Y-63425000D03*
G04 #@! TO.P,SW1,4*
X49875000Y-69925000D03*
G04 #@! TD*
D18*
G04 #@! TO.P,J1,4*
G04 #@! TO.N,+5V*
X34290000Y-66675000D03*
G04 #@! TO.P,J1,3*
G04 #@! TO.N,PIN18*
X36830000Y-66675000D03*
G04 #@! TO.P,J1,2*
G04 #@! TO.N,PIN15*
X39370000Y-66675000D03*
D19*
G04 #@! TO.P,J1,1*
G04 #@! TO.N,GND*
X41910000Y-66675000D03*
G04 #@! TD*
D20*
G04 #@! TO.N,PIN18*
X57785000Y-69596000D03*
G04 #@! TO.N,PIN15*
X58547000Y-69088000D03*
G04 #@! TD*
D21*
G04 #@! TO.N,ROW1*
X68580000Y-55403750D02*
X60801250Y-63182500D01*
X60801250Y-63182500D02*
X60801250Y-66675000D01*
G04 #@! TO.N,ROW2*
X68072000Y-78454250D02*
X66675000Y-79851250D01*
X68072000Y-62103000D02*
X68072000Y-78454250D01*
X67056000Y-61087000D02*
X68072000Y-62103000D01*
X67056000Y-59467750D02*
X67056000Y-61087000D01*
X68580000Y-57943750D02*
X67056000Y-59467750D01*
G04 #@! TO.N,ROW3*
X68580000Y-96996250D02*
X66675000Y-98901250D01*
X68580000Y-60483750D02*
X68580000Y-96996250D01*
G04 #@! TO.N,COL0*
X35600000Y-72200000D02*
X35600000Y-91250000D01*
X35600000Y-34100000D02*
X35600000Y-39031974D01*
X35600000Y-39031974D02*
X35600000Y-53150000D01*
X35600000Y-32345000D02*
X35600000Y-34100000D01*
X36576000Y-31369000D02*
X35600000Y-32345000D01*
X66292590Y-40416340D02*
X66292590Y-37211000D01*
X66292590Y-37211000D02*
X64827991Y-35746401D01*
X64827991Y-35746401D02*
X64827990Y-35744990D01*
X64827990Y-35744990D02*
X60452000Y-31369000D01*
X68580000Y-42703750D02*
X66292590Y-40416340D01*
X60452000Y-31369000D02*
X36576000Y-31369000D01*
X38775500Y-69024500D02*
X42354500Y-69024500D01*
X35600000Y-72200000D02*
X38775500Y-69024500D01*
X42354500Y-69024500D02*
X43561000Y-67818000D01*
X43561000Y-67818000D02*
X43561000Y-65405000D01*
X34290000Y-54610000D02*
X39370000Y-54610000D01*
X40767000Y-56007000D02*
X40767000Y-62611000D01*
X39370000Y-54610000D02*
X40767000Y-56007000D01*
X43561000Y-65405000D02*
X40767000Y-62611000D01*
G04 #@! TO.N,COL1*
X54650000Y-72200000D02*
X54650000Y-73790990D01*
X54650000Y-73790990D02*
X54650000Y-91250000D01*
X54650000Y-53150000D02*
X54650000Y-72200000D01*
X54650000Y-34100000D02*
X54650000Y-47821252D01*
X68580000Y-45243750D02*
X60166250Y-45243750D01*
X54650000Y-50760000D02*
X54650000Y-51181000D01*
X60166250Y-45243750D02*
X54650000Y-50760000D01*
X54650000Y-47821252D02*
X54650000Y-51181000D01*
X54650000Y-51181000D02*
X54650000Y-53150000D01*
G04 #@! TO.N,COL2*
X73700000Y-72200000D02*
X73700000Y-91250000D01*
X73700000Y-53150000D02*
X73700000Y-72200000D01*
X72517000Y-35687000D02*
X72390000Y-35560000D01*
X73787000Y-35687000D02*
X72517000Y-35687000D01*
X73787000Y-51054000D02*
X73787000Y-35687000D01*
X73787000Y-53063000D02*
X73700000Y-53150000D01*
X73787000Y-51054000D02*
X73787000Y-53063000D01*
X72390000Y-54610000D02*
X77343000Y-54610000D01*
X77343000Y-54610000D02*
X78867000Y-56134000D01*
X82327750Y-60483750D02*
X78867000Y-57023000D01*
X83820000Y-60483750D02*
X82327750Y-60483750D01*
X78867000Y-56134000D02*
X78867000Y-57023000D01*
G04 #@! TO.N,COL3*
X92750000Y-73954000D02*
X92456000Y-73660000D01*
X92456000Y-73660000D02*
X91440000Y-73660000D01*
X92750000Y-91250000D02*
X92750000Y-73954000D01*
X92750000Y-53150000D02*
X92750000Y-72350000D01*
X92750000Y-72350000D02*
X91440000Y-73660000D01*
X92750000Y-35854000D02*
X92456000Y-35560000D01*
X92456000Y-35560000D02*
X91440000Y-35560000D01*
X92750000Y-53150000D02*
X92750000Y-35854000D01*
G04 #@! TO.N,COL4*
X111800000Y-53150000D02*
X111800000Y-34100000D01*
X111800000Y-53150000D02*
X111800000Y-72350000D01*
X111800000Y-72350000D02*
X110490000Y-73660000D01*
X111800000Y-73954000D02*
X111506000Y-73660000D01*
X111506000Y-73660000D02*
X110490000Y-73660000D01*
X111800000Y-91250000D02*
X111800000Y-73954000D01*
G04 #@! TO.N,COL5*
X130850000Y-53150000D02*
X130850000Y-72200000D01*
X130850000Y-34100000D02*
X130850000Y-53150000D01*
X130850000Y-82931000D02*
X130850000Y-72200000D01*
X130850000Y-83272000D02*
X130850000Y-82931000D01*
X128270000Y-85852000D02*
X130850000Y-83272000D01*
X128270000Y-88670000D02*
X128270000Y-85852000D01*
X130850000Y-91250000D02*
X128270000Y-88670000D01*
G04 #@! TO.N,COL6*
X149900000Y-34100000D02*
X149900000Y-53150000D01*
X149900000Y-72200000D02*
X149900000Y-53150000D01*
X149900000Y-91250000D02*
X149900000Y-89659010D01*
X149900000Y-89659010D02*
X149900000Y-72200000D01*
G04 #@! TO.N,COL7*
X168950000Y-53150000D02*
X168950000Y-37168026D01*
X168950000Y-37168026D02*
X168950000Y-34100000D01*
X168950000Y-72200000D02*
X168950000Y-70609010D01*
X168950000Y-70609010D02*
X168950000Y-53150000D01*
X168950000Y-91250000D02*
X168950000Y-89659010D01*
X168950000Y-89659010D02*
X168950000Y-72200000D01*
G04 #@! TO.N,COL8*
X188000000Y-72200000D02*
X188000000Y-91250000D01*
X188000000Y-53150000D02*
X188000000Y-72200000D01*
X188000000Y-34100000D02*
X188000000Y-53150000D01*
G04 #@! TO.N,COL9*
X207050000Y-53150000D02*
X207050000Y-34100000D01*
X207050000Y-72200000D02*
X207050000Y-70609010D01*
X207050000Y-70609010D02*
X207050000Y-53150000D01*
X207050000Y-91250000D02*
X207050000Y-72200000D01*
G04 #@! TO.N,COL10*
X226100000Y-91400000D02*
X224790000Y-92710000D01*
X226100000Y-72200000D02*
X226100000Y-91400000D01*
X226100000Y-53150000D02*
X226100000Y-54740990D01*
X226100000Y-54740990D02*
X226100000Y-72200000D01*
X226100000Y-34100000D02*
X226100000Y-53150000D01*
G04 #@! TO.N,COL11*
X245150000Y-72200000D02*
X245150000Y-73790990D01*
X245150000Y-73790990D02*
X245150000Y-91250000D01*
X245150000Y-53150000D02*
X245150000Y-72200000D01*
X245150000Y-34100000D02*
X245150000Y-35690990D01*
X245150000Y-35690990D02*
X245150000Y-53150000D01*
G04 #@! TO.N,GND*
X83820000Y-37623750D02*
X83820000Y-40163750D01*
X74803000Y-32512000D02*
X71151750Y-32512000D01*
X71151750Y-32512000D02*
X68580000Y-35083750D01*
X78072099Y-35781099D02*
X74803000Y-32512000D01*
X83820000Y-37623750D02*
X81977349Y-35781099D01*
X81977349Y-35781099D02*
X78072099Y-35781099D01*
D22*
G04 #@! TO.N,+5V*
X68580000Y-40163750D02*
X67024250Y-38608000D01*
X67024250Y-38608000D02*
X67024250Y-37052250D01*
X67024250Y-37052250D02*
X60706000Y-30734000D01*
X60706000Y-30734000D02*
X36322000Y-30734000D01*
X36322000Y-30734000D02*
X31496000Y-35560000D01*
X31496000Y-63881000D02*
X34290000Y-66675000D01*
X31496000Y-60325000D02*
X31496000Y-63881000D01*
X31496000Y-35560000D02*
X31496000Y-60325000D01*
D21*
G04 #@! TO.N,PIN18*
X68580000Y-50323750D02*
X66421000Y-52482750D01*
X66421000Y-52482750D02*
X66421000Y-56007000D01*
X66421000Y-56007000D02*
X57785000Y-64643000D01*
X57785000Y-64643000D02*
X57785000Y-68199000D01*
X57785000Y-68199000D02*
X57785000Y-69596000D01*
G04 #@! TO.N,PIN15*
X58293000Y-68834000D02*
X58547000Y-69088000D01*
X58293000Y-64897000D02*
X58293000Y-68834000D01*
X66929000Y-56261000D02*
X58293000Y-64897000D01*
X68580000Y-52863750D02*
X66929000Y-54514750D01*
X66929000Y-54514750D02*
X66929000Y-56261000D01*
G04 #@! TD*
M02*
