M48
INCH,TZ
T1C0.031
T2C0.039
T3C0.050
T4C0.058
T5C0.094
T6C0.067
T7C0.120
T8C0.157
%
G90
G05
T1
X13438Y-18750
X13438Y-26250
X13438Y-33750
X16438Y-18750
X16438Y-26250
X16438Y-33750
X18750Y-28438
X18750Y-31438
X18750Y-35938
X18750Y-38938
X20938Y-26250
X23938Y-26250
X26250Y-28438
X26250Y-31438
X26250Y-35938
X26250Y-38938
X28438Y-26250
X31438Y-26250
X33750Y-13438
X33750Y-16438
X33750Y-20938
X33750Y-23938
X33750Y-28438
X33750Y-31438
X33750Y-35938
X33750Y-38938
X41250Y-13438
X41250Y-16438
X41250Y-20938
X41250Y-23938
X41250Y-28438
X41250Y-31438
X41250Y-35938
X41250Y-38938
X48750Y-13438
X48750Y-16438
X48750Y-20938
X48750Y-23938
X48750Y-28438
X48750Y-31438
X48750Y-35938
X48750Y-38938
X56250Y-13438
X56250Y-16438
X56250Y-20938
X56250Y-23938
X56250Y-28438
X56250Y-31438
X63750Y-13438
X63750Y-16438
X63750Y-20938
X63750Y-23938
X63750Y-28438
X63750Y-31438
X63750Y-35938
X63750Y-38938
X71250Y-13438
X71250Y-16438
X71250Y-20938
X71250Y-23938
X71250Y-28438
X71250Y-31438
X71250Y-35938
X71250Y-38938
X78750Y-13438
X78750Y-16438
X78750Y-20938
X78750Y-23938
X78750Y-28438
X78750Y-31438
X78750Y-35938
X78750Y-38938
X86250Y-13438
X86250Y-16438
X86250Y-20938
X86250Y-23938
X86250Y-28438
X86250Y-31438
X86250Y-35938
X86250Y-38938
X88438Y-33750
X91437Y-33750
X93750Y-13438
X93750Y-16438
X93750Y-20938
X93750Y-23938
X93750Y-28438
X93750Y-31438
X93750Y-35938
X93750Y-38938
X95938Y-18750
X95938Y-26250
X95938Y-33750
X98937Y-18750
X98937Y-26250
X98937Y-33750
T2
X24970Y-32864
X24970Y-34636
X27530Y-32864
X27530Y-34636
T3
X19500Y-12813
X19500Y-13812
X19500Y-14813
X19500Y-15813
X19500Y-16813
X19500Y-17813
X19500Y-18813
X19500Y-19813
X19500Y-20813
X19500Y-21813
X19500Y-22813
X19500Y-23813
X25500Y-12813
X25500Y-13812
X25500Y-14813
X25500Y-15813
X25500Y-16813
X25500Y-17813
X25500Y-18813
X25500Y-19813
X25500Y-20813
X25500Y-21813
X25500Y-22813
X25500Y-23813
T4
X13500Y-14000
X13500Y-21500
X13500Y-29000
X13500Y-36500
X14016Y-13425
X14016Y-20925
X14016Y-28425
X14016Y-35925
X15984Y-13228
X15984Y-20728
X15984Y-28228
X15984Y-35728
X16000Y-13000
X16000Y-20500
X16000Y-28000
X16000Y-35500
X21000Y-14000
X21000Y-21500
X21000Y-29000
X21000Y-36500
X21516Y-13425
X21516Y-20925
X21516Y-28425
X21516Y-35925
X23484Y-13228
X23484Y-20728
X23484Y-28228
X23484Y-35728
X23500Y-13000
X23500Y-20500
X23500Y-28000
X23500Y-35500
X28500Y-14000
X28500Y-21500
X28500Y-29000
X28500Y-36500
X29016Y-13425
X29016Y-20925
X29016Y-28425
X29016Y-35925
X30984Y-13228
X30984Y-20728
X30984Y-28228
X30984Y-35728
X31000Y-13000
X31000Y-20500
X31000Y-28000
X31000Y-35500
X36000Y-14000
X36000Y-21500
X36000Y-29000
X36000Y-36500
X36516Y-13425
X36516Y-20925
X36516Y-28425
X36516Y-35925
X38484Y-13228
X38484Y-20728
X38484Y-28228
X38484Y-35728
X38500Y-13000
X38500Y-20500
X38500Y-28000
X38500Y-35500
X43500Y-14000
X43500Y-21500
X43500Y-29000
X43500Y-36500
X44016Y-13425
X44016Y-20925
X44016Y-28425
X44016Y-35925
X45984Y-13228
X45984Y-20728
X45984Y-28228
X45984Y-35728
X46000Y-13000
X46000Y-20500
X46000Y-28000
X46000Y-35500
X51000Y-14000
X51000Y-21500
X51000Y-29000
X51000Y-36500
X51516Y-13425
X51516Y-20925
X51516Y-28425
X51516Y-35925
X53484Y-13228
X53484Y-20728
X53484Y-28228
X53484Y-35728
X53500Y-13000
X53500Y-20500
X53500Y-28000
X53500Y-35500
X54750Y-36500
X55266Y-35925
X57234Y-35728
X57250Y-35500
X58500Y-14000
X58500Y-21500
X58500Y-29000
X58500Y-36500
X59016Y-13425
X59016Y-20925
X59016Y-28425
X59016Y-35925
X60984Y-13228
X60984Y-20728
X60984Y-28228
X60984Y-35728
X61000Y-13000
X61000Y-20500
X61000Y-28000
X61000Y-35500
X66000Y-14000
X66000Y-21500
X66000Y-29000
X66000Y-36500
X66516Y-13425
X66516Y-20925
X66516Y-28425
X66516Y-35925
X68484Y-13228
X68484Y-20728
X68484Y-28228
X68484Y-35728
X68500Y-13000
X68500Y-20500
X68500Y-28000
X68500Y-35500
X73500Y-14000
X73500Y-21500
X73500Y-29000
X73500Y-36500
X74016Y-13425
X74016Y-20925
X74016Y-28425
X74016Y-35925
X75984Y-13228
X75984Y-20728
X75984Y-28228
X75984Y-35728
X76000Y-13000
X76000Y-20500
X76000Y-28000
X76000Y-35500
X81000Y-14000
X81000Y-21500
X81000Y-29000
X81000Y-36500
X81516Y-13425
X81516Y-20925
X81516Y-28425
X81516Y-35925
X83484Y-13228
X83484Y-20728
X83484Y-28228
X83484Y-35728
X83500Y-13000
X83500Y-20500
X83500Y-28000
X83500Y-35500
X88500Y-14000
X88500Y-21500
X88500Y-29000
X88500Y-36500
X89016Y-13425
X89016Y-20925
X89016Y-28425
X89016Y-35925
X90984Y-13228
X90984Y-20728
X90984Y-28228
X90984Y-35728
X91000Y-13000
X91000Y-20500
X91000Y-28000
X91000Y-35500
X96000Y-14000
X96000Y-21500
X96000Y-29000
X96000Y-36500
X96516Y-13425
X96516Y-20925
X96516Y-28425
X96516Y-35925
X98484Y-13228
X98484Y-20728
X98484Y-28228
X98484Y-35728
X98500Y-13000
X98500Y-20500
X98500Y-28000
X98500Y-35500
T5
X18750Y-33750
X33750Y-18750
X56250Y-26250
X78750Y-18750
X93750Y-33750
T6
X13000Y-15000
X13000Y-22500
X13000Y-30000
X13000Y-37500
X17000Y-15000
X17000Y-22500
X17000Y-30000
X17000Y-37500
X20500Y-15000
X20500Y-22500
X20500Y-30000
X20500Y-37500
X24500Y-15000
X24500Y-22500
X24500Y-30000
X24500Y-37500
X28000Y-15000
X28000Y-22500
X28000Y-30000
X28000Y-37500
X32000Y-15000
X32000Y-22500
X32000Y-30000
X32000Y-37500
X35500Y-15000
X35500Y-22500
X35500Y-30000
X35500Y-37500
X39500Y-15000
X39500Y-22500
X39500Y-30000
X39500Y-37500
X43000Y-15000
X43000Y-22500
X43000Y-30000
X43000Y-37500
X47000Y-15000
X47000Y-22500
X47000Y-30000
X47000Y-37500
X50500Y-15000
X50500Y-22500
X50500Y-30000
X50500Y-37500
X54250Y-37500
X54500Y-15000
X54500Y-22500
X54500Y-30000
X54500Y-37500
X58000Y-15000
X58000Y-22500
X58000Y-30000
X58000Y-37500
X58250Y-37500
X62000Y-15000
X62000Y-22500
X62000Y-30000
X62000Y-37500
X65500Y-15000
X65500Y-22500
X65500Y-30000
X65500Y-37500
X69500Y-15000
X69500Y-22500
X69500Y-30000
X69500Y-37500
X73000Y-15000
X73000Y-22500
X73000Y-30000
X73000Y-37500
X77000Y-15000
X77000Y-22500
X77000Y-30000
X77000Y-37500
X80500Y-15000
X80500Y-22500
X80500Y-30000
X80500Y-37500
X84500Y-15000
X84500Y-22500
X84500Y-30000
X84500Y-37500
X88000Y-15000
X88000Y-22500
X88000Y-30000
X88000Y-37500
X92000Y-15000
X92000Y-22500
X92000Y-30000
X92000Y-37500
X95500Y-15000
X95500Y-22500
X95500Y-30000
X95500Y-37500
X99500Y-15000
X99500Y-22500
X99500Y-30000
X99500Y-37500
T7
X51563Y-40250
X60938Y-40250
T8
X15000Y-15000
X15000Y-22500
X15000Y-30000
X15000Y-37500
X22500Y-15000
X22500Y-22500
X22500Y-30000
X22500Y-37500
X30000Y-15000
X30000Y-22500
X30000Y-30000
X30000Y-37500
X37500Y-15000
X37500Y-22500
X37500Y-30000
X37500Y-37500
X45000Y-15000
X45000Y-22500
X45000Y-30000
X45000Y-37500
X51563Y-34250
X52500Y-15000
X52500Y-22500
X52500Y-30000
X52500Y-37500
X56250Y-37500
X60000Y-15000
X60000Y-22500
X60000Y-30000
X60000Y-37500
X60938Y-34250
X67500Y-15000
X67500Y-22500
X67500Y-30000
X67500Y-37500
X75000Y-15000
X75000Y-22500
X75000Y-30000
X75000Y-37500
X82500Y-15000
X82500Y-22500
X82500Y-30000
X82500Y-37500
X90000Y-15000
X90000Y-22500
X90000Y-30000
X90000Y-37500
X97500Y-15000
X97500Y-22500
X97500Y-30000
X97500Y-37500
T0
M30
