  0
SECTION
  2
HEADER
  9
$ANGBASE
  50
0.0
  9
$ANGDIR
  70
  1
  9
$MEASUREMENT
  70
0
  0
ENDSEC
  0
SECTION
  2
TABLES
  0
TABLE
  2
LTYPE
  70
1
  0
LTYPE
  2
CONTINUOUS
  70
0
  3
Solid line
  72
65
  73
0
  40
0.0
  0
ENDTAB
  0
TABLE
  2
STYLE
  70
4
  0
STYLE
  2
KICAD
  70
0
  40
0
  41
1
  42
1
  50
0
  71
0
  3
isocp.shx
  0
STYLE
  2
KICADB
  70
0
  40
0
  41
1
  42
1
  50
0
  71
0
  3
isocp.shx
  0
STYLE
  2
KICADI
  70
0
  40
0
  41
1
  42
1
  50
15
  71
0
  3
isocp.shx
  0
STYLE
  2
KICADBI
  70
0
  40
0
  41
1
  42
1
  50
15
  71
0
  3
isocp.shx
  0
ENDTAB
  0
TABLE
  2
LAYER
  70
30
  0
LAYER
  2
BLACK
  70
0
  62
7
  6
CONTINUOUS
  0
LAYER
  2
GRAY1
  70
0
  62
251
  6
CONTINUOUS
  0
LAYER
  2
GRAY2
  70
0
  62
8
  6
CONTINUOUS
  0
LAYER
  2
GRAY3
  70
0
  62
9
  6
CONTINUOUS
  0
LAYER
  2
WHITE
  70
0
  62
7
  6
CONTINUOUS
  0
LAYER
  2
LYELLOW
  70
0
  62
51
  6
CONTINUOUS
  0
LAYER
  2
BLUE1
  70
0
  62
178
  6
CONTINUOUS
  0
LAYER
  2
GREEN1
  70
0
  62
98
  6
CONTINUOUS
  0
LAYER
  2
CYAN1
  70
0
  62
138
  6
CONTINUOUS
  0
LAYER
  2
RED1
  70
0
  62
18
  6
CONTINUOUS
  0
LAYER
  2
MAGENTA1
  70
0
  62
228
  6
CONTINUOUS
  0
LAYER
  2
BROWN1
  70
0
  62
58
  6
CONTINUOUS
  0
LAYER
  2
BLUE2
  70
0
  62
5
  6
CONTINUOUS
  0
LAYER
  2
GREEN2
  70
0
  62
3
  6
CONTINUOUS
  0
LAYER
  2
CYAN2
  70
0
  62
4
  6
CONTINUOUS
  0
LAYER
  2
RED2
  70
0
  62
1
  6
CONTINUOUS
  0
LAYER
  2
MAGENTA2
  70
0
  62
6
  6
CONTINUOUS
  0
LAYER
  2
BROWN2
  70
0
  62
54
  6
CONTINUOUS
  0
LAYER
  2
BLUE3
  70
0
  62
171
  6
CONTINUOUS
  0
LAYER
  2
GREEN3
  70
0
  62
91
  6
CONTINUOUS
  0
LAYER
  2
CYAN3
  70
0
  62
131
  6
CONTINUOUS
  0
LAYER
  2
RED3
  70
0
  62
11
  6
CONTINUOUS
  0
LAYER
  2
MAGENTA3
  70
0
  62
221
  6
CONTINUOUS
  0
LAYER
  2
YELLOW3
  70
0
  62
2
  6
CONTINUOUS
  0
LAYER
  2
BLUE4
  70
0
  62
5
  6
CONTINUOUS
  0
LAYER
  2
GREEN4
  70
0
  62
3
  6
CONTINUOUS
  0
LAYER
  2
CYAN4
  70
0
  62
4
  6
CONTINUOUS
  0
LAYER
  2
RED4
  70
0
  62
1
  6
CONTINUOUS
  0
LAYER
  2
MAGENTA4
  70
0
  62
6
  6
CONTINUOUS
  0
LAYER
  2
YELLOW4
  70
0
  62
2
  6
CONTINUOUS
  0
ENDTAB
  0
ENDSEC
  0
SECTION
  2
ENTITIES
0
LINE
8
Black
10
254.8
20
-28.5011
11
254.807
21
-28.5011
0
LINE
8
Black
10
254.807
20
-28.5011
11
255.621
21
-28.6447
0
LINE
8
Black
10
255.621
20
-28.6447
11
255.646
21
-28.6537
0
LINE
8
Black
10
255.646
20
-28.6537
11
255.646
21
-28.6537
0
LINE
8
Black
10
255.646
20
-28.6537
11
256.362
21
-29.0672
0
LINE
8
Black
10
256.362
20
-29.0672
11
256.382
21
-29.0839
0
LINE
8
Black
10
256.382
20
-29.0839
11
256.382
21
-29.0839
0
LINE
8
Black
10
256.382
20
-29.0839
11
256.913
21
-29.7174
0
LINE
8
Black
10
256.913
20
-29.7174
11
256.913
21
-29.7174
0
LINE
8
Black
10
256.913
20
-29.7174
11
256.926
21
-29.74
0
LINE
8
Black
10
256.926
20
-29.74
11
257.209
21
-30.5171
0
LINE
8
Black
10
257.209
20
-30.5171
11
257.211
21
-30.5267
0
LINE
8
Black
10
257.211
20
-30.5267
11
257.214
21
-30.5362
0
LINE
8
Black
10
257.214
20
-30.5362
11
257.25
21
-30.9497
0
LINE
8
Black
10
257.25
20
-30.9497
11
257.249
21
-30.953
0
LINE
8
Black
10
257.249
20
-30.953
11
257.25
21
-30.9562
0
LINE
8
Black
10
257.25
20
-30.9562
11
257.25
21
-102.394
0
LINE
8
Black
10
257.25
20
-102.394
11
257.249
21
-102.4
0
LINE
8
Black
10
257.249
20
-102.4
11
257.249
21
-102.407
0
LINE
8
Black
10
257.249
20
-102.407
11
257.105
21
-103.221
0
LINE
8
Black
10
257.105
20
-103.221
11
257.096
21
-103.246
0
LINE
8
Black
10
257.096
20
-103.246
11
257.096
21
-103.246
0
LINE
8
Black
10
257.096
20
-103.246
11
256.683
21
-103.962
0
LINE
8
Black
10
256.683
20
-103.962
11
256.666
21
-103.982
0
LINE
8
Black
10
256.666
20
-103.982
11
256.666
21
-103.982
0
LINE
8
Black
10
256.666
20
-103.982
11
256.033
21
-104.513
0
LINE
8
Black
10
256.033
20
-104.513
11
256.033
21
-104.513
0
LINE
8
Black
10
256.033
20
-104.513
11
256.01
21
-104.526
0
LINE
8
Black
10
256.01
20
-104.526
11
255.233
21
-104.809
0
LINE
8
Black
10
255.233
20
-104.809
11
255.223
21
-104.811
0
LINE
8
Black
10
255.223
20
-104.811
11
255.214
21
-104.814
0
LINE
8
Black
10
255.214
20
-104.814
11
254.8
21
-104.85
0
LINE
8
Black
10
254.8
20
-104.85
11
254.797
21
-104.849
0
LINE
8
Black
10
254.797
20
-104.849
11
254.794
21
-104.85
0
LINE
8
Black
10
254.794
20
-104.85
11
30.9562
21
-104.85
0
LINE
8
Black
10
30.9562
20
-104.85
11
30.9498
21
-104.849
0
LINE
8
Black
10
30.9498
20
-104.849
11
30.9432
21
-104.849
0
LINE
8
Black
10
30.9432
20
-104.849
11
30.1288
21
-104.705
0
LINE
8
Black
10
30.1288
20
-104.705
11
30.1043
21
-104.696
0
LINE
8
Black
10
30.1043
20
-104.696
11
30.1043
21
-104.696
0
LINE
8
Black
10
30.1043
20
-104.696
11
29.3881
21
-104.283
0
LINE
8
Black
10
29.3881
20
-104.283
11
29.3682
21
-104.266
0
LINE
8
Black
10
29.3682
20
-104.266
11
29.3682
21
-104.266
0
LINE
8
Black
10
29.3682
20
-104.266
11
28.8366
21
-103.633
0
LINE
8
Black
10
28.8366
20
-103.633
11
28.8366
21
-103.633
0
LINE
8
Black
10
28.8366
20
-103.633
11
28.8235
21
-103.61
0
LINE
8
Black
10
28.8235
20
-103.61
11
28.5407
21
-102.833
0
LINE
8
Black
10
28.5407
20
-102.833
11
28.539
21
-102.823
0
LINE
8
Black
10
28.539
20
-102.823
11
28.5365
21
-102.814
0
LINE
8
Black
10
28.5365
20
-102.814
11
28.5003
21
-102.4
0
LINE
8
Black
10
28.5003
20
-102.4
11
28.5006
21
-102.397
0
LINE
8
Black
10
28.5006
20
-102.397
11
28.5
21
-102.394
0
LINE
8
Black
10
28.5
20
-102.394
11
28.5
21
-30.9562
0
LINE
8
Black
10
28.5
20
-30.9562
11
28.5011
21
-30.9498
0
LINE
8
Black
10
28.5011
20
-30.9498
11
28.5011
21
-30.9432
0
LINE
8
Black
10
28.5011
20
-30.9432
11
28.6447
21
-30.1288
0
LINE
8
Black
10
28.6447
20
-30.1288
11
28.6537
21
-30.1043
0
LINE
8
Black
10
28.6537
20
-30.1043
11
28.6537
21
-30.1043
0
LINE
8
Black
10
28.6537
20
-30.1043
11
29.0672
21
-29.3881
0
LINE
8
Black
10
29.0672
20
-29.3881
11
29.0839
21
-29.3682
0
LINE
8
Black
10
29.0839
20
-29.3682
11
29.0839
21
-29.3682
0
LINE
8
Black
10
29.0839
20
-29.3682
11
29.7174
21
-28.8366
0
LINE
8
Black
10
29.7174
20
-28.8366
11
29.7174
21
-28.8366
0
LINE
8
Black
10
29.7174
20
-28.8366
11
29.74
21
-28.8235
0
LINE
8
Black
10
29.74
20
-28.8235
11
30.5171
21
-28.5407
0
LINE
8
Black
10
30.5171
20
-28.5407
11
30.5267
21
-28.539
0
LINE
8
Black
10
30.5267
20
-28.539
11
30.5362
21
-28.5365
0
LINE
8
Black
10
30.5362
20
-28.5365
11
30.9497
21
-28.5003
0
LINE
8
Black
10
30.9497
20
-28.5003
11
30.953
21
-28.5006
0
LINE
8
Black
10
30.953
20
-28.5006
11
30.9562
21
-28.5
0
LINE
8
Black
10
30.9562
20
-28.5
11
254.794
21
-28.5
0
LINE
8
Black
10
254.794
20
-28.5
11
254.8
21
-28.5011
0
LINE
8
Black
10
30.9595
20
-28.65
11
30.5591
21
-28.685
0
LINE
8
Black
10
30.5591
20
-28.685
11
29.8037
21
-28.96
0
LINE
8
Black
10
29.8037
20
-28.96
11
29.1904
21
-29.4746
0
LINE
8
Black
10
29.1904
20
-29.4746
11
28.7902
21
-30.1679
0
LINE
8
Black
10
28.7902
20
-30.1679
11
28.65
21
-30.9628
0
LINE
8
Black
10
28.65
20
-30.9628
11
28.65
21
-102.39
0
LINE
8
Black
10
28.65
20
-102.39
11
28.685
21
-102.791
0
LINE
8
Black
10
28.685
20
-102.791
11
28.96
21
-103.546
0
LINE
8
Black
10
28.96
20
-103.546
11
29.4746
21
-104.16
0
LINE
8
Black
10
29.4746
20
-104.16
11
30.1679
21
-104.56
0
LINE
8
Black
10
30.1679
20
-104.56
11
30.9628
21
-104.7
0
LINE
8
Black
10
30.9628
20
-104.7
11
254.79
21
-104.7
0
LINE
8
Black
10
254.79
20
-104.7
11
255.191
21
-104.665
0
LINE
8
Black
10
255.191
20
-104.665
11
255.946
21
-104.39
0
LINE
8
Black
10
255.946
20
-104.39
11
256.56
21
-103.875
0
LINE
8
Black
10
256.56
20
-103.875
11
256.96
21
-103.182
0
LINE
8
Black
10
256.96
20
-103.182
11
257.1
21
-102.387
0
LINE
8
Black
10
257.1
20
-102.387
11
257.1
21
-30.9595
0
LINE
8
Black
10
257.1
20
-30.9595
11
257.065
21
-30.5591
0
LINE
8
Black
10
257.065
20
-30.5591
11
256.79
21
-29.8037
0
LINE
8
Black
10
256.79
20
-29.8037
11
256.275
21
-29.1904
0
LINE
8
Black
10
256.275
20
-29.1904
11
255.582
21
-28.7902
0
LINE
8
Black
10
255.582
20
-28.7902
11
254.787
21
-28.65
0
LINE
8
Black
10
254.787
20
-28.65
11
30.9595
21
-28.65
  0
ENDSEC
  0
EOF
